<svg width="19" height="12" viewBox="0 0 19 12" fill="none" xmlns="http://www.w3.org/2000/svg">
<path fill-rule="evenodd" clip-rule="evenodd" d="M0.23999 0.900024L4.35001 5.01001H0.23999V0.900024Z" fill="black"/>
<path fill-rule="evenodd" clip-rule="evenodd" d="M3.02002 0.900024L7.13004 5.01001H3.02002V0.900024Z" fill="black"/>
<path fill-rule="evenodd" clip-rule="evenodd" d="M5.79999 0.900024L9.92001 5.01001H5.79999V0.900024Z" fill="black"/>
<path fill-rule="evenodd" clip-rule="evenodd" d="M11.19 0.900024L15.31 5.01001H11.19V0.900024Z" fill="black"/>
<path fill-rule="evenodd" clip-rule="evenodd" d="M13.98 0.900024L18.09 5.01001H13.98V0.900024Z" fill="black"/>
<path fill-rule="evenodd" clip-rule="evenodd" d="M2.01999 6.07001L1.98999 7.03003L1.95999 7.98999L1.16 7.52002L0.369995 7.04999L1.19 6.56L2.01999 6.07001Z" fill="black"/>
<path fill-rule="evenodd" clip-rule="evenodd" d="M10.24 5.90002L10.21 6.85999L10.18 7.82001L9.37997 7.34998L8.58997 6.87L9.41998 6.39001L10.24 5.90002Z" fill="black"/>
<path d="M1.89005 6.65002H5.11002C5.46002 6.66002 5.76003 6.89 5.97003 7.25C6.15003 7.57 6.27002 7.99997 6.27002 8.46997V9.72998C6.27002 10.2 6.16003 10.63 5.97003 10.95C5.76003 11.31 5.46002 11.54 5.11002 11.54H2.08002C1.73002 11.54 1.43003 11.31 1.22003 10.95C1.04003 10.63 0.920044 10.2 0.920044 9.72998V8.46997H1.48004V9.72998C1.48004 10.1 1.57004 10.44 1.70004 10.67C1.81004 10.86 1.95002 10.98 2.08002 10.98H5.11002C5.24002 10.98 5.38002 10.86 5.49002 10.67C5.63002 10.43 5.71002 10.1 5.71002 9.72998V8.46997C5.71002 8.09997 5.62002 7.77003 5.49002 7.53003C5.38002 7.34003 5.24002 7.21997 5.11002 7.21997H1.89005V6.65002Z" fill="black"/>
<path d="M9.64999 6.47998H17.18C17.53 6.48998 17.83 6.72002 18.04 7.08002C18.22 7.40002 18.34 7.82999 18.34 8.29999V9.56C18.34 10.03 18.23 10.46 18.04 10.78C17.83 11.14 17.53 11.37 17.18 11.37H9.84C9.49 11.37 9.19001 11.14 8.98001 10.78C8.80001 10.46 8.67999 10.03 8.67999 9.56V8.29999H9.23999V9.56C9.23999 9.93 9.32999 10.27 9.45999 10.5C9.56999 10.69 9.71 10.81 9.84 10.81H17.18C17.31 10.81 17.45 10.69 17.56 10.5C17.7 10.26 17.78 9.93 17.78 9.56V8.29999C17.78 7.92999 17.69 7.58999 17.56 7.35999C17.45 7.16999 17.31 7.04999 17.18 7.04999H9.64999V6.47998Z" fill="black"/>
</svg>
