<svg width="23" height="9" viewBox="0 0 23 9" fill="none" xmlns="http://www.w3.org/2000/svg">
<path d="M2.85001 3.68997H4.56003V4.25992H2.85001V3.68997ZM7.49002 3.96994L4.32001 5.28995V2.64993L7.49002 3.96994Z" fill="black"/>
<path d="M15 4.32001L18.17 3V5.64001L15 4.32001ZM17.93 4.04004H19.64V4.60999H17.93V4.04004Z" fill="black"/>
<path d="M1 8.23004H22.15" stroke="black" stroke-width="0.5" stroke-linecap="round" stroke-linejoin="bevel"/>
<path d="M7.87 0V8.30005" stroke="black" stroke-width="0.5" stroke-linejoin="bevel"/>
<path d="M15.01 0V8.30005" stroke="black" stroke-width="0.5" stroke-linejoin="bevel"/>
<path d="M2.90002 3.87006H4.61005V4.44H2.90002V3.87006ZM7.54004 4.15002L4.37003 5.47003V2.83002L7.54004 4.15002Z" stroke="black" stroke-width="0.57" stroke-linecap="round" stroke-linejoin="round"/>
<path d="M15.28 4.15002L18.45 2.83002V5.47003L15.28 4.15002ZM18.2101 3.87006H19.92V4.44H18.2101V3.87006Z" stroke="black" stroke-width="0.57" stroke-linecap="round" stroke-linejoin="round"/>
</svg>
