<svg width="11" height="14" viewBox="0 0 11 14" fill="none" xmlns="http://www.w3.org/2000/svg">
<path d="M5.53 7.21002L9.06 13.42C9.26 12.92 9.35999 12.45 9.35999 12C9.35999 11.82 9.34 11.62 9.31 11.41L6.07999 6.28003M5.35999 5.23004L4.94 4.52002C4.7 4.44002 4.46999 4.16 4.26999 3.69L3.72 2.42999C3.3 1.47999 2.78998 1 2.16998 1C1.83998 1 1.57 1.12 1.34 1.37C1.11 1.61 1 1.91001 1 2.26001C1 2.76001 1.17 3.19001 1.5 3.57001C1.84 3.94001 2.22998 4.13 2.66998 4.13C2.69998 4.13 2.80998 4.13004 3.00998 4.10004H3.14999C3.23999 4.09004 3.30001 4.08002 3.35001 4.08002C3.64001 4.08002 3.89001 4.31002 4.10001 4.77002C4.14001 4.85002 4.17998 4.93001 4.22998 5.01001L4.85001 6.08002M5.84 4.58002L1.56998 11.43C1.54998 11.55 1.54999 11.66 1.54999 11.76C1.54999 12.32 1.66 12.87 1.88 13.42L6.10999 6.14001C6.23999 5.91001 6.32999 5.76004 6.35999 5.67004L6.41 5.54004C6.54 5.19004 6.76999 5.02002 7.10999 5.02002H7.31998L7.62 5.05005C8.17 5.08005 8.7 4.78003 9.22 4.16003C9.74 3.54003 10 2.88 10 2.19C10 1.84 9.90999 1.56003 9.73999 1.34003C9.55999 1.12003 9.33998 1.01001 9.06998 1.01001C8.71998 1.01001 8.32998 1.36005 7.88998 2.05005L6.69 3.97003C6.43 4.39003 6.18998 4.60004 5.97998 4.60004C5.95998 4.60004 5.91999 4.60003 5.85999 4.59003L5.84 4.58002ZM3.12 2.26001L3.25998 2.56C3.38998 2.83 3.44998 3.04002 3.44998 3.21002C3.44998 3.53002 3.21999 3.69 2.76999 3.69C2.43999 3.69 2.13001 3.54005 1.85001 3.24005C1.57001 2.94005 1.42999 2.61 1.42999 2.25C1.42999 2.03 1.49999 1.85001 1.64999 1.70001C1.79999 1.54001 1.97999 1.47003 2.17999 1.47003C2.51999 1.47003 2.83001 1.73001 3.10001 2.26001H3.12ZM7.48999 3.49005L8.35001 2.10004C8.62001 1.68004 8.84999 1.46002 9.04999 1.46002C9.20999 1.46002 9.33 1.52002 9.41 1.65002C9.49 1.78002 9.53 1.97004 9.53 2.23004C9.53 2.76004 9.32 3.29005 8.91 3.80005C8.49 4.31005 8.06998 4.57001 7.63998 4.57001C7.34998 4.57001 7.19998 4.44 7.19998 4.19C7.19998 4.04 7.29999 3.80004 7.48999 3.48004V3.49005ZM5.78 6.13C5.78 6.33 5.67999 6.42999 5.48999 6.42999C5.29999 6.42999 5.19998 6.33 5.19998 6.13C5.19998 5.93 5.29999 5.84003 5.48999 5.84003C5.67999 5.84003 5.78 5.94 5.78 6.13Z" stroke="black" stroke-width="0.5" stroke-linejoin="bevel"/>
</svg>
