<svg width="14" height="12" viewBox="0 0 14 12" fill="none" xmlns="http://www.w3.org/2000/svg">
<path d="M4.58002 4.91998V5.37L5.06003 5.10999C5.22003 4.96999 5.35004 4.98 5.35004 5.06V5.38L5.83002 5.12C5.99002 4.98 6.13004 4.99001 6.13004 5.07001V5.39001L6.23004 5.34003L6.61002 5.13C6.77002 4.99001 6.90002 5.00002 6.90002 5.08002V5.40002L7.38004 5.14001C7.54004 5.00001 7.68002 5.01003 7.68002 5.09003V5.40997L7.96002 5.26001L8.16003 5.15002C8.32003 5.01002 8.45004 5.01998 8.45004 5.09998V5.41998L8.93002 5.15997C9.09002 5.01997 9.22003 5.02999 9.22003 5.10999V5.42999L9.72003 5.01001C9.89003 4.99001 9.99002 5.15997 9.99002 5.15997C10.3 5.01997 10.58 4.82001 10.83 4.57001C11.25 4.14001 11.45 3.91 11.58 3.75C11.63 3.68 11.64 3.60001 11.64 3.51001C11.64 3.28001 11.46 3.09998 11.23 3.09998C11.12 3.09998 11.01 3.13997 10.94 3.21997C10.82 3.36997 10.59 3.62998 10.24 3.97998C9.85002 4.36998 9.36002 4.56 8.86002 4.56H6.81003C6.58003 4.56 6.41003 4.53 6.22003 4.44C6.07003 4.37 5.91002 4.26998 5.71002 4.09998C5.24002 3.71998 4.96002 3.24003 4.96002 2.78003V0.580017H2.54004V3.71997L3.76004 4.96002H4.59003L4.58002 4.91998Z" fill="black"/>
<path d="M13.58 10.05H0.570007V11.9H13.58V10.05Z" fill="black"/>
<path d="M7.28003 9.59003V7.34003H7.73004L7.07004 5.72998L6.41003 7.34003H6.86002V9.59003H7.28003Z" fill="black"/>
</svg>
