<svg width="13" height="13" viewBox="0 0 13 13" fill="none" xmlns="http://www.w3.org/2000/svg">
<path d="M10.4 3.00012C9.43999 2.04012 8.11001 1.44012 6.64001 1.44012C5.17001 1.44012 3.85 2.04012 2.88 3.00012C1.91 3.96012 1.32001 5.29013 1.32001 6.76013C1.32001 8.23013 1.92 9.55014 2.88 10.5201C3.84 11.4801 5.17001 12.0801 6.64001 12.0801C8.11001 12.0801 9.42999 11.4801 10.4 10.5201C11.36 9.56014 11.96 8.23013 11.96 6.76013C11.96 5.29013 11.36 3.97012 10.4 3.00012ZM6.64001 0.870117C8.26001 0.870117 9.72999 1.5301 10.8 2.6001C11.87 3.6701 12.53 5.14013 12.53 6.76013C12.53 8.38013 11.87 9.8501 10.8 10.9201C9.72999 11.9901 8.26001 12.6501 6.64001 12.6501C5.02001 12.6501 3.55001 11.9901 2.48001 10.9201C1.41001 9.8501 0.75 8.38013 0.75 6.76013C0.75 5.14013 1.41001 3.6701 2.48001 2.6001C3.55001 1.5301 5.02001 0.870117 6.64001 0.870117Z" fill="black"/>
<path fill-rule="evenodd" clip-rule="evenodd" d="M2.41992 10.4399H10.8599C10.5099 10.8399 10.1099 11.1799 9.66992 11.4699H3.6199C3.1799 11.1799 2.7699 10.8399 2.4299 10.4399" fill="black"/>
<path fill-rule="evenodd" clip-rule="evenodd" d="M5.36005 9.46008H4.82007V4.05005H5.36005V6.48004H7.93005V4.05005H8.46005V9.46008H7.93005V6.99005H5.36005V9.46008Z" fill="black"/>
</svg>
