<svg width="15" height="13" viewBox="0 0 15 13" fill="none" xmlns="http://www.w3.org/2000/svg">
<path fill-rule="evenodd" clip-rule="evenodd" d="M14.05 10.47C14.05 11.63 13.09 12.5801 11.91 12.5801C10.73 12.5801 9.77002 11.63 9.77002 10.47C9.77002 9.31003 10.73 8.36005 11.91 8.36005C13.09 8.36005 14.05 9.31003 14.05 10.47ZM9.5 10.47C9.5 11.78 10.58 12.85 11.91 12.85C13.24 12.85 14.32 11.79 14.32 10.47C14.32 9.15003 13.24 8.09009 11.91 8.09009C10.58 8.09009 9.5 9.15003 9.5 10.47Z" fill="black"/>
<path fill-rule="evenodd" clip-rule="evenodd" d="M12.14 10.47C12.14 10.6 12.03 10.71 11.9 10.71C11.77 10.71 11.66 10.6 11.66 10.47C11.66 10.34 11.77 10.23 11.9 10.23C12.03 10.23 12.14 10.34 12.14 10.47ZM11.39 10.47C11.39 10.75 11.62 10.97 11.9 10.97C12.18 10.97 12.41 10.75 12.41 10.47C12.41 10.19 12.18 9.96997 11.9 9.96997C11.62 9.96997 11.39 10.19 11.39 10.47Z" fill="black"/>
<path d="M2.14001 10.47C2.14001 10.3 2.28001 10.17 2.45001 10.17C2.62001 10.17 2.75 10.31 2.75 10.47C2.75 10.63 2.61001 10.77 2.45001 10.77C2.29001 10.77 2.14001 10.64 2.14001 10.47ZM3.96997 10.47C3.96997 9.63997 3.29001 8.96997 2.45001 8.96997C1.61001 8.96997 0.929993 9.63997 0.929993 10.47C0.929993 11.3 1.61001 11.97 2.45001 11.97C3.29001 11.97 3.96997 11.3 3.96997 10.47Z" stroke="black" stroke-width="0.22" stroke-miterlimit="22.93"/>
<path fill-rule="evenodd" clip-rule="evenodd" d="M7.65002 3.53003V3.32001H11.75L12.17 3.53003H7.65002ZM7.63 2.89001V1.23999H3.66998V1.03003H11.42V1.26001H8.84003L10.76 2.89001H7.63ZM14.28 4.46997V2.28998L13.43 1.23999H11.85V1.03003H12.43V0.640015H2.70001V1.01001H3.31V1.23999H0.909973V3.32001H6.33002V3.53003H2.12V4.48999H6.33002V6.09003H8.83002V4.46997H14.29H14.28Z" fill="black"/>
<path fill-rule="evenodd" clip-rule="evenodd" d="M7.15997 10.47C7.15997 10.19 6.93002 9.97003 6.65002 9.97003C6.37002 9.97003 6.14001 10.19 6.14001 10.47C6.14001 10.75 6.37002 10.97 6.65002 10.97C6.93002 10.97 7.15997 10.75 7.15997 10.47ZM4.72998 10.47C4.72998 9.42003 5.58997 8.57007 6.65997 8.57007C7.72997 8.57007 8.59003 9.42003 8.59003 10.47C8.59003 11.52 7.72997 12.3701 6.65997 12.3701C5.58997 12.3701 4.72998 11.52 4.72998 10.47Z" fill="black"/>
</svg>
