<svg width="12" height="12" viewBox="0 0 12 12" fill="none" xmlns="http://www.w3.org/2000/svg">
<path d="M10.3202 9.74976C10.2302 9.85976 10.1402 9.94973 10.0602 10.0397L9.86023 10.1198H1.93024L1.73022 10.0397L1.47021 9.74976L1.68024 9.27979H10.1102L10.3202 9.74976Z" fill="black"/>
<path fill-rule="evenodd" clip-rule="evenodd" d="M7.11017 8.58997H4.67017V3.17993H5.21017V8.06995H7.11017V8.58997Z" fill="black"/>
<path d="M9.65002 2.13C8.69002 1.17 7.36001 0.570007 5.89001 0.570007C4.42001 0.570007 3.1 1.17 2.13 2.13C1.16 3.09 0.570007 4.42001 0.570007 5.89001C0.570007 7.36001 1.17 8.68002 2.13 9.65002C3.09 10.61 4.42001 11.21 5.89001 11.21C7.36001 11.21 8.68002 10.61 9.65002 9.65002C10.61 8.69002 11.21 7.36001 11.21 5.89001C11.21 4.42001 10.61 3.1 9.65002 2.13ZM5.89001 0C7.51001 0 8.98002 0.65998 10.05 1.72998C11.12 2.79998 11.78 4.27001 11.78 5.89001C11.78 7.51001 11.12 8.97999 10.05 10.05C8.98002 11.12 7.51001 11.78 5.89001 11.78C4.27001 11.78 2.80001 11.12 1.73001 10.05C0.660011 8.97999 0 7.51001 0 5.89001C0 4.27001 0.660011 2.79998 1.73001 1.72998C2.80001 0.65998 4.27001 0 5.89001 0Z" fill="black"/>
</svg>
