<svg width="12" height="12" viewBox="0 0 12 12" fill="none" xmlns="http://www.w3.org/2000/svg">
<path d="M1.68018 9.28003H10.1102L10.3902 9.56L10.3202 9.75C10.2402 9.84 10.1602 9.93001 10.0702 10.01C9.99019 10.09 9.90018 10.18 9.81018 10.26L9.62018 10.33H2.16019L1.97018 10.26C1.79018 10.1 1.62021 9.92999 1.46021 9.73999L1.6702 9.27002L1.68018 9.28003Z" fill="black"/>
<path d="M9.64999 2.13C8.68999 1.17 7.36001 0.570007 5.89001 0.570007C4.42001 0.570007 3.1 1.17 2.13 2.13C1.17 3.09 0.570007 4.42001 0.570007 5.89001C0.570007 7.36001 1.17 8.68002 2.13 9.65002C3.09 10.61 4.42001 11.21 5.89001 11.21C7.36001 11.21 8.67999 10.61 9.64999 9.65002C10.61 8.69002 11.21 7.36001 11.21 5.89001C11.21 4.42001 10.61 3.1 9.64999 2.13ZM5.89001 0C7.51001 0 8.98002 0.65998 10.05 1.72998C11.12 2.79998 11.78 4.27001 11.78 5.89001C11.78 7.51001 11.12 8.97999 10.05 10.05C8.98002 11.12 7.51001 11.78 5.89001 11.78C4.27001 11.78 2.80001 11.12 1.73001 10.05C0.660011 8.97999 0 7.51001 0 5.89001C0 4.27001 0.660011 2.79998 1.73001 1.72998C2.80001 0.65998 4.27001 0 5.89001 0Z" fill="black"/>
<path d="M3.05005 8.65991V3.10986H4.23004L5.64005 7.03986C5.77005 7.40986 5.87002 7.67986 5.93002 7.85986C6.00002 7.65986 6.11003 7.35991 6.25003 6.96991L7.69003 3.10986H8.75003V8.65991H7.99005V4.0199L6.25003 8.65991H5.54004L3.82004 3.93988V8.65991H3.06003H3.05005Z" fill="black"/>
</svg>
