<svg width="47" height="32" viewBox="0 0 47 32" fill="none" xmlns="http://www.w3.org/2000/svg">
<path d="M35.455 20.2916H42.8822V21.2613H35.455M35.455 20.2916V21.2613M35.455 20.2916H40.936V12.3686H41.7701V4.77571H40.936C40.936 4.36305 40.936 3.9711 40.936 3.55844H9.47975V10.1196H8.74486V3.55844H8.22863V1H7.49387C7.49387 1.86658 7.49387 2.7125 7.49387 3.55844H6.65971C6.65971 9.21182 6.69947 14.8652 6.69947 20.5598H7.5335V24.8308H8.10949V20.5598H8.68535V23.3865H9.26121V20.5598H10.2343L12.8954 13.4828H31.9401V26.4195H40.9559L40.936 26.4401V21.2613H35.455M42.4851 4.77571H43.6766V12.3686H42.4851V4.77571ZM36.7061 9.83076C37.4806 9.83076 38.136 10.4911 38.136 11.3164C38.136 12.1417 37.5004 12.7812 36.7061 12.7812C35.9117 12.7812 35.2763 12.1211 35.2763 11.3164C35.2763 10.5117 35.9117 9.83076 36.7061 9.83076ZM1 27.183H46V28.5034H42.5446V31H4.45541V28.5034H1V27.183ZM5.01152 3.55844H5.90507V20.6217H5.01152V3.55844ZM8.76474 1.88719H9.49951V10.1196H8.76474V1.88719ZM44.61 5.53911H43.6766V11.6051H44.61V5.53911ZM44.61 3.62028H45.9801V13.524H44.61V3.62028Z" stroke="black" stroke-width="0.5" stroke-miterlimit="22.93"/>
</svg>
