<svg width="24" height="16" viewBox="0 0 24 16" fill="none" xmlns="http://www.w3.org/2000/svg">
<path d="M18.37 9.83002H22.11V10.3H18.37M18.37 9.83002V10.3M18.37 9.83002H21.13V5.98999H21.55V2.31H21.13C21.13 2.11 21.13 1.91997 21.13 1.71997H5.29002V4.90002H4.92002V1.71997H4.66003V0.47998H4.29002C4.29002 0.89998 4.29002 1.30997 4.29002 1.71997H3.87003C3.87003 4.45997 3.89002 7.20002 3.89002 9.96002H4.31002V12.03H4.60002V9.96002H4.89002V11.33H5.18002V9.96002H5.67002L7.01003 6.53003H16.6V12.8H21.14L21.13 12.81V10.3H18.37M21.91 2.31H22.51V5.98999H21.91V2.31ZM19 4.76001C19.39 4.76001 19.72 5.07998 19.72 5.47998C19.72 5.87998 19.4 6.19 19 6.19C18.6 6.19 18.28 5.86998 18.28 5.47998C18.28 5.08998 18.6 4.76001 19 4.76001ZM1.02002 13.17H23.68V13.81H21.94V15.02H2.76003V13.81H1.02002V13.17ZM3.04002 1.71997H3.49002V9.98999H3.04002V1.71997ZM4.93002 0.909973H5.30003V4.90002H4.93002V0.909973ZM22.98 2.67999H22.51V5.62H22.98V2.67999ZM22.98 1.75H23.67V6.54999H22.98V1.75Z" stroke="black" stroke-width="0.5" stroke-miterlimit="22.93"/>
</svg>
