<svg width="9" height="14" viewBox="0 0 9 14" fill="none" xmlns="http://www.w3.org/2000/svg">
<path d="M3.82007 10.54V13.23" stroke="black" stroke-width="0.5" stroke-linejoin="bevel"/>
<path d="M5.46997 10.54V13.23" stroke="black" stroke-width="0.5" stroke-linejoin="bevel"/>
<path d="M1.13005 11.64H1.25005V12.14H1.13005V11.64ZM3.81004 11.89L1.04004 13.05V10.74L3.81004 11.9V11.89Z" stroke="black" stroke-width="0.57" stroke-linecap="round" stroke-linejoin="round"/>
<path d="M5.59009 11.88L8.36009 10.72V13.03L5.59009 11.87V11.88ZM8.1601 11.63H8.28009V12.13H8.1601V11.63Z" stroke="black" stroke-width="0.57" stroke-linecap="round" stroke-linejoin="round"/>
<path d="M5.47008 0.290039V4.08008C5.45008 4.41008 5.45008 4.75008 5.41008 5.08008L4.70007 10.2601C4.43007 8.52007 4.00008 6.80005 3.89008 5.05005L3.83008 4.09009V0.300049M4.67007 4.44006C4.80007 4.44006 4.91008 4.52007 4.91008 4.63007V6.12006C4.91008 6.22006 4.80007 6.31006 4.67007 6.31006C4.54007 6.31006 4.44008 6.23006 4.44008 6.12006V4.63007C4.44008 4.53007 4.55007 4.44006 4.67007 4.44006Z" stroke="black" stroke-width="0.5" stroke-linejoin="bevel"/>
</svg>
