<svg width="16" height="27" viewBox="0 0 16 27" fill="none" xmlns="http://www.w3.org/2000/svg">
<path d="M6.08881 21.2996V26.7294" stroke="black" stroke-width="0.5" stroke-linejoin="bevel"/>
<path d="M9.37747 21.2996V26.7294" stroke="black" stroke-width="0.5" stroke-linejoin="bevel"/>
<path d="M0.732977 23.5078H0.971998V24.5208H0.732977V23.5078ZM6.07132 24.0143L0.553711 26.3644V21.6843L6.07132 24.0346V24.0143Z" stroke="black" stroke-width="0.57" stroke-linecap="round" stroke-linejoin="round"/>
<path d="M9.61639 24.0144L15.134 21.6643V26.3444L9.61639 23.9941V24.0144ZM14.7357 23.5079H14.9747V24.5209H14.7357V23.5079Z" stroke="black" stroke-width="0.57" stroke-linecap="round" stroke-linejoin="round"/>
<path d="M9.37547 0.512695V8.19124C9.33563 8.85982 9.33564 9.54866 9.25596 10.2172L7.84168 20.712C7.30386 17.1867 6.44734 13.7019 6.22823 10.1564L6.08881 8.21152V0.532852M7.76202 8.92057C8.02097 8.92057 8.24009 9.08266 8.24009 9.30552V12.3243C8.24009 12.5269 8.02097 12.7092 7.76202 12.7092C7.50307 12.7092 7.30388 12.5471 7.30388 12.3243V9.30552C7.30388 9.10292 7.52299 8.92057 7.76202 8.92057Z" stroke="black" stroke-width="0.5" stroke-linejoin="bevel"/>
</svg>
