<svg width="12" height="15" viewBox="0 0 12 15" fill="none" xmlns="http://www.w3.org/2000/svg">
<path fill-rule="evenodd" clip-rule="evenodd" d="M6.16992 9.80005C8.34992 9.80005 10.1199 11.3701 10.1199 13.3101C10.1199 13.5301 10.0999 13.7501 10.0499 13.9501H2.27997C2.23997 13.7401 2.20996 13.5301 2.20996 13.3101C2.20996 11.3701 3.97991 9.80005 6.15991 9.80005" fill="black"/>
<path d="M11.6301 13.46H0.340088V14.53H11.6301V13.46Z" fill="black"/>
<path fill-rule="evenodd" clip-rule="evenodd" d="M5.51001 10.78H6.39001L5.95001 0.5L5.51001 10.78Z" fill="black"/>
<path fill-rule="evenodd" clip-rule="evenodd" d="M9.21392 1C9.21392 1 9.2539 2.49998 8.5639 3.34998C7.8739 4.19998 7.71388 5.38997 8.67388 5.65997C11.0939 6.34997 11.0639 1.92 9.21392 1Z" fill="black"/>
</svg>
