<svg width="6" height="16" viewBox="0 0 6 16" fill="none" xmlns="http://www.w3.org/2000/svg">
<path d="M1.40012 0.76001V3.34003C2.03012 3.46003 2.94011 3.54999 3.89011 3.35999V0.76001H4.29008V3.26001C4.50008 3.20001 4.71008 3.12003 4.92008 3.03003L5.01011 5.34998C5.04011 6.26998 4.2101 6.71001 3.2501 6.82001H3.45011V10.18C3.45011 10.91 3.25011 11.91 2.89011 12.54C2.60011 11.8 2.30009 10.95 2.30009 10.15V6.82001C1.33009 6.72001 0.470088 6.32002 0.490088 5.77002L0.560095 3.12C0.560095 3.12 0.730108 3.18 1.01011 3.25V0.76001H1.41007H1.40012Z" fill="black"/>
<path fill-rule="evenodd" clip-rule="evenodd" d="M4.73993 7.66992L5.00995 8.02997L5.27997 8.38995H4.91992V11.2H5.27997L5.00995 11.5599L4.73993 11.9199L4.47992 11.5599L4.20996 11.2H4.55994V8.38995H4.20996L4.47992 8.02997L4.73993 7.66992Z" fill="black"/>
<path d="M3.12006 15.11V13.2H3.41003V13.47C3.47003 13.38 3.55009 13.3 3.65009 13.24C3.75009 13.18 3.86005 13.15 3.99005 13.15C4.13005 13.15 4.25009 13.18 4.34009 13.24C4.43009 13.3 4.49009 13.38 4.53009 13.49C4.68009 13.27 4.88006 13.16 5.12006 13.16C5.31006 13.16 5.46006 13.21 5.56006 13.32C5.66006 13.43 5.71008 13.59 5.71008 13.8V15.11H5.39008V13.91C5.39008 13.78 5.38005 13.69 5.36005 13.63C5.34005 13.57 5.30005 13.53 5.24005 13.49C5.18005 13.46 5.12005 13.44 5.05005 13.44C4.91005 13.44 4.80008 13.48 4.71008 13.57C4.62008 13.66 4.58008 13.8 4.58008 14V15.11H4.26007V13.87C4.26007 13.73 4.23005 13.62 4.18005 13.55C4.13005 13.48 4.04004 13.44 3.92004 13.44C3.83004 13.44 3.74004 13.46 3.67004 13.51C3.59004 13.56 3.54006 13.63 3.50006 13.72C3.47006 13.81 3.45007 13.95 3.45007 14.12V15.11H3.13007H3.12006ZM0.0500488 15.11V13.2H0.340088V13.47C0.400088 13.38 0.480078 13.3 0.580078 13.24C0.680078 13.18 0.790044 13.15 0.920044 13.15C1.06004 13.15 1.18008 13.18 1.27008 13.24C1.36008 13.3 1.42008 13.38 1.46008 13.49C1.61008 13.27 1.81005 13.16 2.05005 13.16C2.24005 13.16 2.39005 13.21 2.49005 13.32C2.59005 13.43 2.64008 13.59 2.64008 13.8V15.11H2.32007V13.91C2.32007 13.78 2.31004 13.69 2.29004 13.63C2.27004 13.57 2.23004 13.53 2.17004 13.49C2.12004 13.46 2.05004 13.44 1.98004 13.44C1.84004 13.44 1.73008 13.48 1.64008 13.57C1.55008 13.66 1.51007 13.8 1.51007 14V15.11H1.19006V13.87C1.19006 13.73 1.16005 13.62 1.11005 13.55C1.06005 13.48 0.970037 13.44 0.850037 13.44C0.760037 13.44 0.670037 13.46 0.600037 13.51C0.520037 13.56 0.470054 13.63 0.430054 13.72C0.400054 13.81 0.380066 13.95 0.380066 14.12V15.11H0.0600586H0.0500488Z" fill="black"/>
</svg>
