<svg width="11" height="11" viewBox="0 0 11 11" fill="none" xmlns="http://www.w3.org/2000/svg">
<path fill-rule="evenodd" clip-rule="evenodd" d="M5.78992 0.820068C8.49992 0.820068 10.7 3.03004 10.7 5.73004C10.7 7.51004 9.73995 9.00005 8.31995 9.86005L8.86993 10.61L6.11993 10.6801C6.11993 10.6801 6.09997 10.6801 6.08997 10.6801L6.89996 8.13007L7.45996 8.69006C8.45996 8.11006 9.16992 6.97004 9.16992 5.73004C9.16992 3.88004 7.65994 2.37006 5.80994 2.37006C3.95994 2.37006 2.44995 3.88004 2.44995 5.73004C2.44995 6.98004 3.13991 8.08003 4.15991 8.66003L3.51996 10.0701C1.96996 9.24007 0.909912 7.61004 0.909912 5.73004C0.909912 3.02004 3.11995 0.820068 5.81995 0.820068" fill="black"/>
</svg>
