<svg width="14" height="17" viewBox="0 0 14 17" fill="none" xmlns="http://www.w3.org/2000/svg">
<path d="M8.84998 4.51007C9.30998 4.73007 9.90001 4.90006 10.95 5.06006L10.88 3.32007L10.58 3.63007L10.15 4.06006L9.98999 3.49005C9.98999 3.49005 9.68997 2.51005 8.96997 2.93005L8.83002 3.01007L8.67999 2.96008C8.67999 2.96008 8.73999 2.96006 8.85999 4.50006L8.84998 4.51007ZM2.44 6.66003C2.43 6.80003 2.41998 6.89008 2.41998 6.89008H2.13C2.85 8.42008 3.80999 10.2301 4.67999 10.6201C4.94999 10.7401 5.21999 10.6501 5.48999 10.2401C4.29999 9.87005 3.2 8.17003 2.44 6.66003ZM5.60999 6.25006C4.34999 5.80006 3.71998 5.34007 3.53998 5.20007C3.11998 5.07007 2.85 5.30008 2.69 5.64008C2.81 5.92008 2.94998 6.21007 3.09998 6.51007C3.37998 6.60007 4.56999 6.95008 5.60999 7.27008C5.60999 6.95008 5.60999 6.61007 5.60999 6.26007V6.25006ZM6.32001 5.80005C6.86001 5.97005 7.51998 6.14009 8.28998 6.28009C8.27998 5.78009 8.27003 5.35008 8.28003 4.96008C8.08003 4.85008 7.89 4.73004 7.69 4.60004C7.56 4.51004 7.41003 4.42009 7.28003 4.34009C6.64003 3.96009 6.45997 4.07008 6.40997 4.14008C6.35997 4.60008 6.33001 5.19004 6.32001 5.79004V5.80005ZM1.81 6.16003C1.84 5.99003 1.89001 5.80006 1.95001 5.62006C1.58001 4.79006 1.36999 4.19005 1.35999 4.18005L2.02002 3.98004C2.02002 3.98004 2.14999 4.34006 2.35999 4.87006C2.67999 4.53006 3.14998 4.35005 3.84998 4.61005L3.96002 4.67004C3.96002 4.67004 4.43 5.10006 5.62 5.56006C5.64 4.99006 5.66997 4.45008 5.71997 4.02008L5.75 3.94006C5.75 3.94006 6.11997 2.88006 7.65997 3.81006C7.82997 3.91006 7.96003 4.00008 8.09003 4.08008C8.17003 4.13008 8.24 4.18003 8.31 4.22003C8.4 2.73003 8.67 2.42005 8.81 2.36005L8.59998 2.38007C9.55998 1.81007 10.13 2.36007 10.43 2.82007L10.95 2.30005L11.52 1.72003L11.55 2.50006L11.67 5.14008C12.02 5.18008 12.41 5.21006 12.84 5.25006L12.95 5.88007L11.5 6.47003L11.04 6.66003L11.02 6.18005L11 5.73004C10.04 5.60004 9.40999 5.44008 8.92999 5.27008C8.94999 5.60008 8.98 5.98003 9 6.41003C9.2 6.44003 9.41 6.47006 9.63 6.50006H9.64001C9.91002 6.53006 10.19 6.56009 10.48 6.59009L10.42 7.24005C10.2 7.22005 9.98998 7.20005 9.78998 7.18005L8.89001 7.73004L8.38 8.04004L8.34998 7.47003L8.32001 6.97003C7.55001 6.83003 6.88001 6.67006 6.32001 6.50006C6.32001 6.85006 6.32001 7.18005 6.32001 7.49005C6.88001 7.66005 7.30003 7.78005 7.34003 7.80005L8 8.02008L7.41998 8.39008L6.20001 9.16003L5.67999 9.49005L5.65002 8.90009C5.65002 8.90009 5.63 8.53004 5.62 7.98004C4.91 7.77004 4.09003 7.52004 3.53003 7.35004C4.27003 8.68004 5.20002 9.85004 6.08002 9.67004H6.15997L7.35999 9.69006C7.35999 9.69006 8.17001 9.73008 8.39001 9.46008C8.45002 9.24008 8.79001 8.25005 9.76001 8.43005C9.76001 8.43005 10.12 8.53003 10.23 8.16003L10.32 7.87006L10.63 7.93005C10.63 7.93005 10.93 8.00005 10.99 7.86005C10.95 7.58005 10.86 6.37008 12.47 7.21008L12.62 7.35004C12.62 7.35004 12.55 7.20004 13.4 6.42004L13.88 6.89008C12.75 7.93008 12.26 7.84004 12.08 7.73004L12.13 7.79004C11.61 7.52004 11.68 7.82007 11.68 7.82007V7.91003C11.6 8.54003 11.1 8.63006 10.77 8.62006C10.39 9.29006 9.60999 9.08008 9.60999 9.08008C9.19999 9.01008 9.03003 9.69006 9.03003 9.69006L9 9.76007C8.58 10.4501 7.34003 10.36 7.34003 10.36L6.23999 10.3401C5.70999 11.3701 5.05999 11.5601 4.35999 11.2501C2.95999 10.6201 1.55002 7.38005 0.830017 5.74005C0.650017 5.33005 0.520012 5.03003 0.450012 4.91003L1.06 4.60004C1.14 4.75004 1.27997 5.07005 1.46997 5.49005C1.55997 5.70005 1.67003 5.95008 1.78003 6.21008L1.81 6.16003ZM4.65002 3.24005L4.56 3.67004L4.53003 3.85004L4.34998 3.77008L3.48999 3.40009L3.37 3.35004L3.40997 3.23004L3.66998 2.43005L3.72998 2.26007L3.89001 2.35004L4.22998 2.54004L7.15997 0.960083L7.22998 0.710083L7.28003 0.550049L7.44 0.620056L8.21002 0.930054L8.34003 0.990051L8.28998 1.11005L7.98999 1.84009L7.91998 2.01007L7.76001 1.91003L7.53003 1.75006L4.64001 3.22003L4.65002 3.24005ZM6.33002 8.17004C6.33002 8.17004 6.33002 8.23007 6.33002 8.26007L6.42999 8.20007C6.42999 8.20007 6.37002 8.18004 6.33002 8.17004Z" fill="black"/>
<path fill-rule="evenodd" clip-rule="evenodd" d="M4.78003 13.9699C4.89003 13.8099 5.04002 13.6799 5.21002 13.5999C5.38002 13.5099 5.57998 13.4699 5.78998 13.4699C6.17998 13.4699 6.46001 13.5899 6.64001 13.8199C6.82001 14.0499 6.90997 14.4199 6.90997 14.9299V16.3599H6.56V14.8599C6.56 14.4899 6.5 14.2199 6.37 14.0599C6.25 13.8999 6.04001 13.8199 5.76001 13.8199C5.59001 13.8199 5.45002 13.8499 5.33002 13.9199C5.20002 13.9799 5.10003 14.08 5.03003 14.2C4.98003 14.28 4.94999 14.37 4.92999 14.46C4.90999 14.56 4.90002 14.7299 4.90002 14.9699V16.3499H4.54999V14.7599C4.54999 14.4399 4.47998 14.1999 4.34998 14.0399C4.21998 13.8899 4.00999 13.8099 3.73999 13.8099C3.56999 13.8099 3.41999 13.8399 3.29999 13.9099C3.16999 13.9699 3.07 14.0699 3 14.1899C2.96 14.2699 2.91997 14.36 2.90997 14.45C2.88997 14.55 2.88 14.72 2.88 14.96V16.34H2.52002V13.5099H2.88V13.83C2.99 13.71 3.12002 13.6099 3.27002 13.5499C3.42002 13.4899 3.59002 13.45 3.77002 13.45C3.99002 13.45 4.19 13.5 4.37 13.59C4.55 13.68 4.69003 13.8 4.78003 13.95" fill="black"/>
<path fill-rule="evenodd" clip-rule="evenodd" d="M9.75 13.9699C9.87 13.8099 10.01 13.6799 10.18 13.5999C10.35 13.5099 10.55 13.4699 10.76 13.4699C11.15 13.4699 11.44 13.5899 11.61 13.8199C11.79 14.0499 11.88 14.4199 11.88 14.9299V16.3599H11.53V14.8599C11.53 14.4899 11.47 14.2199 11.34 14.0599C11.22 13.8999 11.01 13.8199 10.73 13.8199C10.56 13.8199 10.42 13.8499 10.3 13.9199C10.18 13.9799 10.07 14.08 10 14.2C9.95 14.28 9.92002 14.37 9.90002 14.46C9.88002 14.56 9.87 14.7299 9.87 14.9699V16.3499H9.52002V14.7599C9.52002 14.4399 9.45001 14.1999 9.32001 14.0399C9.19001 13.8899 8.98002 13.8099 8.71002 13.8099C8.54002 13.8099 8.40002 13.8399 8.27002 13.9099C8.15002 13.9699 8.04997 14.0699 7.96997 14.1899C7.91997 14.2699 7.89 14.36 7.88 14.45C7.86 14.55 7.84998 14.72 7.84998 14.96V16.34H7.48999V13.5099H7.84998V13.83C7.95998 13.71 8.08999 13.6099 8.23999 13.5499C8.38999 13.4899 8.55999 13.45 8.73999 13.45C8.95999 13.45 9.16003 13.5 9.34003 13.59C9.52003 13.68 9.66 13.8 9.75 13.95" fill="black"/>
</svg>
