<svg width="11" height="19" viewBox="0 0 11 19" fill="none" xmlns="http://www.w3.org/2000/svg">
<path fill-rule="evenodd" clip-rule="evenodd" d="M2.22699 15.5781C2.44699 13.9781 3.11701 8.81806 3.02701 7.13806C3.02701 7.13806 0.376993 5.02806 1.13699 2.70806C1.89699 0.388062 4.91699 0.658023 5.78699 2.16802C6.64699 3.67802 7.18701 7.35806 7.02701 10.2681C6.86701 13.1881 7.18699 16.908 5.72699 16.908C4.70699 16.908 2.00699 17.178 2.22699 15.568V15.5781Z" fill="#D1D3D4"/>
<path fill-rule="evenodd" clip-rule="evenodd" d="M3.66699 2.53802C4.28699 2.53802 4.78699 3.03802 4.78699 3.65802C4.78699 4.27802 4.28699 4.77802 3.66699 4.77802C3.04699 4.77802 2.547 4.27802 2.547 3.65802C2.547 3.03802 3.04699 2.53802 3.66699 2.53802Z" fill="#404041"/>
<path d="M2.22699 15.5781C2.44699 13.9781 3.11701 8.81806 3.02701 7.13806C3.02701 7.13806 0.376993 5.02806 1.13699 2.70806C1.89699 0.388062 4.91699 0.658023 5.78699 2.16802C6.64699 3.67802 7.18701 7.35806 7.02701 10.2681C6.86701 13.1881 7.18699 16.908 5.72699 16.908C4.70699 16.908 2.00699 17.178 2.22699 15.568V15.5781Z" stroke="#404041" stroke-width="0.4" stroke-miterlimit="22.93"/>
<path fill-rule="evenodd" clip-rule="evenodd" d="M4.01699 15.718C4.01699 15.718 4.51699 11.9781 4.60699 7.61806C4.60699 7.61806 4.58698 7.19804 4.94698 7.21804C5.30698 7.23804 5.597 7.21806 5.497 8.48806C5.387 9.75806 5.18697 14.6681 4.87697 15.5581C4.56697 16.4481 3.98699 16.338 4.01699 15.728" fill="#404041"/>
<path d="M4.797 9.91803C5.837 9.91803 6.677 10.758 6.677 11.798C6.677 12.838 5.837 13.678 4.797 13.678C3.757 13.678 2.91699 12.838 2.91699 11.798C2.91699 10.758 3.757 9.91803 4.797 9.91803Z" stroke="#404041" stroke-width="0.2" stroke-miterlimit="22.93"/>
<path fill-rule="evenodd" clip-rule="evenodd" d="M4.797 11.028C5.227 11.028 5.56699 11.378 5.56699 11.798C5.56699 12.218 5.217 12.5681 4.797 12.5681C4.377 12.5681 4.02701 12.218 4.02701 11.798C4.02701 11.378 4.377 11.028 4.797 11.028Z" fill="#404041"/>
<path fill-rule="evenodd" clip-rule="evenodd" d="M7.827 5.36804L8.677 5.43805C8.677 5.43805 9.03699 12.168 8.56699 13.778L7.827 13.738L8.63699 16.028L10.257 13.998L9.40698 13.928C9.40698 13.928 9.99701 10.0581 9.55701 5.32806L10.207 5.27802L8.59698 3.06805L7.827 5.36804Z" fill="#404041"/>
</svg>
