<svg width="13" height="16" viewBox="0 0 13 16" fill="none" xmlns="http://www.w3.org/2000/svg">
<path fill-rule="evenodd" clip-rule="evenodd" d="M8.64001 8.53998L9.14001 8.03998L9.64001 7.53998V8.32001H12.09V8.75H9.64001V9.53003L9.14001 9.03003L8.64001 8.53003V8.53998ZM8.54999 5.54999V11.51H8.12V5.54999H8.54999ZM4.98001 5.54999V11.51H4.54999V5.54999H4.98001ZM1.14001 12.64H4.39999V13.07H1.14001V12.64ZM8.73001 12.64H11.99V13.07H8.73001V12.64ZM4.94 12.64H8.20001V13.07H4.94V12.64ZM4.42001 8.53998L3.92001 8.03998L3.42001 7.53998V8.32001H0.970001V8.75H3.42001V9.53003L3.92001 9.03003L4.42001 8.53003V8.53998Z" fill="black"/>
<path d="M6.39001 15.56V14.38H6.57001V14.55C6.61001 14.49 6.66 14.45 6.72 14.41C6.78 14.37 6.84999 14.36 6.92999 14.36C7.01999 14.36 7.09001 14.38 7.14001 14.41C7.20001 14.45 7.24001 14.5 7.26001 14.56C7.35001 14.42 7.48 14.35 7.63 14.35C7.75 14.35 7.83999 14.38 7.89999 14.45C7.95999 14.51 8 14.61 8 14.75V15.56H7.79999V14.82C7.79999 14.74 7.8 14.68 7.78 14.65C7.77 14.61 7.73999 14.59 7.70999 14.57C7.67999 14.55 7.64 14.54 7.59 14.54C7.51 14.54 7.44 14.57 7.38 14.62C7.33 14.68 7.29999 14.76 7.29999 14.88V15.56H7.10001V14.8C7.10001 14.71 7.07999 14.64 7.04999 14.6C7.01999 14.56 6.96001 14.53 6.89001 14.53C6.83001 14.53 6.78001 14.54 6.73001 14.57C6.68001 14.6 6.65 14.64 6.63 14.7C6.61 14.76 6.60001 14.84 6.60001 14.95V15.56H6.39999H6.39001ZM4.28 15.56V14.38H4.45999V14.55C4.49999 14.49 4.54999 14.45 4.60999 14.41C4.66999 14.37 4.74001 14.36 4.82001 14.36C4.91001 14.36 4.98 14.38 5.03 14.41C5.08 14.44 5.12999 14.5 5.14999 14.56C5.23999 14.42 5.36999 14.35 5.51999 14.35C5.63999 14.35 5.73001 14.38 5.79001 14.45C5.85001 14.51 5.89001 14.61 5.89001 14.75V15.56H5.69V14.82C5.69 14.74 5.69001 14.68 5.67001 14.65C5.66001 14.61 5.63001 14.59 5.60001 14.57C5.57001 14.55 5.53001 14.54 5.48001 14.54C5.40001 14.54 5.32999 14.57 5.26999 14.62C5.21999 14.68 5.19 14.76 5.19 14.88V15.56H4.98999V14.8C4.98999 14.71 4.97 14.64 4.94 14.6C4.91 14.56 4.85 14.53 4.78 14.53C4.72 14.53 4.67 14.54 4.62 14.57C4.57 14.6 4.53999 14.64 4.51999 14.7C4.49999 14.76 4.48999 14.84 4.48999 14.95V15.56H4.29001H4.28Z" fill="black"/>
<path fill-rule="evenodd" clip-rule="evenodd" d="M8.10001 3.07001L8.48001 2.70001L8.85001 2.33002V2.90997H10.68V3.22998H8.85001V3.82001L8.48001 3.44L8.10001 3.07001Z" fill="black"/>
<path d="M8.04001 0.840027H7.72V5.28003H8.04001V0.840027Z" fill="black"/>
<path d="M5.38 0.840027H5.06V5.28003H5.38V0.840027Z" fill="black"/>
<path fill-rule="evenodd" clip-rule="evenodd" d="M4.95001 3.07001L4.57001 2.70001L4.19 2.33002V2.90997H2.37V3.22998H4.19V3.82001L4.57001 3.44L4.95001 3.07001Z" fill="black"/>
<path fill-rule="evenodd" clip-rule="evenodd" d="M6.53 4.89001L6.89999 5.27002L7.28 5.65002H6.69V7.46997H6.37V5.65002H5.79001L6.16 5.27002L6.53 4.89001Z" fill="black"/>
</svg>
