<svg width="12" height="12" viewBox="0 0 12 12" fill="none" xmlns="http://www.w3.org/2000/svg">
<path d="M9.54001 2.94C8.62001 2.02 7.36002 1.46002 5.96002 1.46002C4.56002 1.46002 3.3 2.03 2.38 2.94C1.46 3.86 0.900024 5.12002 0.900024 6.52002C0.900024 7.92002 1.47 9.18004 2.38 10.1C3.3 11.02 4.56002 11.58 5.96002 11.58C7.36002 11.58 8.62001 11.01 9.54001 10.1C10.46 9.19004 11.02 7.92002 11.02 6.52002C11.02 5.12002 10.45 3.86 9.54001 2.94ZM5.96002 1.16003C7.44002 1.16003 8.78 1.76004 9.75 2.73004C10.72 3.70004 11.32 5.04002 11.32 6.52002C11.32 8.00002 10.72 9.34 9.75 10.31C8.78 11.28 7.44002 11.88 5.96002 11.88C4.48002 11.88 3.14001 11.28 2.17001 10.31C1.20001 9.34 0.600006 8.00002 0.600006 6.52002C0.600006 5.04002 1.20001 3.70004 2.17001 2.73004C3.14001 1.76004 4.48002 1.16003 5.96002 1.16003Z" fill="#404041"/>
<path d="M6.96002 7.78003C6.68002 7.51003 6.29002 7.35004 5.86002 7.35004C5.43002 7.35004 5.04001 7.51003 4.76001 7.78003C4.48001 8.04003 4.31003 8.41 4.31003 8.81C4.31003 9.21 4.48001 9.58003 4.76001 9.84003C5.04001 10.11 5.43002 10.27 5.86002 10.27C6.29002 10.27 6.68002 10.11 6.96002 9.84003C7.24002 9.58003 7.41 9.21 7.41 8.81C7.41 8.41 7.24002 8.04003 6.96002 7.78003ZM5.86002 7.05005C6.37002 7.05005 6.83001 7.25 7.17001 7.56C7.51001 7.88 7.72 8.32 7.72 8.81C7.72 9.3 7.51001 9.74 7.17001 10.06C6.83001 10.38 6.37002 10.57 5.86002 10.57C5.35002 10.57 4.89002 10.37 4.55002 10.06C4.21002 9.74 4 9.3 4 8.81C4 8.32 4.21002 7.88 4.55002 7.56C4.89002 7.24 5.35002 7.05005 5.86002 7.05005Z" fill="#404041"/>
<path d="M5.67001 0H5.37003V7.23004H5.67001V0Z" fill="#404041"/>
<path d="M0 2.91003C0 2.91003 1.85001 0.850049 3.51001 0.300049L3.60001 0.580017C2.02001 1.11002 0.220001 3.11005 0.220001 3.11005L0 2.91003Z" fill="#404041"/>
<path d="M10.95 2.90002C10.95 2.90002 9.15001 0.889995 7.57001 0.369995L7.66 0.0900269C9.32 0.640027 11.16 2.70001 11.17 2.70001L10.95 2.90002Z" fill="#404041"/>
<path d="M0.840027 5.23001C0.840027 5.23001 3.29003 4.50001 4.34003 3.54001C4.80003 3.11001 5.36001 3.02001 5.89001 3.10001C6.68001 3.22001 7.44003 3.70998 7.78003 4.00998C8.09003 4.26998 8.76 4.64997 9.47 4.86997C9.99 5.02997 10.53 5.11999 10.96 5.01999L11.03 5.30997C10.54 5.41997 9.95 5.33001 9.38 5.16001C8.63 4.92001 7.92002 4.52002 7.58002 4.24002C7.26002 3.96002 6.56003 3.51 5.84003 3.4C5.39003 3.33 4.92001 3.39998 4.54001 3.75998C3.43001 4.76998 0.930023 5.51999 0.930023 5.51999L0.840027 5.24002V5.23001Z" fill="#404041"/>
<path d="M2.09003 3.22003H1.79001V5H2.09003V3.22003Z" fill="#404041"/>
<path d="M3.31003 2.16003H3.01001V4.47003H3.31003V2.16003Z" fill="#404041"/>
<path d="M4.55002 1.48004H4.25V3.70001H4.55002V1.48004Z" fill="#404041"/>
<path d="M6.85001 1.35004H6.55002V3.57001H6.85001V1.35004Z" fill="#404041"/>
<path d="M8.11002 1.71002H7.81003V4.30005H8.11002V1.71002Z" fill="#404041"/>
<path d="M9.54001 2.65002H9.24002V4.92004H9.54001V2.65002Z" fill="#404041"/>
<path fill-rule="evenodd" clip-rule="evenodd" d="M6.97 7.64001C6.97 7.64001 6.48001 8.61 5.85001 8.81C5.85001 8.81 6.86001 9.62001 6.98001 10.01C7.75001 9.46001 7.66 8.02001 6.97 7.64001Z" fill="#404041"/>
</svg>
