<svg width="14" height="15" viewBox="0 0 14 15" fill="none" xmlns="http://www.w3.org/2000/svg">
<path fill-rule="evenodd" clip-rule="evenodd" d="M3.34003 5.05005C3.79003 5.18005 4.8 5.48007 5.69 5.76007C5.69 5.40007 5.69 5.01005 5.69 4.61005C4.8 4.27005 4.35002 3.94008 4.21002 3.83008C3.51002 3.62008 3.37003 4.68005 3.34003 5.05005ZM6.33002 5.95007C6.89002 6.12007 7.30998 6.25007 7.34998 6.26007L7.94 6.45007L7.41998 6.78009L6.21997 7.54004L5.75 7.83008L5.72998 7.30005C5.72998 7.30005 5.71001 6.93007 5.70001 6.38007C4.97001 6.16007 4.11999 5.91005 3.54999 5.74005C4.29999 7.08005 5.23 8.28004 6.12 8.10004H6.19L7.37 8.12006H7.40002C7.40002 8.12006 8.18002 8.18006 8.40002 7.87006C8.47002 7.65006 8.79997 6.71006 9.71997 6.87006C9.71997 6.87006 10.1 6.97009 10.22 6.59009L10.3 6.34009L10.58 6.38007C10.58 6.38007 10.93 6.46004 10.98 6.29004C10.94 5.98004 10.88 4.88005 12.4 5.68005L12.53 5.80005C12.53 5.80005 12.47 5.69008 13.34 4.89008L13.77 5.32007C12.66 6.33007 12.2 6.25008 12.04 6.14008L12.09 6.19006C11.54 5.90006 11.6 6.22003 11.6 6.22003V6.32007C11.53 6.94007 11.04 7.01005 10.73 6.99005C10.37 7.65005 9.60999 7.44006 9.60999 7.44006C9.15999 7.36006 9 8.05005 9 8.05005L8.96997 8.12006C8.61997 8.71006 7.54999 8.70007 7.35999 8.70007L6.26001 8.68005C5.74001 9.68005 5.12001 9.88008 4.45001 9.58008C3.08001 8.96008 1.68999 5.79004 0.98999 4.17004C0.81999 3.77004 0.679995 3.47004 0.619995 3.35004L1.16998 3.07007C1.24998 3.21007 1.39001 3.53007 1.57001 3.95007C2.24001 5.49007 3.56997 8.53005 4.71997 9.05005C4.99997 9.18005 5.29002 9.08008 5.58002 8.64008C3.39002 8.02008 1.51 2.69005 1.5 2.68005L2.09003 2.49005C2.09003 2.49005 2.38003 3.30006 2.84003 4.31006C3.02003 3.65006 3.45999 2.91005 4.48999 3.30005L4.59003 3.36005C4.59003 3.36005 4.91002 3.65005 5.71002 3.99005C5.73002 3.46005 5.75 2.95004 5.81 2.54004L5.83002 2.48004C5.83002 2.48004 6.17998 1.45004 7.66998 2.35004C7.81998 2.44004 7.96003 2.53005 8.09003 2.61005C8.17003 2.66005 8.25998 2.72008 8.34998 2.77008C8.42998 1.27008 8.69001 0.970044 8.82001 0.920044L8.63 0.940063C9.58 0.370063 10.14 0.940085 10.41 1.40009L10.94 0.860046L11.45 0.340088L11.48 1.05005L11.59 3.67004C11.94 3.71004 12.33 3.74009 12.77 3.78009L12.87 4.35004L11.44 4.93005L11.03 5.10004L11.01 4.67004L10.99 4.20007C9.99999 4.07007 9.37001 3.91004 8.89001 3.73004C8.91002 4.05004 8.93002 4.41007 8.96002 4.82007C9.26002 4.86007 9.58999 4.90005 9.92999 4.93005L9.89001 5.36005L9.97998 5.50006L8.87 6.17004L8.41998 6.44006L8.39001 5.93005C8.38001 5.72005 8.36999 5.52008 8.35999 5.33008C7.54999 5.20008 6.88002 5.03004 6.33002 4.85004C6.33002 5.24004 6.33002 5.63003 6.33002 5.97003V5.95007ZM8.83002 3.04004C9.29002 3.26004 9.89001 3.44009 10.95 3.59009L10.87 1.78009L10.53 2.13007L10.17 2.50006L10 2.03009C10 2.03009 9.68001 1.01007 8.95001 1.45007L8.83002 1.53009L8.69 1.49005C8.69 1.49005 8.73003 1.49006 8.84003 3.06006L8.83002 3.04004ZM8.33002 4.71008C8.31002 4.23008 8.31001 3.81007 8.32001 3.45007C8.11001 3.34007 7.92998 3.22009 7.72998 3.09009C7.60998 3.01009 7.48002 2.93009 7.33002 2.84009C6.63002 2.42009 6.45998 2.59008 6.41998 2.64008C6.36998 3.08008 6.34002 3.63008 6.33002 4.21008C6.85002 4.39008 7.51002 4.56007 8.33002 4.70007V4.71008ZM6.34003 6.58008C6.34003 6.64008 6.34003 6.70007 6.34003 6.76007L6.53003 6.64008C6.47003 6.62008 6.40003 6.60008 6.34003 6.58008ZM1.81 9.14008L0.559998 6.88007H0.179993L0.210022 6.73004L0.349976 6.11005L0.380005 5.98004L0.51001 6.01007L1.16998 6.15009L1.31 6.18005L1.26001 6.32007L1.20001 6.51007L2.42999 8.86005L2.73999 8.88007H2.90002L2.85999 9.04004L2.65997 9.69006L2.63 9.81006L2.51001 9.79004L1.77002 9.65009L1.60999 9.62006L1.66998 9.48004L1.81 9.16003V9.14008Z" fill="black"/>
<path fill-rule="evenodd" clip-rule="evenodd" d="M4.67999 12.35C4.78999 12.2 4.92003 12.08 5.09003 12C5.25003 11.92 5.43001 11.88 5.64001 11.88C6.00001 11.88 6.26999 11.99 6.42999 12.2C6.59999 12.42 6.67999 12.76 6.67999 13.25V14.59H6.34998V13.18C6.34998 12.83 6.28998 12.58 6.16998 12.43C6.04998 12.28 5.86003 12.2 5.59003 12.2C5.44003 12.2 5.3 12.23 5.19 12.29C5.07 12.35 4.97997 12.44 4.90997 12.56C4.86997 12.63 4.84001 12.71 4.82001 12.81C4.80001 12.9 4.78998 13.06 4.78998 13.29V14.58H4.46002V13.1C4.46002 12.79 4.40002 12.57 4.27002 12.43C4.15002 12.28 3.95001 12.21 3.70001 12.21C3.54001 12.21 3.39998 12.24 3.28998 12.3C3.16998 12.36 3.08001 12.45 3.01001 12.57C2.97001 12.64 2.93998 12.72 2.91998 12.82C2.89998 12.91 2.89001 13.07 2.89001 13.3V14.59H2.54999V11.94H2.89001V12.24C2.99001 12.12 3.11 12.04 3.25 11.97C3.39 11.91 3.54997 11.88 3.71997 11.88C3.92997 11.88 4.11003 11.92 4.28003 12.01C4.45003 12.09 4.57998 12.21 4.66998 12.35" fill="black"/>
<path fill-rule="evenodd" clip-rule="evenodd" d="M9.34003 12.35C9.45003 12.2 9.58 12.08 9.75 12C9.91 11.92 10.09 11.88 10.3 11.88C10.67 11.88 10.93 11.99 11.1 12.2C11.27 12.42 11.35 12.76 11.35 13.25V14.59H11.02V13.18C11.02 12.83 10.96 12.58 10.84 12.43C10.72 12.28 10.53 12.2 10.26 12.2C10.11 12.2 9.97999 12.23 9.85999 12.29C9.73999 12.35 9.65002 12.44 9.58002 12.56C9.54002 12.63 9.50999 12.71 9.48999 12.81C9.46999 12.9 9.46002 13.06 9.46002 13.29V14.58H9.14001V13.1C9.14001 12.79 9.07001 12.57 8.95001 12.43C8.83001 12.28 8.63 12.21 8.37 12.21C8.22 12.21 8.08002 12.24 7.96002 12.3C7.84002 12.36 7.73999 12.45 7.67999 12.57C7.63999 12.64 7.61003 12.72 7.59003 12.82C7.57003 12.91 7.56 13.07 7.56 13.3V14.59H7.21997V11.94H7.56V12.24C7.66 12.12 7.77998 12.04 7.91998 11.97C8.05998 11.91 8.22001 11.88 8.39001 11.88C8.59001 11.88 8.78001 11.92 8.95001 12.01C9.12001 12.09 9.24002 12.21 9.33002 12.35" fill="black"/>
</svg>
