<svg width="13" height="14" viewBox="0 0 13 14" fill="none" xmlns="http://www.w3.org/2000/svg">
<path fill-rule="evenodd" clip-rule="evenodd" d="M10.22 13.0001C11.35 13.0001 12.27 12.07 12.27 10.92C12.27 9.77004 11.35 8.84009 10.22 8.84009C9.08997 8.84009 8.16998 9.77004 8.16998 10.92C8.16998 12.07 9.08997 13.0001 10.22 13.0001ZM10.22 8.58008C11.5 8.58008 12.53 9.63004 12.53 10.92C12.53 12.21 11.5 13.2601 10.22 13.2601C8.93997 13.2601 7.90997 12.21 7.90997 10.92C7.90997 9.63004 8.93997 8.58008 10.22 8.58008Z" fill="black"/>
<path fill-rule="evenodd" clip-rule="evenodd" d="M10.22 11.15C10.35 11.15 10.45 11.0499 10.45 10.9199C10.45 10.7899 10.35 10.6899 10.22 10.6899C10.09 10.6899 9.98999 10.7899 9.98999 10.9199C9.98999 11.0499 10.09 11.15 10.22 11.15ZM10.22 10.4199C10.49 10.4199 10.71 10.6399 10.71 10.9099C10.71 11.1799 10.49 11.4 10.22 11.4C9.94997 11.4 9.72998 11.1799 9.72998 10.9099C9.72998 10.6399 9.94997 10.4199 10.22 10.4199Z" fill="black"/>
<path d="M10.22 1.42999C10.06 1.42999 9.92999 1.55998 9.92999 1.72998C9.92999 1.89998 10.06 2.03003 10.22 2.03003C10.38 2.03003 10.51 1.89998 10.51 1.72998C10.51 1.55998 10.38 1.42999 10.22 1.42999ZM10.22 3.21002C9.41997 3.21002 8.76001 2.54998 8.76001 1.72998C8.76001 0.90998 9.40997 0.25 10.22 0.25C11.03 0.25 11.68 0.90998 11.68 1.72998C11.68 2.54998 11.03 3.21002 10.22 3.21002Z" stroke="black" stroke-width="0.22" stroke-miterlimit="22.93"/>
<path fill-rule="evenodd" clip-rule="evenodd" d="M3.47998 6.78998H3.28003V10.78L3.47998 11.18V6.78998ZM2.85999 6.77002H1.26001V2.91998H1.06V10.45H1.28003V7.94L2.85999 9.79999V6.76001V6.77002ZM4.40002 13.23H2.28003L1.26001 12.4V10.86H1.06V11.42H0.679993V1.96002H1.03998V2.54999H1.26001V0.219971H3.28003V5.47998H3.47998V1.39001H4.41998V5.47998H5.96997V7.90997H4.40002V13.21V13.23Z" fill="black"/>
<path fill-rule="evenodd" clip-rule="evenodd" d="M10.22 6.30994C9.94997 6.30994 9.72998 6.08995 9.72998 5.81995C9.72998 5.54995 9.94997 5.32996 10.22 5.32996C10.49 5.32996 10.71 5.54995 10.71 5.81995C10.71 6.08995 10.49 6.30994 10.22 6.30994ZM10.22 3.94995C9.19997 3.94995 8.38 4.78995 8.38 5.81995C8.38 6.84995 9.20997 7.68994 10.22 7.68994C11.23 7.68994 12.06 6.84995 12.06 5.81995C12.06 4.78995 11.23 3.94995 10.22 3.94995Z" fill="black"/>
</svg>
