<svg width="16" height="15" viewBox="0 0 16 15" fill="none" xmlns="http://www.w3.org/2000/svg">
<path d="M12.17 2.78003V10.55M12.17 2.78003L14.23 10.47M12.17 2.78003L10.11 10.47M3.76001 2.78003V10.55M3.76001 2.78003L1.69995 10.47M3.76001 2.78003L5.81995 10.47M3.20996 2.09003H7.40002V1.21997H8.52002V2.09003H12.71V2.82001H8.52002V13.17H12.84V14.15H3.07996V13.17H7.40002V2.82001H3.20996V2.09003ZM15.21 10.54H9.09998C10.61 12.32 13.73 12.39 15.21 10.54ZM0.719971 10.54H6.82996C5.31996 12.32 2.19997 12.39 0.719971 10.54Z" stroke="black" stroke-width="0.5" stroke-linejoin="bevel"/>
</svg>
