<svg width="22" height="26" viewBox="0 0 22 26" fill="none" xmlns="http://www.w3.org/2000/svg">
<g filter="url(#filter0_d_197_5)">
<path fill-rule="evenodd" clip-rule="evenodd" d="M11.7399 15.94C11.7399 16.12 11.7799 16.26 11.8499 16.34C11.9199 16.42 12.0099 16.47 12.1199 16.47C12.2299 16.47 12.3199 16.43 12.3899 16.35C12.4599 16.27 12.4999 16.14 12.4999 15.96C12.4999 15.78 12.4599 15.66 12.3899 15.57C12.3099 15.48 12.2199 15.44 12.1199 15.44C12.0199 15.44 11.9299 15.48 11.8499 15.57C11.7799 15.65 11.7399 15.78 11.7399 15.95M11.5399 16.79L11.7699 16.82C11.7699 16.89 11.8099 16.94 11.8499 16.97C11.9099 17.01 11.9898 17.04 12.0898 17.04C12.1998 17.04 12.2798 17.02 12.3398 16.97C12.3998 16.93 12.4398 16.87 12.4598 16.79C12.4698 16.74 12.4799 16.64 12.4799 16.49C12.3799 16.61 12.2499 16.67 12.0999 16.67C11.9099 16.67 11.7599 16.6 11.6599 16.46C11.5599 16.32 11.4999 16.16 11.4999 15.96C11.4999 15.83 11.5198 15.7 11.5698 15.59C11.6198 15.48 11.6899 15.39 11.7799 15.33C11.8699 15.27 11.9799 15.24 12.0999 15.24C12.2599 15.24 12.3999 15.31 12.5099 15.44V15.27H12.7299V16.47C12.7299 16.69 12.7099 16.84 12.6599 16.93C12.6199 17.02 12.5498 17.09 12.4498 17.14C12.3498 17.19 12.2399 17.22 12.0999 17.22C11.9299 17.22 11.7998 17.18 11.6998 17.11C11.5998 17.04 11.5499 16.92 11.5499 16.77L11.5399 16.79ZM10.0898 16.67V14.75H10.3298V15.85L10.8899 15.28H11.1898L10.6599 15.8L11.2499 16.68H10.9598L10.4999 15.97L10.3298 16.13V16.68H10.0898V16.67Z" fill="black"/>
<path d="M11.09 1.54999H7.02002V1.87H11.34V12.61H7.02002V12.93H15.86V12.61H11.54V1.87H15.86V1.54999H11.54V1.14001H11.35V1.54999H11.1H11.09ZM6.77002 1.04999H10.84V0.640015H12.04V1.04999H16.36V2.38H12.04V12.11H16.36V13.44H6.51001V12.11H10.83V2.38H6.51001V1.04999H6.76001H6.77002Z" fill="black"/>
<path d="M7.59009 5.47998L6.95007 3.13L6.31018 5.47998L5.51013 8.40002H8.39014L7.59009 5.47998ZM7.19006 2.10999L8.07007 5.34003L8.96008 8.57001L9.05017 8.89001H4.8501L4.94006 8.57001L5.82007 5.34003L6.71008 2.10999L6.95007 1.21997L7.19006 2.10999Z" fill="black"/>
<path d="M7.58984 5.47998L6.94983 3.13L6.30994 5.47998L5.50989 8.40002H5.53992L5.41992 8.73999V8.76001V8.78003C5.41992 8.88003 5.55992 8.99002 5.78992 9.08002C6.07992 9.20002 6.48982 9.28003 6.93982 9.28003C7.38982 9.28003 7.79984 9.20002 8.08984 9.08002C8.31984 8.98002 8.45984 8.87003 8.45984 8.78003V8.75L8.33984 8.40997H8.40991L7.60986 5.48999L7.58984 5.47998ZM7.18982 2.10999L8.06982 5.34003L8.95984 8.57001L9.04993 8.89001H8.93982C8.87982 9.15001 8.63991 9.37002 8.27991 9.52002C7.92991 9.67002 7.44993 9.76001 6.92993 9.76001C6.40993 9.76001 5.92983 9.67002 5.57983 9.52002C5.21983 9.37002 4.97992 9.15001 4.91992 8.89001H4.83984L4.92993 8.57001L5.80994 5.34003L6.69983 2.10999L6.93982 1.21997L7.17993 2.10999H7.18982Z" fill="black"/>
<path d="M7.18018 2.21997H6.68018V8.70001H7.18018V2.21997Z" fill="black"/>
<path d="M16.53 5.47998L15.89 3.13L15.25 5.47998L14.45 8.40002H17.33L16.53 5.47998ZM16.13 2.10999L17.02 5.34003L17.9 8.57001L17.99 8.89001H13.79L13.88 8.57001L14.76 5.34003L15.64 2.10999L15.88 1.21997L16.12 2.10999H16.13Z" fill="black"/>
<path d="M16.53 5.47998L15.89 3.13L15.25 5.47998L14.45 8.40002H14.49L14.37 8.73999V8.76001V8.77002C14.37 8.87002 14.51 8.98001 14.74 9.07001C15.03 9.19001 15.44 9.27002 15.89 9.27002C16.34 9.27002 16.75 9.19001 17.04 9.07001C17.27 8.97001 17.41 8.86002 17.41 8.77002V8.75V8.72998L17.29 8.39001H17.36L16.5601 5.46997L16.53 5.47998ZM16.13 2.10999L17.02 5.34003L17.91 8.57001L18 8.89001H17.89C17.83 9.15001 17.59 9.37002 17.23 9.52002C16.88 9.67002 16.4 9.76001 15.88 9.76001C15.36 9.76001 14.88 9.67002 14.53 9.52002C14.17 9.37002 13.93 9.15001 13.87 8.89001H13.79L13.88 8.57001L14.76 5.34003L15.64 2.10999L15.88 1.21997L16.12 2.10999H16.13Z" fill="black"/>
<path d="M16.1201 2.21997H15.6201V8.70001H16.1201V2.21997Z" fill="black"/>
</g>
<defs>
<filter id="filter0_d_197_5" x="0.839844" y="0.640015" width="21.1602" height="24.58" filterUnits="userSpaceOnUse" color-interpolation-filters="sRGB">
<feFlood flood-opacity="0" result="BackgroundImageFix"/>
<feColorMatrix in="SourceAlpha" type="matrix" values="0 0 0 0 0 0 0 0 0 0 0 0 0 0 0 0 0 0 127 0" result="hardAlpha"/>
<feOffset dy="4"/>
<feGaussianBlur stdDeviation="2"/>
<feComposite in2="hardAlpha" operator="out"/>
<feColorMatrix type="matrix" values="0 0 0 0 0 0 0 0 0 0 0 0 0 0 0 0 0 0 0.25 0"/>
<feBlend mode="normal" in2="BackgroundImageFix" result="effect1_dropShadow_197_5"/>
<feBlend mode="normal" in="SourceGraphic" in2="effect1_dropShadow_197_5" result="shape"/>
</filter>
</defs>
</svg>
