<svg width="17" height="15" viewBox="0 0 17 15" fill="none" xmlns="http://www.w3.org/2000/svg">
<path d="M0.130066 11.93H10.3401L16.1301 1.03003H5.97003L6.01007 0.77002H16.54C14.52 4.58002 12.51 8.39001 10.48 12.2H0.0900879L0.130066 11.93Z" fill="black"/>
<path fill-rule="evenodd" clip-rule="evenodd" d="M0.109863 12L0.329895 12.8H10.7899L16.3599 2.56L16.2899 1.03998L10.4099 12.01L0.109863 12Z" fill="black"/>
<path d="M8.03003 11.87L14.01 1.04999" stroke="black" stroke-width="0.57" stroke-linecap="round" stroke-linejoin="round"/>
<path d="M5.57007 5.94L10.1801 5.90002" stroke="black" stroke-width="0.57" stroke-linecap="round" stroke-linejoin="round"/>
<path d="M4.34009 7.53998L9.26007 7.48999" stroke="black" stroke-width="0.57" stroke-linecap="round" stroke-linejoin="round"/>
<path fill-rule="evenodd" clip-rule="evenodd" d="M9.21991 4.03998L6.90991 4.15997L7.73993 5.92999L9.21991 4.03998Z" fill="black"/>
<path fill-rule="evenodd" clip-rule="evenodd" d="M7.29999 9.40002L4.98999 9.28003L6.5 7.57001L7.29999 9.40002Z" fill="black"/>
<path d="M8.56006 14.76V13.31H8.78009V13.51C8.83009 13.44 8.89008 13.38 8.96008 13.34C9.04008 13.3 9.12003 13.28 9.22003 13.28C9.33003 13.28 9.42004 13.3 9.48004 13.35C9.55004 13.39 9.60006 13.46 9.62006 13.54C9.74006 13.37 9.89007 13.29 10.0701 13.29C10.2101 13.29 10.3301 13.33 10.4001 13.41C10.4801 13.49 10.5201 13.61 10.5201 13.78V14.78H10.2701V13.87C10.2701 13.77 10.2701 13.7 10.2501 13.66C10.2301 13.62 10.21 13.58 10.16 13.56C10.12 13.53 10.0701 13.52 10.0101 13.52C9.91007 13.52 9.82007 13.55 9.76007 13.62C9.69007 13.69 9.66003 13.8 9.66003 13.95V14.79H9.41003V13.85C9.41003 13.74 9.39004 13.66 9.35004 13.6C9.31004 13.55 9.24009 13.52 9.15009 13.52C9.08009 13.52 9.02008 13.54 8.96008 13.57C8.90008 13.61 8.86008 13.66 8.83008 13.73C8.80008 13.8 8.79004 13.9 8.79004 14.03V14.78H8.54004L8.56006 14.76ZM6.07007 14.76V13.31H6.29004V13.51C6.34004 13.44 6.40003 13.38 6.47003 13.34C6.55003 13.3 6.63004 13.28 6.73004 13.28C6.84004 13.28 6.93005 13.3 6.99005 13.35C7.06005 13.39 7.11008 13.46 7.14008 13.54C7.26008 13.37 7.41009 13.29 7.59009 13.29C7.73009 13.29 7.85004 13.33 7.92004 13.41C8.00004 13.49 8.04004 13.61 8.04004 13.78V14.78H7.79004V13.87C7.79004 13.77 7.79008 13.7 7.77008 13.66C7.75008 13.62 7.73005 13.58 7.68005 13.56C7.64005 13.53 7.59009 13.52 7.53009 13.52C7.43009 13.52 7.34009 13.55 7.28009 13.62C7.21009 13.69 7.18005 13.8 7.18005 13.95V14.79H6.93005V13.85C6.93005 13.74 6.91006 13.66 6.87006 13.6C6.83006 13.55 6.76004 13.52 6.67004 13.52C6.60004 13.52 6.54004 13.54 6.48004 13.57C6.42004 13.61 6.38004 13.66 6.35004 13.73C6.32004 13.8 6.31006 13.9 6.31006 14.03V14.78H6.06006L6.07007 14.76Z" fill="black"/>
</svg>
