<svg width="10" height="16" viewBox="0 0 10 16" fill="none" xmlns="http://www.w3.org/2000/svg">
<path fill-rule="evenodd" clip-rule="evenodd" d="M0.640015 0.539978H7.20001V1.06H0.640015V0.539978ZM1.21997 12.21L3.51001 12.89V12.49L2.19 12.13L1.70001 12C1.70001 12 1.87998 11.96 2.16998 11.88L3.51001 11.52V11.13L2.17999 10.79L1.73999 10.68L2.17999 10.55L3.5 10.16V9.59998L2.17999 9.23999L1.69 9.10999C1.69 9.10999 1.86997 9.06999 2.15997 8.98999L3.5 8.63V8.23999L2.16998 7.90002L1.72998 7.78998L2.16998 7.65997L3.48999 7.27002V6.73999L2.16998 6.38L1.67999 6.25C1.67999 6.25 1.86002 6.21 2.15002 6.13L3.48999 5.77002V5.38L2.15997 5.03998L1.71997 4.92999L2.15997 4.79999L3.47998 4.40997V3.84998L2.15997 3.48999L1.66998 3.35999C1.66998 3.35999 1.85001 3.31999 2.14001 3.23999L3.47998 2.88V2.48999L2.15002 2.15002L1.71002 2.03998L2.15002 1.90997L3.46997 1.52002V1.15002L1.17999 1.85999V2.26001L2.54999 2.62L2.94 2.71002L1.17999 3.16998V3.58002L3.12 4.15997L1.17999 4.76001V5.15997L2.54999 5.52002L2.94 5.60999L1.17999 6.07001V6.47998L3.06 7.03998L1.17999 7.62V8.02002L2.54999 8.38L2.94 8.46997L1.17999 8.92999V9.34003L3.12 9.91998L1.17999 10.52V10.92L2.54999 11.28L2.94 11.37L1.17999 11.83V12.24L1.21997 12.21ZM3.88 12.21L6.16998 12.89V12.49L4.84998 12.13L4.35999 12C4.35999 12 4.54002 11.96 4.83002 11.88L6.16998 11.52V11.13L4.84003 10.79L4.40002 10.68L4.84003 10.55L6.15997 10.16V9.59998L4.84003 9.23999L4.34998 9.10999C4.34998 9.10999 4.53001 9.06999 4.82001 8.98999L6.15997 8.63V8.23999L4.83002 7.90002L4.39001 7.78998L4.83002 7.65997L6.15002 7.27002V6.73999L4.83002 6.38L4.34003 6.25C4.34003 6.25 4.52 6.21 4.81 6.13L6.15002 5.77002V5.38L4.82001 5.03998L4.38 4.92999L4.82001 4.79999L6.14001 4.40997V3.84998L4.82001 3.48999L4.33002 3.35999C4.33002 3.35999 4.50999 3.31999 4.79999 3.23999L6.14001 2.88V2.48999L4.81 2.15002L4.37 2.03998L4.81 1.90997L6.13 1.52002V1.15002L3.84003 1.85999V2.26001L5.21002 2.62L5.59998 2.71002L3.84003 3.16998V3.58002L5.78003 4.15997L3.84003 4.76001V5.15997L5.21002 5.52002L5.59998 5.60999L3.84003 6.07001V6.47998L5.71997 7.03998L3.84003 7.62V8.02002L5.21002 8.38L5.59998 8.46997L3.84003 8.92999V9.34003L5.78003 9.91998L3.84003 10.52V10.92L5.21002 11.28L5.59998 11.37L3.84003 11.83V12.24L3.88 12.21ZM7.63 7.96002V6.15997H8.03003V7.65997H9.02002V7.96997H7.62L7.63 7.96002ZM9.01001 0.539978H7.47998V1.06H7.97998V5.34998H8.5V1.06H9V0.539978H9.01001ZM9.01001 13.58H7.47998V13.06H7.97998V8.77002H8.5V13.06H9V13.58H9.01001ZM4.19 14.61H4.42999V14.74C4.50999 14.64 4.61998 14.59 4.72998 14.59C4.78998 14.59 4.85001 14.6 4.89001 14.63C4.94001 14.66 4.97 14.69 5 14.75C5.04 14.7 5.09001 14.66 5.14001 14.63C5.19001 14.6 5.23999 14.59 5.29999 14.59C5.36999 14.59 5.42998 14.6 5.47998 14.63C5.52998 14.66 5.57003 14.7 5.59003 14.76C5.61003 14.8 5.62 14.87 5.62 14.96V15.58H5.35999V15.02C5.35999 14.92 5.36002 14.86 5.33002 14.83C5.31002 14.79 5.26997 14.77 5.21997 14.77C5.17997 14.77 5.15 14.78 5.12 14.8C5.09 14.82 5.06999 14.85 5.04999 14.9C5.03999 14.94 5.03003 15.01 5.03003 15.1V15.57H4.77002V15.04C4.77002 14.95 4.77001 14.88 4.76001 14.86C4.76001 14.83 4.73997 14.81 4.71997 14.8C4.69997 14.79 4.67001 14.78 4.64001 14.78C4.60001 14.78 4.56003 14.79 4.53003 14.81C4.50003 14.83 4.48002 14.86 4.46002 14.9C4.45002 14.94 4.44 15.01 4.44 15.1V15.57H4.17999V14.6L4.19 14.61ZM2.41998 14.61H2.65997V14.74C2.73997 14.64 2.85002 14.59 2.96002 14.59C3.02002 14.59 3.08 14.6 3.12 14.63C3.17 14.66 3.19998 14.69 3.22998 14.75C3.26998 14.7 3.32 14.66 3.37 14.63C3.42 14.6 3.47003 14.59 3.53003 14.59C3.60003 14.59 3.66002 14.6 3.71002 14.63C3.76002 14.66 3.80001 14.7 3.82001 14.76C3.84001 14.8 3.84998 14.87 3.84998 14.96V15.58H3.59003V15.02C3.59003 14.92 3.59 14.86 3.56 14.83C3.54 14.79 3.50001 14.77 3.45001 14.77C3.41001 14.77 3.37998 14.78 3.34998 14.8C3.31998 14.82 3.30003 14.85 3.28003 14.9C3.27003 14.94 3.26001 15.01 3.26001 15.1V15.57H3V15.04C3 14.95 2.99999 14.88 2.98999 14.86C2.98999 14.83 2.97001 14.81 2.95001 14.8C2.93001 14.79 2.9 14.78 2.87 14.78C2.83 14.78 2.79001 14.79 2.76001 14.81C2.73001 14.83 2.71 14.86 2.69 14.9C2.68 14.94 2.66998 15.01 2.66998 15.1V15.57H2.40997V14.6L2.41998 14.61ZM0.640015 13.07H7.20001V13.59H0.640015V13.07Z" fill="black"/>
</svg>
