<?xml version="1.0" standalone="no"?>
<!DOCTYPE svg PUBLIC "-//W3C//DTD SVG 20010904//EN"
 "http://www.w3.org/TR/2001/REC-SVG-20010904/DTD/svg10.dtd">
<svg version="1.0" xmlns="http://www.w3.org/2000/svg"
 width="700.000000pt" height="700.000000pt" viewBox="0 0 700.000000 700.000000"
 preserveAspectRatio="xMidYMid meet">
<metadata>
Created by potrace 1.14, written by Peter Selinger 2001-2017
</metadata>
<g transform="translate(0.000000,700.000000) scale(0.100000,-0.100000)"
fill="#000000" stroke="none">
<path d="M3379 6783 c-8 -1 -149 -4 -314 -7 -165 -2 -311 -7 -325 -9 -14 -3
-50 -8 -80 -11 -68 -8 -88 -11 -220 -37 -338 -67 -660 -205 -940 -402 -47 -33
-87 -63 -90 -66 -3 -3 -27 -23 -55 -45 -90 -70 -308 -299 -400 -421 -276 -365
-468 -806 -569 -1305 -13 -65 -20 -107 -41 -240 -5 -37 -13 -108 -20 -175 -3
-33 -8 -85 -11 -115 -6 -62 -6 -489 0 -565 14 -171 18 -218 27 -290 6 -44 12
-92 14 -106 3 -14 7 -41 9 -60 3 -19 7 -43 9 -54 3 -11 8 -40 12 -65 4 -25 20
-101 37 -170 16 -69 31 -132 33 -140 18 -84 81 -276 142 -430 217 -551 563
-1007 1008 -1326 300 -215 698 -382 1090 -458 103 -20 161 -29 275 -42 25 -3
63 -8 85 -11 22 -4 859 -8 1861 -10 l1821 -4 0 2166 0 2165 -1333 0 -1334 0 0
-634 0 -634 716 -1 c394 0 718 -2 721 -5 4 -4 7 -1314 3 -1651 l0 -50 -1212 1
c-667 0 -1242 4 -1278 8 -597 67 -1026 490 -1122 1106 -22 144 -17 1369 7
1410 1 3 6 29 9 59 18 151 82 369 152 518 123 264 309 462 550 585 124 63 283
116 399 133 23 3 50 7 60 9 87 17 358 20 1905 20 l1755 1 1 678 1 677 -51 0
c-412 2 -3296 4 -3307 3z"/>
</g>
</svg>
