<?xml version="1.0" encoding="UTF-8"?>
<svg id="Layer_2" data-name="Layer 2" xmlns="http://www.w3.org/2000/svg" viewBox="0 0 215.38 82.95">
  <defs>
    <style>
      .cls-1 {
        fill: #fff;
      }

      .cls-1, .cls-2, .cls-3, .cls-4 {
        stroke-width: 0px;
      }

      .cls-1, .cls-3, .cls-4 {
        fill-rule: evenodd;
      }

      .cls-2, .cls-3 {
        fill: #008bd5;
      }

      .cls-5 {
        fill: none;
        stroke: #008bd5;
        stroke-miterlimit: 22.93;
        stroke-width: .85px;
      }

      .cls-4 {
        fill: #b291d6;
      }
    </style>
  </defs>
  <g id="Layer_1-2" data-name="Layer 1">
    <g id="GoldStar">
      <line class="cls-5" x1="90.46" y1="71.24" x2="197.11" y2="71.24"/>
      <line class="cls-5" x1="197.11" y1="51.4" x2="65.59" y2="51.4"/>
      <path class="cls-4" d="M64.72,51.4H2.75c-1.05,0-1.91.86-1.91,1.91v16.02c0,1.05.86,1.91,1.91,1.91h86.02c-9.78-6.35-16.95-12.75-24.06-19.84"/>
      <path class="cls-3" d="M101.21,21.54h1.68v6.02h-1.51c-1.52.07-2.49.21-3.73.98-2.67,2.1-2.97,5.45-2.06,8.3.91,2.15,2.11,3.35,4.8,3.74h6.62s0-29.02,0-29.02h6.4v35.47h-12.19c-16.67,0-16.67-25.48,0-25.48"/>
      <path class="cls-3" d="M117.29,47.69h14.48c4.16,0,7.56-3.56,7.56-7.91v-5.28c0-4.35-3.4-7.91-7.56-7.91-2.66,0-4.83,0-7.5,0-1.22,0-2.22-.98-2.22-2.17v-2.98c0-1.19,1-2.17,2.22-2.17h13.66v-6.57h-14.57c-4.18,0-7.61,3.31-7.61,7.36v4.91c0,4.05,3.42,7.36,7.61,7.36h7.52c1.31,0,2.39,1.14,2.39,2.53v3.46c0,1.39-1.08,2.53-2.39,2.53h-13.6v6.83Z"/>
      <path class="cls-3" d="M141.53,11.58h6.55v10.08h7.74v7.87h-7.74v7.84c0,1.15.9,2.09,2,2.09h6.59v8.24h-7.35c-4.41,0-7.79-3.77-7.79-8.37V11.58Z"/>
      <path class="cls-3" d="M34.61,11.12H14.96C4.92,11.12.05,19.42,0,27.97c-.05,9.11,4.6,18.51,16.65,18.51h17.96v-23.29h-14.36v6.77h7.8v9.17h-12.4c-4.37,0-7.08-3.25-7.08-7.23v-4.18c0-4.53,1.73-9.26,7.95-9.26h18.08v-7.35Z"/>
      <path class="cls-3" d="M201.25,22.26h-5.25c-4.1,0-7.45,3.58-7.45,7.96v18.05h6.29v-14.38c0-1.79,1.38-3.34,3.05-3.25l3.37.19v-8.57Z"/>
      <path class="cls-3" d="M184.16,22.26h-13.09c-6.09,0-11.07,5.32-11.07,11.83v2.35c0,6.51,4.98,11.83,11.07,11.83h4.68v-8.45h-4.96c-2.1,0-3.81-1.83-3.81-4.07v-1.17c0-2.24,1.71-4.07,3.81-4.07h6.63v17.76h6.74v-26.01Z"/>
      <rect class="cls-2" x="79.79" y="11.56" width="6.39" height="35.47"/>
      <path class="cls-4" d="M75.53,27.97l-2.59-6.13-1.7,2.72s-.1,4.45-.41,5.04c-.31.58-2.17,3.22-4,5.56-1.83,2.33-3.78,5.36-4.41,5.55-.63.19-3.15,0-3.78.25-.63.25-.88,1.51-.88,1.51,0,0-3.22,2.33-2.71,3.41.5,1.07,2.21,1.13,1.58,3.66-.63,2.52,12.55-3.22,14.82-6.06,2.27-2.84,4.6-7.25,4.1-15.52"/>
      <path class="cls-4" d="M64.76,16.11c.31.14.62.29.93.46l1.4-1.49c-2.73-1.56-5.89-2.45-9.25-2.45-10.38,0-18.84,8.51-18.84,18.94s8.46,18.93,18.84,18.93,18.84-8.51,18.84-18.93c0-3.9-1.19-7.54-3.21-10.56l-1.16,1.86c1.52,2.54,2.4,5.52,2.4,8.69,0,9.33-7.58,16.95-16.87,16.95s-16.87-7.61-16.87-16.95c0-6.2,3.34-11.64,8.31-14.6.46-.27.14-1.43.55-1.64,3.72-1.93,8.04-1.97,10.66-1.17,1.27.38,2.98,1.37,4.27,1.96"/>
      <path class="cls-4" d="M46.52,17.25l2.96-1.39-.38,1.7s-3.79,3.91-4.23,5.05c-.44,1.14.76,2.96,1.39,3.15.63.19,2.08.13,2.46.69.38.57,2.14,3.79,2.65,4.6.5.82,2.21.88,2.77,2.4.57,1.51,1.58.95,2.59.95s1.26-.06,1.26-.06c0,0,.95.88.95,1.32s-.76,1.09-2.02,1.4c-1.26.32-2.08,1.38-2.65,1.88-.57.5-3.5.78-5.77.46-2.27-.32-4.19-.91-6.59-1.04-2.4-.13-2.71-5.61-1.95-8.64.76-3.03,4.6-10.53,4.6-10.53l1.96-1.96Z"/>
      <path class="cls-4" d="M50.16,14.71l2.54-1.19s-7.42-5.33-11.93-4.45c-2,.39-2.87,2.49-2.76,5.01.39,9.41,12.47,22.73,17.76,29.24,9.24,11.36,19.03,20.56,31.46,28.36,11.72,7.35,23.6,12.44,27.35,11.03,5.69-2.14-2.08-11.79-2.08-11.79h-1.92s4.44,6.86,1.28,8c-2.14.77-10.72-2.09-19.21-6.99-13.06-7.53-28.54-22.25-38.52-34.36-5.36-6.51-10.81-14.44-12.58-20.01-1.77-5.57.82-6.99,3.65-5.95,2.83,1.05,4.98,3.09,4.98,3.09"/>
      <path class="cls-4" d="M84.52,12.97l1.05.91s2.5-4.07,2.68-9.89c.18-5.82-4.87-3.98-7.15-2.46-2.28,1.52-9.09,5.46-21.43,20.76-5.41,6.7-11.98,16.49-17.49,25.7-4.75,7.95-10.6,17.67-10.6,26.86,0,4.03,2.23,5.73,6.04,3.73,2.39-1.25,5.06-4.1,8.06-8.84h-2.64s-2.71,6.72-7.22,6.57c-4.51-.16,1.24-16.61,8.12-27.84,6.88-11.23,13.55-22.29,23.85-32.73,10.3-10.44,14.18-12.08,16.5-11.68,2.31.4,1.06,7.55.22,8.91"/>
      <path class="cls-1" d="M5.49,55.93h0v-2.45h2.74v2.45h-2.74ZM5.49,67.08h0v-10.15h2.74v10.15h-2.74ZM9.68,67.08h0v-10.15h2.58v1.2c.3-.48.65-.83,1.03-1.06.39-.23.84-.34,1.36-.34.76,0,1.32.26,1.67.78.35.52.53,1.35.53,2.49v7.08h-2.74v-6.27c0-.81-.05-1.32-.15-1.51-.1-.2-.29-.3-.55-.3-.31,0-.55.15-.72.46-.17.31-.26.73-.26,1.28v6.34h-2.76ZM21.77,59.11h0c-.35,0-.59.19-.71.55-.13.37-.19,1.18-.19,2.44s.06,2.14.18,2.46c.12.33.34.49.65.49.36,0,.62-.2.76-.59.14-.39.21-1.42.21-3.1,0-.86-.07-1.45-.2-1.78-.13-.33-.37-.49-.69-.49ZM25.35,53.58h0v13.5h-2.53v-1.11c-.26.46-.58.8-.96,1.04-.38.24-.8.36-1.26.36-.38,0-.74-.07-1.05-.22-.32-.14-.58-.35-.8-.61-.24-.32-.42-.74-.52-1.27-.1-.53-.15-1.52-.15-2.98,0-2.29.19-3.8.56-4.52.38-.72,1.05-1.08,2.02-1.08.41,0,.78.1,1.09.28.31.19.59.49.84.88v-4.29h2.75ZM33.91,56.94h0v10.15h-2.58v-1.2c-.31.49-.65.84-1.03,1.07-.38.22-.83.34-1.35.34-.76,0-1.32-.26-1.68-.79-.36-.53-.54-1.35-.54-2.48v-7.07h2.76v6.27c0,.81.05,1.31.15,1.51.1.19.29.29.55.29.31,0,.55-.15.72-.45.17-.3.26-.73.26-1.28v-6.34h2.74ZM34.78,63.86h2.47c.03.54.13.92.3,1.16.17.24.43.36.77.36.27,0,.5-.08.67-.25.18-.16.27-.38.27-.64,0-.23-.06-.42-.18-.57-.12-.15-.39-.33-.82-.53-.09-.05-.23-.12-.42-.21-1-.47-1.69-.92-2.08-1.33-.28-.28-.49-.61-.64-.98-.15-.37-.22-.77-.22-1.17,0-.93.31-1.66.92-2.21.61-.55,1.44-.82,2.48-.82s1.91.26,2.5.79c.58.53.87,1.29.87,2.27v.19h-2.41c-.01-.52-.09-.88-.23-1.1-.14-.22-.36-.32-.68-.32-.28,0-.5.08-.66.23-.17.15-.25.36-.25.61,0,.45.41.86,1.24,1.23.11.05.2.09.27.12,1.12.52,1.88,1.02,2.26,1.52.38.49.57,1.13.57,1.93,0,1.02-.31,1.81-.92,2.38-.61.56-1.49.84-2.63.84s-1.92-.28-2.52-.85c-.6-.57-.9-1.36-.9-2.39v-.25ZM47.05,67.05h0c-.34.06-.63.11-.88.14-.25.03-.46.05-.64.05-.55,0-1.01-.09-1.39-.27-.38-.18-.67-.44-.85-.78-.12-.23-.2-.53-.25-.88-.05-.35-.07-.89-.07-1.62v-4.66h-1.07v-2.09h1.07v-2.8h2.77v2.8h1.31v2.09h-1.31v4.14c0,.88.06,1.43.19,1.63.12.21.37.31.73.31.06,0,.17,0,.31-.03.04,0,.07,0,.09,0v1.98ZM47.87,67.08h0v-10.15h2.53v1.42c.3-.51.63-.9.99-1.16.36-.26.77-.42,1.22-.46v3.22c-.15-.04-.3-.06-.44-.08-.14-.02-.27-.03-.38-.03-.44,0-.75.16-.93.48-.17.32-.26.95-.26,1.88v4.87h-2.75ZM53.54,55.93h0v-2.45h2.74v2.45h-2.74ZM53.54,67.08h0v-10.15h2.74v10.15h-2.74ZM62.14,62.2h0c-.71.21-1.23.46-1.56.76-.33.3-.49.68-.49,1.14,0,.32.08.58.24.77.16.2.38.29.65.29.41,0,.7-.14.88-.42.18-.28.27-.75.27-1.41v-1.13ZM62.49,67.08h0l-.16-.93c-.35.37-.73.66-1.14.85-.41.19-.86.28-1.34.28-.78,0-1.39-.26-1.84-.77-.45-.51-.68-1.21-.68-2.09,0-.77.19-1.4.58-1.89.38-.5,1.01-.93,1.89-1.29.21-.08.5-.19.86-.32,1.03-.39,1.55-.82,1.55-1.3,0-.3-.08-.53-.22-.68-.15-.16-.36-.23-.64-.23-.34,0-.59.1-.75.31-.16.21-.24.53-.24.96v.07h-2.76c0-1.15.31-2,.93-2.56.62-.56,1.56-.84,2.83-.84.57,0,1.08.05,1.52.16.45.11.82.27,1.12.47.39.27.66.59.81.97.16.38.24,1.07.24,2.08v3.91c0,.79.03,1.4.08,1.82.05.42.14.76.27,1.02h-2.88ZM69.13,67.08h-2.74v-13.5h2.74v13.5Z"/>
      <path class="cls-3" d="M78.93,63.86h2.47c.03.54.13.92.3,1.16.17.24.43.36.77.36.27,0,.5-.08.67-.25.18-.16.27-.38.27-.64,0-.23-.06-.42-.18-.57-.12-.15-.39-.33-.82-.53-.09-.05-.23-.12-.42-.21-1-.47-1.69-.92-2.08-1.33-.28-.28-.49-.61-.64-.98-.15-.37-.22-.77-.22-1.17,0-.93.31-1.66.92-2.21.61-.55,1.44-.82,2.48-.82s1.91.26,2.5.79c.58.53.87,1.29.87,2.27v.19h-2.41c-.01-.52-.09-.88-.23-1.1-.14-.22-.37-.32-.68-.32-.28,0-.5.08-.66.23-.17.15-.25.36-.25.61,0,.45.41.86,1.24,1.23.11.05.2.09.27.12,1.12.52,1.88,1.02,2.26,1.52.38.49.57,1.13.57,1.93,0,1.02-.31,1.81-.92,2.38-.62.56-1.49.84-2.63.84s-1.92-.28-2.52-.85c-.6-.57-.9-1.36-.9-2.39v-.25ZM91.16,63.52h2.58v.25c0,1.18-.3,2.08-.9,2.68-.6.6-1.5.9-2.7.9-.6,0-1.15-.09-1.64-.26-.49-.17-.87-.42-1.14-.73-.31-.36-.53-.83-.66-1.42-.13-.59-.2-1.53-.2-2.83,0-1.43.07-2.43.2-3,.13-.57.36-1.03.69-1.4.31-.35.71-.61,1.19-.78.48-.18,1.04-.26,1.68-.26s1.21.09,1.68.28c.47.19.86.47,1.15.85.25.31.43.69.54,1.13.11.44.16,1.18.16,2.24v1.22h-4.49s0,.07,0,.11c-.02.43-.03.72-.03.9,0,.71.08,1.2.22,1.48.15.28.4.42.76.42.31,0,.55-.11.71-.32.16-.21.24-.54.24-.97,0-.09,0-.22-.02-.4,0-.03,0-.06,0-.09ZM89.38,60.64h1.85v-.05c.02-.25.03-.44.03-.54,0-.5-.08-.86-.24-1.1-.16-.24-.4-.36-.73-.36s-.58.12-.72.35c-.14.23-.21.61-.21,1.14,0,.14,0,.26,0,.34,0,.08,0,.16.01.22ZM96.16,67.08h0l-1.91-10.15h2.68l.77,7.06,1.05-7.06h2.3l1.03,7.06.78-7.06h2.67l-1.92,10.15h-2.87l-.87-5.59-.85,5.59h-2.87ZM106.1,55.93h0v-2.45h2.74v2.45h-2.74ZM106.1,67.08h0v-10.15h2.74v10.15h-2.74ZM110.29,67.08h0v-10.15h2.59v1.2c.3-.48.65-.83,1.03-1.06.39-.23.84-.34,1.36-.34.76,0,1.32.26,1.67.78.35.52.53,1.35.53,2.49v7.08h-2.74v-6.27c0-.81-.05-1.32-.15-1.51-.1-.2-.29-.3-.55-.3-.31,0-.55.15-.72.46-.17.31-.26.73-.26,1.28v6.34h-2.76ZM121.37,60.67h0v.74c0,1.33.06,2.17.18,2.53.12.36.34.54.66.54s.55-.16.68-.48c.13-.32.19-.99.19-2.02v-.41c0-1.1-.06-1.79-.18-2.08-.12-.29-.35-.43-.67-.43-.3,0-.51.13-.65.38-.14.25-.21.67-.21,1.23ZM125.85,56.94h0v9.09c0,.93-.05,1.62-.15,2.07-.1.45-.26.83-.49,1.13-.32.42-.74.74-1.28.95-.53.21-1.17.32-1.92.32-1.16,0-2.02-.24-2.58-.73-.56-.48-.85-1.23-.85-2.23h2.72c0,.38.07.66.2.83.13.18.34.26.63.26.35,0,.6-.12.73-.35.14-.23.2-.68.2-1.36v-1.19c-.36.34-.71.59-1.04.74-.33.16-.66.23-1,.23-.48,0-.9-.13-1.28-.4-.37-.27-.66-.65-.86-1.15-.11-.26-.19-.64-.24-1.13-.05-.49-.08-1.13-.08-1.92s.02-1.43.06-2.02c.04-.59.09-1.07.15-1.44.11-.57.37-1.03.78-1.4.41-.37.89-.55,1.42-.55.44,0,.85.11,1.23.33.38.22.75.57,1.1,1.03v-1.13h2.52ZM131.06,67.08h0v-10.15h2.44v1.2c.3-.48.63-.84.99-1.07.36-.23.79-.34,1.29-.34.45,0,.84.12,1.17.36.33.24.58.58.75,1.04.3-.48.63-.83,1-1.06.37-.23.8-.34,1.29-.34.73,0,1.27.26,1.61.78.34.52.51,1.35.51,2.49v7.08h-2.63v-6.43c0-.72-.05-1.18-.15-1.37-.1-.19-.27-.28-.52-.28-.29,0-.53.16-.7.46-.17.31-.25.74-.25,1.28v6.34h-2.59v-6.43c0-.72-.05-1.18-.15-1.37-.1-.19-.27-.28-.52-.28-.29,0-.52.16-.69.46-.17.31-.25.74-.25,1.28v6.34h-2.61ZM147.83,62.2h0c-.71.21-1.23.46-1.56.76-.33.3-.49.68-.49,1.14,0,.32.08.58.24.77.16.2.38.29.65.29.41,0,.7-.14.88-.42.18-.28.27-.75.27-1.41v-1.13ZM148.18,67.08h0l-.16-.93c-.35.37-.73.66-1.14.85-.41.19-.86.28-1.34.28-.77,0-1.39-.26-1.84-.77-.45-.51-.68-1.21-.68-2.09,0-.77.19-1.4.58-1.89.38-.5,1.01-.93,1.89-1.29.21-.08.5-.19.86-.32,1.03-.39,1.55-.82,1.55-1.3,0-.3-.08-.53-.22-.68-.15-.16-.36-.23-.64-.23-.34,0-.59.1-.75.31-.16.21-.24.53-.24.96v.07h-2.77c0-1.15.31-2,.93-2.56.62-.56,1.56-.84,2.82-.84.57,0,1.08.05,1.52.16.45.11.82.27,1.12.47.38.27.66.59.81.97.16.38.24,1.07.24,2.08v3.91c0,.79.03,1.4.08,1.82.05.42.14.76.27,1.02h-2.89ZM156.32,63.09h2.71c0,.05,0,.12,0,.21,0,.08,0,.15,0,.19,0,1.3-.29,2.27-.88,2.91-.59.64-1.48.96-2.67.96-1.35,0-2.3-.39-2.85-1.18-.55-.79-.82-2.17-.82-4.16s.28-3.38.83-4.17c.55-.79,1.5-1.18,2.84-1.18,1.21,0,2.09.32,2.66.95.57.64.85,1.62.85,2.97v.18h-2.66v-.29c0-.61-.06-1.04-.19-1.3-.13-.26-.34-.39-.64-.39-.35,0-.58.17-.7.52-.12.34-.18,1.25-.18,2.71s.06,2.3.18,2.68c.12.38.35.57.69.57.29,0,.5-.13.64-.41.13-.27.2-.7.2-1.3,0-.05,0-.12,0-.23,0-.11,0-.18,0-.25ZM160.22,67.08h0v-13.5h2.75v4.44c.23-.43.53-.75.9-.96.37-.21.81-.32,1.32-.32.76,0,1.32.26,1.67.78.35.52.53,1.35.53,2.49v7.08h-2.74v-6.27c0-.81-.05-1.32-.15-1.51-.1-.2-.29-.3-.55-.3-.31,0-.55.15-.72.46-.17.31-.26.73-.26,1.28v6.34h-2.75ZM168.66,55.93h0v-2.45h2.74v2.45h-2.74ZM168.66,67.08h0v-10.15h2.74v10.15h-2.74ZM172.85,67.08h0v-10.15h2.58v1.2c.3-.48.65-.83,1.04-1.06.39-.23.84-.34,1.36-.34.76,0,1.32.26,1.67.78.35.52.53,1.35.53,2.49v7.08h-2.74v-6.27c0-.81-.05-1.32-.15-1.51-.1-.2-.29-.3-.55-.3-.31,0-.55.15-.72.46-.17.31-.26.73-.26,1.28v6.34h-2.76ZM185.83,63.52h2.58v.25c0,1.18-.3,2.08-.9,2.68-.6.6-1.5.9-2.7.9-.6,0-1.15-.09-1.64-.26-.49-.17-.87-.42-1.15-.73-.31-.36-.53-.83-.66-1.42-.13-.59-.19-1.53-.19-2.83,0-1.43.07-2.43.2-3,.13-.57.36-1.03.69-1.4.31-.35.71-.61,1.19-.78.48-.18,1.04-.26,1.68-.26s1.21.09,1.68.28c.47.19.86.47,1.15.85.25.31.43.69.54,1.13.11.44.16,1.18.16,2.24v1.22h-4.49s0,.07,0,.11c-.02.43-.03.72-.03.9,0,.71.08,1.2.22,1.48.15.28.4.42.76.42.31,0,.55-.11.71-.32.16-.21.24-.54.24-.97,0-.09,0-.22-.02-.4,0-.03,0-.06,0-.09ZM184.05,60.64h1.85v-.05c.02-.25.03-.44.03-.54,0-.5-.08-.86-.24-1.1-.16-.24-.4-.36-.73-.36s-.58.12-.72.35c-.15.23-.21.61-.21,1.14,0,.14,0,.26,0,.34,0,.08,0,.16.01.22ZM189.09,63.86h2.47c.03.54.13.92.3,1.16.17.24.43.36.77.36.27,0,.5-.08.67-.25.18-.16.26-.38.26-.64,0-.23-.06-.42-.18-.57-.12-.15-.39-.33-.82-.53-.09-.05-.23-.12-.43-.21-1-.47-1.69-.92-2.08-1.33-.28-.28-.49-.61-.64-.98-.15-.37-.22-.77-.22-1.17,0-.93.31-1.66.92-2.21.61-.55,1.44-.82,2.48-.82s1.91.26,2.49.79c.58.53.87,1.29.87,2.27v.19h-2.41c-.01-.52-.09-.88-.23-1.1-.14-.22-.36-.32-.68-.32-.28,0-.5.08-.66.23-.17.15-.25.36-.25.61,0,.45.41.86,1.24,1.23.11.05.2.09.27.12,1.12.52,1.88,1.02,2.26,1.52.38.49.57,1.13.57,1.93,0,1.02-.31,1.81-.92,2.38-.62.56-1.49.84-2.63.84s-1.92-.28-2.52-.85c-.6-.57-.9-1.36-.9-2.39v-.25Z"/>
      <path class="cls-5" d="M197.11,71.24c1.05,0,1.91-.86,1.91-1.91"/>
      <line class="cls-5" x1="199.02" y1="69.33" x2="199.02" y2="53.31"/>
      <path class="cls-5" d="M199.02,53.31c0-1.05-.86-1.91-1.91-1.91"/>
      <path class="cls-3" d="M208.45,19.66h1.49c.32,0,.56-.06.71-.19.15-.13.23-.33.23-.6,0-.26-.07-.45-.22-.59-.15-.13-.37-.2-.66-.2h-1.55v1.58ZM207.18,23.02v-5.96h2.99c.67,0,1.17.14,1.49.42.32.28.49.7.49,1.28,0,.36-.08.67-.24.91-.16.24-.38.41-.68.5.27.09.46.23.57.42.11.19.18.48.19.88l.03.7v.03c0,.35.09.57.24.65v.18h-1.39c-.04-.08-.08-.19-.1-.31-.02-.12-.04-.27-.04-.44l-.02-.63c-.02-.37-.09-.62-.22-.75-.13-.13-.36-.19-.7-.19h-1.34v2.32h-1.27Z"/>
      <path class="cls-2" d="M209.72,14.37h0c3.12,0,5.66,2.54,5.66,5.66s-2.54,5.66-5.66,5.66-5.66-2.54-5.66-5.66,2.54-5.66,5.66-5.66M209.72,15.66c-2.41,0-4.37,1.96-4.37,4.37s1.96,4.37,4.37,4.37,4.37-1.96,4.37-4.37-1.96-4.37-4.37-4.37Z"/>
    </g>
  </g>
</svg>