<svg width="38" height="41" viewBox="0 0 38 41" fill="none" xmlns="http://www.w3.org/2000/svg">
<g clip-path="url(#clip0_4092_699)">
<path d="M11.2545 0.0350113C10.8487 0.134346 10.4915 0.453487 10.3774 0.819126C10.314 1.02625 10.3224 1.20801 10.4302 1.94563C10.631 3.32364 10.6754 3.64067 10.669 3.64489C10.6648 3.64912 10.5781 3.67237 10.4725 3.69985C9.6482 3.9112 8.90001 4.21766 8.1011 4.67629C7.98275 4.74392 7.8813 4.79887 7.87496 4.79887C7.87073 4.79887 7.53257 4.35292 7.12466 3.80764C6.71675 3.26235 6.33843 2.77624 6.28137 2.72552C6.07635 2.54375 5.82273 2.46344 5.50782 2.47823C5.28167 2.4888 5.06609 2.55855 4.88433 2.67479C4.81459 2.72129 4.34539 3.17358 3.73881 3.78227C2.60596 4.91512 2.60596 4.91512 2.51508 5.27653C2.41997 5.64217 2.50452 6.03105 2.73277 6.29102C2.78139 6.34597 3.25059 6.71161 3.78319 7.10894C4.31157 7.50417 4.75752 7.83811 4.77232 7.8529C4.79768 7.87615 4.78077 7.91631 4.67721 8.09807C4.21646 8.90332 3.91212 9.64305 3.69865 10.4737C3.67118 10.5772 3.64793 10.666 3.6437 10.6702C3.64159 10.6744 3.07305 10.5962 2.38193 10.4948C1.21104 10.3257 1.11382 10.3151 0.978557 10.3363C0.621373 10.3912 0.295892 10.6406 0.128924 10.983C0 11.2472 0 11.2409 0 12.8323C0 14.2061 0.00211351 14.2907 0.0422703 14.445C0.065519 14.5358 0.11413 14.6669 0.152173 14.7387C0.240941 14.9036 0.445952 15.1234 0.600238 15.2164C0.743957 15.303 0.961649 15.3664 1.11171 15.3664C1.17089 15.3664 1.73731 15.2904 2.36925 15.1995C3.00119 15.1065 3.54648 15.0283 3.58241 15.0241L3.64581 15.0177L3.71556 15.2819C3.91423 16.0428 4.23971 16.8311 4.64762 17.5434C4.73005 17.6871 4.79768 17.8097 4.79768 17.816C4.79768 17.8224 4.34327 18.1669 3.78953 18.579C3.11321 19.082 2.75814 19.361 2.7053 19.4286C2.5489 19.6252 2.47281 19.8429 2.47281 20.1049C2.47281 20.3269 2.5024 20.46 2.60385 20.6714C2.68839 20.851 2.68839 20.851 3.75994 21.9205C4.82938 22.992 4.82938 22.992 5.00903 23.0765C5.22461 23.178 5.35353 23.2076 5.58602 23.2076C5.84598 23.2076 6.02986 23.1463 6.25389 22.9878C6.32152 22.9413 6.5519 22.6475 7.09718 21.9183C7.50932 21.3667 7.85382 20.906 7.86228 20.8975C7.87073 20.8891 7.9764 20.9398 8.09688 21.0116C8.75629 21.4026 9.67356 21.7852 10.4091 21.9712C10.538 22.005 10.65 22.0367 10.6585 22.0452C10.669 22.0536 10.5993 22.5968 10.5042 23.252C10.4069 23.9135 10.3309 24.5095 10.3309 24.5919C10.3372 25.0759 10.705 25.5113 11.227 25.6508C11.3961 25.6952 14.2874 25.6931 14.4564 25.6487C14.9743 25.5113 15.3653 25.0463 15.3653 24.5687C15.3653 24.4757 15.2321 23.5246 15.0503 22.303L15.0123 22.0452L15.0989 22.024C15.9951 21.7958 16.8172 21.4639 17.557 21.0328C17.7007 20.9504 17.819 20.8827 17.8254 20.8827C17.8486 20.8827 17.8803 21.0264 17.8803 21.13C17.8803 21.4978 18.0198 22.3939 18.1635 22.9582C18.4827 24.1988 19.066 25.4247 19.8036 26.399L19.9241 26.5575L19.7593 27.1704C19.6705 27.5065 19.0237 29.918 18.3242 32.5282C17.6246 35.1384 17.0096 37.4294 16.9588 37.6218C16.8532 38.0149 16.8489 38.0783 16.9102 38.2135C16.9863 38.3805 17.1152 38.4777 17.2928 38.501C17.4893 38.5263 17.1765 38.7377 21.4881 35.6731C21.9446 35.3497 22.3293 35.0792 22.3462 35.0729C22.3652 35.0665 22.6907 35.7915 23.5129 37.6767C24.1385 39.1139 24.6774 40.3292 24.7091 40.3778C24.8106 40.5384 25.0346 40.6166 25.2354 40.5595C25.3326 40.5321 25.4594 40.4264 25.508 40.3313C25.5291 40.2869 25.6877 39.7289 25.8589 39.0906C26.03 38.4503 26.3915 37.0955 26.6641 36.0789C26.9367 35.0623 27.2305 33.9633 27.3193 33.6378C27.5095 32.9213 27.5053 32.934 27.5349 33.046C27.5645 33.1517 28.3972 36.2607 28.6529 37.2096C28.86 37.9832 28.8896 38.055 29.0608 38.1459C29.1411 38.1882 29.1792 38.1945 29.3081 38.1882C29.437 38.1818 29.473 38.1713 29.5512 38.1163C29.6019 38.0825 29.6632 38.0149 29.6885 37.9705C29.7139 37.924 30.1599 36.9116 30.6777 35.7196C31.912 32.8896 31.9986 32.6909 32.0071 32.6825C32.0113 32.6782 32.4129 32.9572 32.899 33.3017C36.7984 36.0683 36.8005 36.0704 36.8787 36.0979C37.1873 36.2015 37.5001 35.9774 37.5001 35.6562C37.5001 35.5695 37.2866 34.7474 36.6822 32.4965C35.3591 27.5741 35.19 26.9379 35.19 26.9126C35.19 26.8978 35.2746 26.7815 35.3802 26.6505C36.4011 25.3761 37.1006 23.8184 37.3754 22.2142C37.4663 21.6816 37.498 21.3392 37.5085 20.7242C37.5276 19.6992 37.4177 18.822 37.1535 17.8836C36.27 14.7493 33.8691 12.2363 30.7833 11.2134C29.7498 10.871 28.7861 10.7167 27.6892 10.7167C27.0149 10.7167 26.3386 10.7822 25.7426 10.9048C25.6137 10.9323 25.5397 10.9386 25.5334 10.9238C25.5291 10.9133 25.4826 10.8435 25.4277 10.7738C25.2185 10.499 24.8803 10.3278 24.5612 10.3299C24.4724 10.3299 23.8743 10.4103 23.2296 10.5033C22.5871 10.5984 22.0566 10.6723 22.0524 10.6681C22.0482 10.6639 22.0059 10.5223 21.9594 10.3553C21.7417 9.5564 21.4057 8.7596 21.002 8.07482C20.9365 7.96492 20.89 7.8677 20.8984 7.86136C20.9069 7.8529 21.3655 7.51051 21.9171 7.09838C22.9781 6.30792 23.0162 6.27411 23.1324 6.02048C23.2909 5.67387 23.2296 5.17297 22.9887 4.84748C22.9464 4.79253 22.4498 4.28318 21.8812 3.71887C20.8984 2.74242 20.8414 2.68959 20.6892 2.6135C20.2771 2.41483 19.8184 2.43808 19.4739 2.67479C19.3344 2.77201 19.3619 2.7382 18.5271 3.85836C18.1445 4.36983 17.8275 4.79042 17.819 4.79465C17.8106 4.79676 17.6859 4.73124 17.5422 4.64882C16.8341 4.24302 16.1282 3.94924 15.3441 3.73577L15.0165 3.64489L15.0229 3.5836C15.0271 3.54767 15.1053 3.00239 15.1983 2.36833C15.2892 1.73428 15.3653 1.16785 15.3653 1.11079C15.3653 0.624683 14.9637 0.157597 14.4353 0.0350113C14.2366 -0.0114861 11.4489 -0.0114861 11.2545 0.0350113ZM14.2768 0.981869C14.3148 0.998775 14.3634 1.03471 14.3804 1.06429C14.4121 1.11079 14.4015 1.21012 14.2028 2.57969C13.9724 4.17327 13.9767 4.12466 14.0866 4.29374C14.1669 4.41844 14.262 4.46071 14.6488 4.54737C15.7098 4.78408 16.6735 5.18987 17.5105 5.74995C17.743 5.90636 17.7916 5.92538 17.9374 5.92749C18.1783 5.92749 18.1593 5.94863 19.1421 4.62979C19.624 3.98517 20.034 3.44834 20.0573 3.43777C20.0784 3.4272 20.1333 3.4272 20.1777 3.43354C20.2496 3.44834 20.3722 3.56247 21.2472 4.43535C22.2764 5.46463 22.3145 5.50901 22.2638 5.62315C22.2532 5.64639 21.7121 6.06276 21.0612 6.54886C19.9262 7.39427 19.8755 7.43443 19.8184 7.54433C19.7571 7.66903 19.7445 7.7895 19.7867 7.90786C19.7994 7.9459 19.8734 8.07482 19.9495 8.19107C20.5624 9.13369 20.9344 10.0446 21.1859 11.2261C21.2324 11.4438 21.3106 11.5621 21.4543 11.634C21.5156 11.6636 21.6022 11.6889 21.6466 11.6889C21.691 11.6889 22.2849 11.6086 22.9676 11.5093C23.6481 11.4099 24.2082 11.3317 24.2124 11.336C24.2167 11.3402 24.1849 11.355 24.1406 11.3698C23.9609 11.4353 23.5974 11.5981 23.2888 11.7523C21.5663 12.6147 20.1249 13.98 19.1611 15.6581C18.5059 16.7994 18.0769 18.095 17.9332 19.361C17.8867 19.7752 17.8909 19.7562 17.8169 19.7731C17.7831 19.7816 17.6415 19.8577 17.5062 19.9464C16.5446 20.5615 15.6802 20.9208 14.6002 21.1554C14.4395 21.1913 14.2874 21.2293 14.262 21.2441C14.1394 21.3054 14.0443 21.4343 14.0105 21.5802C13.9978 21.6351 14.0485 22.0325 14.2049 23.1061C14.3698 24.2453 14.4099 24.5687 14.393 24.6025C14.3804 24.6279 14.3381 24.6659 14.3022 24.687C14.2366 24.7272 14.1838 24.7293 12.8375 24.7293H11.4405L11.3686 24.6807C11.3179 24.6469 11.2946 24.6152 11.2904 24.5708C11.2883 24.5349 11.3771 23.8797 11.487 23.1125C11.7068 21.6034 11.711 21.5548 11.6159 21.409C11.525 21.2737 11.432 21.2272 11.1044 21.1575C10.0307 20.9271 9.04162 20.515 8.1941 19.9464C8.09054 19.8788 7.97429 19.8091 7.93413 19.7921C7.80098 19.7372 7.60654 19.7626 7.47762 19.8513C7.44803 19.8725 7.03378 20.4114 6.56035 21.0476C6.08904 21.6837 5.68535 22.2163 5.66845 22.229C5.62618 22.2628 5.50782 22.265 5.44653 22.2333C5.38101 22.1994 3.49153 20.3142 3.45348 20.2444C3.43658 20.2127 3.42389 20.1557 3.42389 20.1155C3.42389 20.0437 3.44503 20.0267 4.62437 19.1454C5.74665 18.3085 5.82907 18.2408 5.87768 18.1436C5.91361 18.0696 5.9263 18.0062 5.9263 17.9217C5.92418 17.7885 5.91995 17.778 5.63886 17.332C5.11682 16.5077 4.73005 15.544 4.53349 14.5929C4.50179 14.4428 4.4574 14.2822 4.43204 14.2357C4.37709 14.1364 4.21858 14.0223 4.10656 14.0053C4.05372 13.9969 3.52534 14.0645 2.57003 14.204L1.11382 14.4154L1.06098 14.3689C0.948968 14.2653 0.951082 14.2864 0.951082 12.8302C0.951082 11.5156 0.953195 11.4734 0.993352 11.393C1.02083 11.3381 1.05464 11.3043 1.09269 11.2958C1.12439 11.2874 1.70561 11.3613 2.5024 11.4776C3.24847 11.5854 3.91212 11.6784 3.97975 11.6847C4.13826 11.6974 4.26296 11.6488 4.36441 11.5389C4.45318 11.4395 4.47431 11.3909 4.51447 11.1838C4.71102 10.1587 5.13584 9.12101 5.72763 8.2122C5.81851 8.07271 5.90305 7.91842 5.91784 7.8677C5.958 7.7113 5.89882 7.52953 5.76567 7.40695C5.72763 7.37102 5.19291 6.96734 4.57999 6.51082C3.96284 6.05219 3.45137 5.65696 3.43869 5.62949C3.42389 5.59356 3.42389 5.55551 3.44292 5.49211C3.46616 5.41391 3.60143 5.27019 4.42359 4.44592C4.94774 3.91965 5.40848 3.4737 5.44864 3.45468C5.48668 3.43777 5.54798 3.42509 5.58602 3.42932C5.64943 3.43566 5.71494 3.51809 6.52019 4.59175C6.99785 5.22792 7.40576 5.76898 7.429 5.79434C7.48607 5.85563 7.6002 5.91058 7.70376 5.92749C7.82635 5.94863 7.95316 5.90213 8.17085 5.7563C9.03105 5.17931 10.0857 4.74181 11.1382 4.52623C11.3961 4.47339 11.451 4.45226 11.5377 4.36983C11.6286 4.28318 11.6877 4.15636 11.6877 4.04435C11.6877 3.99574 11.5969 3.33632 11.487 2.57969C11.3771 1.82304 11.2862 1.17631 11.2862 1.14461C11.2862 1.0812 11.3496 1.00934 11.4341 0.975525C11.4679 0.962845 11.9963 0.954391 12.8459 0.954391C13.9724 0.952278 14.2155 0.956505 14.2768 0.981869ZM28.6804 11.7185C30.6713 11.9573 32.4551 12.8049 33.867 14.1829C34.6257 14.9226 35.1668 15.6602 35.6233 16.5711C36.1009 17.5243 36.3736 18.4416 36.5152 19.5723C36.5659 19.9845 36.5659 21.0687 36.5152 21.5062C36.3884 22.5693 36.1115 23.5162 35.655 24.444C34.3996 26.995 31.9902 28.7999 29.1876 29.2839C28.6698 29.3727 28.2704 29.4065 27.7082 29.4065C27.1481 29.4065 26.848 29.3854 26.3238 29.3051C23.7496 28.9077 21.4564 27.3691 20.0974 25.1288C19.7656 24.5814 19.419 23.8226 19.2351 23.2435C18.2417 20.1155 19.0407 16.7276 21.3254 14.3646C22.8196 12.8197 24.8169 11.877 26.9896 11.691C27.3214 11.6615 28.3443 11.6784 28.6804 11.7185ZM21.3888 28.0835C22.9612 29.3896 24.874 30.1737 26.8797 30.3344C27.0551 30.3492 27.2009 30.3661 27.2009 30.3745C27.2009 30.3872 26.9917 31.1755 26.2435 33.9654C26.0639 34.6332 25.7088 35.9584 25.4552 36.9074C25.2016 37.8585 24.9881 38.6362 24.9817 38.6362C24.9754 38.6362 24.5295 37.6218 23.9905 36.379C23.4494 35.1384 22.9887 34.0943 22.9655 34.0605C22.8936 33.9569 22.8217 33.9041 22.7013 33.8682C22.4772 33.8005 22.4941 33.7921 21.2577 34.6671C20.649 35.0982 19.7762 35.7175 19.3175 36.0451C18.8589 36.3706 18.4108 36.6876 18.3263 36.7489C18.2396 36.8102 18.1657 36.8567 18.1614 36.8524C18.1572 36.8503 18.2882 36.3536 18.4489 35.7492C18.6116 35.1468 19.1019 33.3165 19.5394 31.6828C20.6786 27.4346 20.6702 27.4642 20.6702 27.4473C20.6702 27.4388 20.7864 27.5403 20.9301 27.6734C21.0717 27.8087 21.2789 27.9926 21.3888 28.0835ZM35.2724 30.9283C35.7438 32.6846 36.1496 34.2021 36.1749 34.2972C36.2024 34.3944 36.2172 34.4726 36.2087 34.4726C36.2003 34.4726 35.2619 33.809 34.1227 32.9995C32.9835 32.1921 32.0219 31.5158 31.9838 31.501C31.8824 31.4566 31.6943 31.463 31.597 31.5137C31.5527 31.5369 31.485 31.5919 31.4491 31.6342C31.4047 31.6891 31.056 32.4606 30.3945 33.9802C29.8513 35.2271 29.4032 36.2522 29.3969 36.2564C29.3927 36.2628 29.2701 35.8274 29.1263 35.2905C28.9826 34.7537 28.6698 33.5913 28.4331 32.7078L28.002 31.1016L28.1013 30.7296L28.1985 30.3576L28.4141 30.3428C29.3419 30.2794 30.3775 30.0427 31.3012 29.6813C31.6076 29.5608 32.2776 29.2374 32.5798 29.062C33.1061 28.7598 33.719 28.3223 34.1629 27.9334C34.2918 27.8214 34.3996 27.7305 34.4059 27.7305C34.4122 27.7305 34.8032 29.1698 35.2724 30.9283Z" fill="black"/>
<path d="M12.5754 7.05165C12.066 7.08547 11.6053 7.16367 11.2037 7.28414C10.2632 7.56946 9.42837 8.06614 8.74782 8.7488C7.02108 10.484 6.56245 13.0646 7.5875 15.2944C8.11588 16.442 9.10501 17.4544 10.2653 18.0377C11.4848 18.6485 12.9453 18.8049 14.2747 18.4625C17.2378 17.7038 19.0977 14.7956 18.544 11.7817C18.3728 10.8433 17.9395 9.91546 17.3245 9.16939C17.1089 8.90732 16.6693 8.47405 16.422 8.28383C15.585 7.63287 14.5811 7.21439 13.5687 7.09392C13.2919 7.0601 12.7741 7.03897 12.5754 7.05165ZM13.4884 8.045C14.5135 8.17815 15.5005 8.66426 16.2529 9.40822C17.0096 10.1564 17.4893 11.1181 17.6521 12.2065C17.6943 12.494 17.688 13.2464 17.6415 13.5486C17.3054 15.6811 15.678 17.3107 13.5476 17.6404C13.2496 17.6869 12.5141 17.6932 12.2267 17.653C10.7979 17.4501 9.56787 16.6745 8.79009 15.4867C8.42445 14.9287 8.18774 14.3243 8.06304 13.6331C8.01443 13.3689 7.99541 12.6165 8.02923 12.3206C8.15604 11.2089 8.63369 10.2177 9.42626 9.42724C10.2146 8.63679 11.2016 8.16125 12.3323 8.02598C12.5268 8.00273 13.2496 8.0133 13.4884 8.045Z" fill="black"/>
<path d="M12.5437 10.0429C11.9181 10.1084 11.3094 10.4021 10.855 10.8566C9.6693 12.0422 9.77498 13.993 11.0811 15.0392C11.9477 15.7324 13.1143 15.8571 14.1077 15.3626C14.9214 14.9568 15.4772 14.1938 15.6294 13.2765C15.6738 13.0145 15.6632 12.5305 15.6104 12.2832C15.3441 11.0637 14.3486 10.1675 13.1228 10.0407C12.884 10.0175 12.7888 10.0175 12.5437 10.0429ZM13.1968 11.0172C13.6258 11.089 14.095 11.3892 14.3613 11.7633C14.9341 12.5685 14.7777 13.6908 14.0105 14.2974C13.0657 15.0455 11.7131 14.7412 11.1699 13.6591C10.9543 13.2279 10.9268 12.6594 11.0959 12.2007C11.2692 11.7379 11.6201 11.3596 12.0766 11.1503C12.4232 10.9897 12.7846 10.9453 13.1968 11.0172Z" fill="black"/>
<path d="M27.1164 13.8449C24.9395 14.0499 23.0204 15.2546 21.9172 17.1103C20.444 19.5895 20.7167 22.7238 22.5956 24.9092C23.7306 26.228 25.3009 27.0459 27.0424 27.2235C27.3827 27.2594 28.0886 27.2531 28.4374 27.2129C30.2465 27.0058 31.8951 26.0779 32.9983 24.6492C34.1481 23.1634 34.6236 21.2697 34.3108 19.4246C34.1206 18.2918 33.6556 17.2561 32.9265 16.3389C32.7067 16.062 32.1804 15.5336 31.9056 15.3159C30.9186 14.5276 29.79 14.0457 28.5325 13.8766C28.2429 13.8365 27.3996 13.8196 27.1164 13.8449ZM28.5156 14.8383C29.4899 14.9841 30.3733 15.354 31.1701 15.9521C31.4512 16.1613 31.9859 16.6834 32.1973 16.9518C32.8483 17.7803 33.2646 18.7567 33.4062 19.805C33.4823 20.3567 33.4506 21.1429 33.3301 21.7262C32.8652 23.956 31.0835 25.7208 28.8326 26.1857C28.4141 26.2724 28.0759 26.2999 27.5497 26.2872C26.8966 26.2724 26.4507 26.1984 25.88 26.0082C23.7665 25.3044 22.2426 23.4424 21.97 21.2317C21.9129 20.7688 21.9277 20.0544 22.0038 19.5937C22.3568 17.4717 23.8848 15.709 25.9413 15.0517C26.3598 14.9186 26.8607 14.8193 27.2855 14.7876C27.5539 14.7685 28.2323 14.796 28.5156 14.8383Z" fill="black"/>
<path d="M30.963 17.5771C30.9144 17.5982 30.0542 18.4415 28.4944 20.0013L26.1019 22.3938L25.2925 21.5864C24.7451 21.0369 24.4597 20.7685 24.4069 20.7453C24.3097 20.7051 24.1364 20.703 24.0455 20.741C23.9419 20.7854 23.8384 20.8826 23.7961 20.9777C23.7475 21.0834 23.7432 21.2842 23.7897 21.3751C23.8088 21.4131 24.2822 21.9014 24.8402 22.4635C25.8103 23.4336 25.8652 23.4844 25.9709 23.5161C26.104 23.5562 26.2245 23.5414 26.345 23.4717C26.3915 23.4442 27.5877 22.2628 29.0017 20.8467C31.5611 18.283 31.5738 18.2724 31.6076 18.152C31.6753 17.9131 31.5633 17.6701 31.3392 17.5771C31.2399 17.5348 31.0602 17.5348 30.963 17.5771Z" fill="black"/>
</g>
<defs>
<clipPath id="clip0_4092_699">
<rect width="37.5106" height="41" fill="white"/>
</clipPath>
</defs>
</svg>
