<svg width="220" height="219" viewBox="0 0 220 219" fill="none" xmlns="http://www.w3.org/2000/svg">
<path d="M46.5 78.6055H65" stroke="#544484"/>
<path d="M77 78.6055H95.5" stroke="#544484"/>
<path d="M107 78.6055H126" stroke="#544484"/>
<path d="M137.5 78.6055H156.5" stroke="#544484"/>
<path d="M168 78.6055H187" stroke="#544484"/>
<path d="M198.5 78.6055H218" stroke="#544484"/>
<path d="M168 52.6055H187" stroke="#544484"/>
<path d="M198.5 52.6055H218" stroke="#544484"/>
<path d="M46 52.6055H65" stroke="#544484"/>
<path d="M107 52.6055H126" stroke="#544484"/>
<path d="M130.5 52.6055H157" stroke="#544484"/>
<path d="M2 72.6055L217.5 71.6055" stroke="#544484"/>
<path d="M2 87.1055H218" stroke="#544484"/>
<path d="M16 52.6055H35" stroke="#544484"/>
<path d="M131 67.6055V48.1055H140V67.6055H131Z" stroke="#544484"/>
<path d="M77 53.1055H89.5H95" stroke="#544484"/>
<path d="M91.5 47.1057C91 -6.89423 132 -3.39423 131 47.1057M82.5003 46.1057C81.0003 -17.3945 141 -10.8938 140 47.1055M82.5003 48.1058L82.5 67.6058H91.5V47.6058M218.5 47.1057C218.5 47.1057 219.5 188.105 218.5 198.106C217.5 208.106 214 214.106 202.5 216.106C191 218.106 30.0002 218.105 20.5001 217.106C11 216.106 3.99987 210.106 2.00011 198.106C0.000349045 186.105 2.00011 47.1057 2.00011 47.1057H218.5Z" stroke="#544484"/>
<path d="M1 133.105C14.5 111.84 68.5 107.284 109 131.081" stroke="#544484"/>
<path d="M1 141.105C14.5 119.84 68.5 115.284 109 139.081" stroke="#544484"/>
<path d="M219 133.105C207.395 111.116 147.355 110.627 108 130.663" stroke="#544484"/>
<path d="M219 141.105C207.395 119.116 147.355 118.627 108 138.663" stroke="#544484"/>
<path d="M34.5 78.6055H16.5" stroke="#544484"/>
</svg>
