<!--?xml version="1.0" standalone="no"?-->
              <svg id="sw-js-blob-svg" viewBox="0 0 100 100" xmlns="http://www.w3.org/2000/svg" version="1.1">
                    <defs> 
                        <linearGradient id="sw-gradient" x1="0" x2="1" y1="1" y2="0">
                            <stop id="stop1" stop-color="rgba(248, 117, 55, 1)" offset="0%"></stop>
                            <stop id="stop2" stop-color="rgba(251, 168, 31, 1)" offset="100%"></stop>
                        </linearGradient>
                    </defs>
                <path fill="url(#sw-gradient)" d="M27,-32C34.3,-26,39,-16.9,39,-8.2C39,0.5,34.2,8.8,29.4,16.8C24.5,24.8,19.6,32.6,12.4,36.2C5.1,39.8,-4.4,39.1,-12,35.4C-19.6,31.6,-25.1,24.6,-28,17.3C-30.8,10,-31,2.2,-29.5,-5C-28,-12.2,-24.8,-19,-19.6,-25.3C-14.4,-31.6,-7.2,-37.5,1.3,-39.1C9.8,-40.6,19.7,-37.9,27,-32Z" width="100%" height="100%" transform="translate(50 50)" stroke-width="0" style="transition: all 0.3s ease 0s;"></path>
              </svg>