<!--?xml version="1.0" standalone="no"?-->
              <svg id="sw-js-blob-svg" viewBox="0 0 100 100" xmlns="http://www.w3.org/2000/svg" version="1.1">
                    <defs> 
                        <linearGradient id="sw-gradient" x1="0" x2="1" y1="1" y2="0">
                            <stop id="stop1" stop-color="rgba(248, 117, 55, 1)" offset="0%"></stop>
                            <stop id="stop2" stop-color="rgba(251, 168, 31, 1)" offset="100%"></stop>
                        </linearGradient>
                    </defs>
                <path fill="url(#sw-gradient)" d="M25.7,-30.6C32.3,-25.2,35.8,-16.1,38.2,-6.2C40.5,3.6,41.8,14.2,37.9,22.7C34,31.2,25,37.5,15.3,40.4C5.6,43.3,-4.9,42.7,-14.3,39.2C-23.7,35.8,-32,29.5,-36.3,21.3C-40.7,13.1,-41,2.9,-38.8,-6.3C-36.5,-15.5,-31.7,-23.7,-24.8,-29.1C-17.9,-34.5,-8.9,-37.1,0.3,-37.5C9.6,-37.9,19.2,-36.1,25.7,-30.6Z" width="100%" height="100%" transform="translate(50 50)" stroke-width="0" style="transition: all 0.3s ease 0s;"></path>
              </svg>