<!--?xml version="1.0" standalone="no"?-->
              <svg id="sw-js-blob-svg" viewBox="0 0 100 100" xmlns="http://www.w3.org/2000/svg" version="1.1">
                    <defs> 
                        <linearGradient id="sw-gradient" x1="0" x2="1" y1="1" y2="0">
                            <stop id="stop1" stop-color="rgba(248, 117, 55, 1)" offset="0%"></stop>
                            <stop id="stop2" stop-color="rgba(251, 168, 31, 1)" offset="100%"></stop>
                        </linearGradient>
                    </defs>
                <path fill="url(#sw-gradient)" d="M22.8,-39.3C29.2,-35.8,33.9,-29,36.8,-21.9C39.6,-14.9,40.6,-7.4,40.5,-0.1C40.5,7.3,39.3,14.7,36.3,21.5C33.3,28.4,28.6,34.9,22.3,38.4C15.9,42,8,42.7,0.1,42.5C-7.8,42.4,-15.6,41.5,-21.8,37.9C-27.9,34.2,-32.4,27.7,-35.9,21C-39.4,14.2,-41.9,7.1,-42,0C-42,-7.2,-39.6,-14.3,-34.9,-19C-30.2,-23.7,-23.2,-25.9,-17,-29.5C-10.8,-33.2,-5.4,-38.4,1.4,-40.8C8.2,-43.2,16.4,-42.9,22.8,-39.3Z" width="100%" height="100%" transform="translate(50 50)" stroke-width="0" style="transition: all 0.3s ease 0s;"></path>
              </svg>