<svg width="84" height="68" viewBox="0 0 84 68" fill="none" xmlns="http://www.w3.org/2000/svg">
<path d="M75.3333 0.666748H8.66658C4.08325 0.666748 0.333252 4.41675 0.333252 9.00008V59.0001C0.333252 63.5834 4.08325 67.3334 8.66658 67.3334H75.3333C79.9166 67.3334 83.6666 63.5834 83.6666 59.0001V9.00008C83.6666 4.41675 79.9166 0.666748 75.3333 0.666748ZM73.6666 18.3751L46.4166 35.4168C43.7083 37.1251 40.2916 37.1251 37.5832 35.4168L10.3333 18.3751C9.91545 18.1405 9.54958 17.8237 9.25779 17.4436C8.96599 17.0636 8.75434 16.6283 8.63565 16.1641C8.51695 15.6999 8.49368 15.2165 8.56724 14.743C8.64079 14.2696 8.80965 13.816 9.06359 13.4097C9.31753 13.0034 9.65127 12.6528 10.0446 12.3792C10.438 12.1056 10.8827 11.9147 11.352 11.818C11.8212 11.7213 12.3053 11.7208 12.7747 11.8165C13.2442 11.9123 13.6894 12.1023 14.0833 12.3751L41.9999 29.8334L69.9166 12.3751C70.3105 12.1023 70.7556 11.9123 71.2251 11.8165C71.6946 11.7208 72.1786 11.7213 72.6479 11.818C73.1171 11.9147 73.5619 12.1056 73.9552 12.3792C74.3486 12.6528 74.6823 13.0034 74.9362 13.4097C75.1902 13.816 75.359 14.2696 75.4326 14.743C75.5062 15.2165 75.4829 15.6999 75.3642 16.1641C75.2455 16.6283 75.0338 17.0636 74.7421 17.4436C74.4503 17.8237 74.0844 18.1405 73.6666 18.3751Z" fill="#544484"/>
</svg>
