<svg width="41" height="41" viewBox="0 0 41 41" fill="none" xmlns="http://www.w3.org/2000/svg">
<path d="M10.5938 2.73438C11.7062 2.7318 12.8187 2.72922 13.9648 2.72656C15.1314 2.7343 16.298 2.74203 17.5 2.75C18.6666 2.74227 19.8332 2.73453 21.0352 2.72656C22.1476 2.72914 23.2601 2.73172 24.4062 2.73438C25.4304 2.73663 26.4546 2.73889 27.5098 2.74121C30 3 30 3 32 5C32.1953 8.25781 32.1953 8.25781 32.125 12.125C32.107 13.4063 32.0889 14.6877 32.0703 16.0078C32.0471 16.9952 32.0239 17.9827 32 19C31.01 18.67 30.52 18.34 29.5 18C29.17 14.37 29.5 10 28.5 6.5C21.57 6.5 13.64 6 6.5 6C6.5 14.91 6 25.82 6 35C11.28 35.33 17.56 34.66 23 35C23 35.99 23 36.98 23 38C20.0414 38.0538 17.0838 38.0936 14.125 38.125C12.8624 38.1501 12.8624 38.1501 11.5742 38.1758C10.7686 38.1822 9.96289 38.1887 9.13281 38.1953C8.38918 38.2058 7.64556 38.2163 6.87939 38.2271C5 38 5 38 3 36C2.74121 32.959 2.74121 32.959 2.73438 29.0938C2.73246 28.4132 2.73055 27.7327 2.72858 27.0316C2.72722 25.5925 2.73091 24.1534 2.73926 22.7144C2.74996 20.5085 2.73936 18.3035 2.72656 16.0977C2.72788 14.7005 2.73045 13.3034 2.73438 11.9062C2.73663 10.6307 2.73889 9.3552 2.74121 8.04102C3.20674 2.57059 5.7706 2.745 10.5938 2.73438Z" fill="black"/>
<path d="M36 21.0002C37.9375 22.0627 37.9375 22.0627 39 24.0002C39.7224 26.9861 39.5 23.4998 40 31C39 35.0002 37.0043 36.498 34 38.0002C30.1279 38.4305 28.475 38.3169 25.1875 36.1252C22.6073 33.6188 22.0828 32.7456 21.6875 29.1877C22.0716 25.2695 23.2926 23.7873 26 21.0002C29.2589 19.3708 32.5677 20.2336 36 21.0002ZM26.1875 24.1252C24.448 26.8718 24.6023 28.8187 25 32.0002C26 34.0002 26 34.0002 28 35.0002C31.1449 35.3933 33.1328 35.4758 35.9375 33.9377C37.6667 30.7845 36.8591 28.3751 36 25.0002C32.4838 22.6561 29.9474 21.7915 26.1875 24.1252Z" fill="black"/>
<path d="M8 16C14.27 16 20.54 16 27 16C27 16.66 27 17.32 27 18C20.73 18 14.46 18 8 18C8 17.34 8 16.68 8 16Z" fill="black"/>
<path d="M8 10C14.27 10 20.54 10 27 10C27 10.66 27 11.32 27 12C21.06 12 15.12 12 9 12C8.67 11.34 8.34 10.68 8 10Z" fill="black"/>
<path d="M8 22C11.96 22 15.92 22 20 22C20 22.66 20 23.32 20 24C16.04 24 12.08 24 8 24C8 23.34 8 22.68 8 22Z" fill="black"/>
<path d="M8 28C10.64 28 13.28 28 16 28C16.33 28.66 16.66 29.32 17 30C14.03 30 11.06 30 8 30C8 29.34 8 28.68 8 28Z" fill="black"/>
<path d="M30 24C30.66 24 31.32 24 32 24C32 25.65 32 27.3 32 29C33.32 29 34.64 29 36 29C36 29.66 36 30.32 36 31C34.02 31 32.04 31 30 31C30 28.69 30 26.38 30 24Z" fill="black"/>
</svg>
