<svg width="39" height="41" viewBox="0 0 39 41" fill="none" xmlns="http://www.w3.org/2000/svg">
<path d="M18.8378 0.955205C18.6838 1.16848 18.6483 1.55948 18.6483 2.76802C18.6483 3.97657 18.6838 4.36756 18.8378 4.58084C19.0393 4.87705 19.5013 4.92444 19.7146 4.66378C19.8923 4.43866 19.8805 1.07369 19.6909 0.848569C19.5013 0.611599 19.0393 0.670842 18.8378 0.955205Z" fill="black"/>
<path d="M6.27844 6.09759C6.17181 6.19238 6.08887 6.38195 6.08887 6.51229C6.08887 6.8085 8.5178 9.22559 8.81402 9.22559C9.07468 9.22559 9.40644 8.85828 9.40644 8.57392C9.40644 8.45544 8.86141 7.81562 8.1979 7.14025C6.95381 5.87247 6.65759 5.70659 6.27844 6.09759Z" fill="black"/>
<path d="M30.402 7.14025C29.6437 7.89856 29.1934 8.45544 29.1934 8.60947C29.1934 8.84643 29.5844 9.22559 29.8332 9.22559C30.0347 9.22559 32.511 6.69001 32.511 6.48859C32.511 6.3701 32.4281 6.19238 32.3214 6.09759C31.9423 5.70659 31.6461 5.87247 30.402 7.14025Z" fill="black"/>
<path d="M17.4279 7.1051C14.8449 7.48425 12.4278 8.77574 10.4965 10.8255C8.92069 12.4962 7.94911 14.3327 7.42778 16.6194C7.13157 17.9346 7.15527 20.4939 7.48702 21.8446C7.85432 23.3257 8.8259 25.257 9.98705 26.7617C10.5084 27.4489 11.2904 28.456 11.7169 29.0129C13.0084 30.6954 13.7904 32.4964 13.7904 33.7997C13.7904 34.4277 13.9681 34.7002 14.371 34.7002C14.916 34.7002 15.0227 34.4632 14.9397 33.4206C14.7975 31.5485 14.0629 30.0437 12.0487 27.4726C9.54866 24.2854 8.8496 22.9347 8.50599 20.6835C7.88987 16.6313 9.73823 12.3895 13.1624 10.0317C13.9563 9.49849 15.5321 8.77574 16.5748 8.49137C17.9374 8.12407 20.6625 8.12407 22.0251 8.49137C23.1981 8.81128 24.9043 9.64067 25.864 10.3634C30.0584 13.5151 31.4565 19.546 29.0275 23.9773C28.5418 24.8541 27.8545 25.8257 26.4564 27.5911C24.6081 29.9371 23.8379 31.5248 23.672 33.385C23.5772 34.3684 23.7194 34.7002 24.2171 34.7002C24.6555 34.7002 24.7502 34.5106 24.8569 33.5035C24.9991 32.0224 25.6152 30.6717 26.883 29.0011C29.7148 25.3162 29.9517 24.9489 30.5915 23.4441C31.9423 20.2332 31.5868 16.0152 29.7029 12.8635C28.6602 11.1336 26.5275 9.14304 24.7502 8.2544C22.6175 7.17619 19.8568 6.74965 17.4279 7.1051Z" fill="black"/>
<path d="M17.6648 11.1218C17.4516 11.2995 17.3212 11.5602 17.2265 12.0459C16.9302 13.5033 16.9184 13.527 16.243 13.8943L15.6151 14.2261L14.5842 13.8943C13.1743 13.4441 13.0913 13.4796 12.2264 14.9725C11.8472 15.6242 11.5392 16.2995 11.5392 16.4773C11.5392 16.7142 11.7525 16.9868 12.4278 17.6147L13.3283 18.456L13.3046 19.1076C13.2809 19.7711 13.2809 19.7711 12.4041 20.6005C11.7288 21.2404 11.5392 21.4892 11.5392 21.7498C11.5392 21.9394 11.8472 22.5911 12.2501 23.2783C12.7833 24.1906 13.0202 24.4987 13.2572 24.5579C13.4468 24.6053 13.9563 24.5224 14.6198 24.321L15.6743 24.001L16.3023 24.3565L16.9302 24.712L17.1317 25.7665C17.4397 27.2712 17.4753 27.2949 19.2881 27.2949C21.0298 27.2949 21.172 27.2238 21.3734 26.1812C21.6696 24.7238 21.6815 24.712 22.3568 24.3447L22.9848 24.001L23.9682 24.321C25.4019 24.783 25.4967 24.7475 26.3498 23.2901C26.7763 22.5792 27.0607 21.9631 27.0607 21.7498C27.0607 21.4892 26.883 21.2522 26.2313 20.6361L25.4019 19.8541V19.1076V18.3612L26.018 17.7924C26.3498 17.4844 26.7289 17.1289 26.8474 17.0104C27.2029 16.6787 27.0962 16.2166 26.3853 14.9725C25.5204 13.4796 25.4374 13.4441 24.0038 13.9061L22.9493 14.2379L22.3331 13.8943C22.0014 13.7047 21.7052 13.4678 21.6815 13.373C21.6578 13.2782 21.5393 12.7805 21.4327 12.2829C21.1601 10.9796 21.018 10.8848 19.2999 10.8848C18.1388 10.8848 17.9255 10.9203 17.6648 11.1218ZM20.3663 12.982C20.4729 13.4915 20.6388 14.0246 20.7336 14.1668C20.9824 14.5697 22.4753 15.3872 22.9493 15.3872C23.1625 15.3872 23.6602 15.2806 24.0393 15.1502C24.4185 15.0199 24.7858 14.9133 24.8569 14.9133C24.928 14.9133 25.1649 15.245 25.39 15.6479L25.7929 16.3825L25.0701 17.0341C24.2289 17.7924 24.0986 18.0768 24.0986 19.1195C24.0986 20.1503 24.2289 20.4347 25.0701 21.2048L25.8047 21.8565L25.4019 22.5674C25.1886 22.9465 24.999 23.2901 24.9754 23.3138C24.9635 23.3257 24.4777 23.2072 23.8971 23.0413L22.8545 22.7333L22.0843 23.1124C20.8521 23.7404 20.5914 24.0247 20.4255 24.9608C20.2004 26.1812 20.1886 26.193 19.2644 26.1456L18.4705 26.1101L18.2336 25.1385C17.9492 23.9892 17.7715 23.7641 16.6103 23.1717L15.7454 22.7214L14.7501 23.0295C14.2051 23.1835 13.7193 23.2901 13.6719 23.2664C13.6127 23.2309 13.3994 22.8991 13.198 22.5318L12.807 21.8565L13.5297 21.193C14.371 20.4347 14.5013 20.1503 14.5013 19.1195C14.5013 18.0768 14.371 17.7924 13.5416 17.0341L12.807 16.3706L13.2098 15.6479C13.4349 15.245 13.6719 14.9133 13.7312 14.9133C13.8022 14.9133 14.1932 15.0199 14.5961 15.1502C15.0108 15.2806 15.5084 15.3872 15.7098 15.3872C16.1245 15.3872 17.6293 14.546 17.8781 14.1668C18.0085 13.9654 18.4113 12.4251 18.4113 12.117C18.4113 12.0933 18.8023 12.0696 19.2881 12.0696H20.1649L20.3663 12.982Z" fill="black"/>
<path d="M18.4587 16.1098C16.7051 16.6193 15.7217 18.7165 16.4681 20.3634C17.7478 23.1833 21.9184 22.5791 22.3805 19.5103C22.4516 19.0482 22.4279 18.9297 22.2028 18.7046C22.0251 18.5269 21.8829 18.4795 21.6933 18.5387C21.3616 18.6335 21.3023 18.752 21.2075 19.297C20.8758 21.4061 18.0084 21.572 17.4634 19.5222C17.1909 18.5032 17.9729 17.3776 19.0511 17.2236C19.8687 17.0932 20.1412 16.5482 19.6198 16.1217C19.4066 15.9558 18.9919 15.9558 18.4587 16.1098Z" fill="black"/>
<path d="M1.06513 18.657C0.840011 18.8702 0.816314 19.3086 1.01774 19.5101C1.21916 19.7115 4.67892 19.7115 4.88034 19.5101C5.09361 19.2968 5.05807 18.8821 4.80925 18.6688C4.48934 18.3845 1.33765 18.3726 1.06513 18.657Z" fill="black"/>
<path d="M33.7906 18.5978C33.5418 18.74 33.5062 19.2969 33.7195 19.5102C33.8143 19.6049 34.4067 19.6523 35.5916 19.6523C37.4162 19.6523 37.6058 19.6049 37.6058 19.1073C37.6058 18.586 37.2148 18.4675 35.5323 18.4675C34.6911 18.4675 33.8972 18.5267 33.7906 18.5978Z" fill="black"/>
<path d="M7.32111 30.221C6.51541 31.0149 6.08887 31.5125 6.08887 31.6784C6.08887 31.9628 6.43247 32.3301 6.69314 32.3301C6.78793 32.3301 7.40405 31.785 8.07941 31.1097C9.01544 30.1737 9.28795 29.8301 9.28795 29.5812C9.28795 29.2732 9.01544 29.0125 8.68368 29.0125C8.61259 29.0125 7.99647 29.5575 7.32111 30.221Z" fill="black"/>
<path d="M29.4304 29.2502C29.3001 29.3806 29.1934 29.5583 29.1934 29.6531C29.1934 29.8545 31.2669 31.9872 31.6579 32.2005C31.883 32.319 31.9897 32.319 32.2266 32.1531C32.3807 32.0583 32.511 31.8569 32.511 31.7147C32.511 31.4066 30.1768 29.0133 29.8688 29.0133C29.7621 29.0133 29.5607 29.1199 29.4304 29.2502Z" fill="black"/>
<path d="M13.9089 36.7024C13.7193 37.0578 13.7667 37.2711 14.051 37.4725C14.2762 37.6384 14.9871 37.6621 19.371 37.6621C24.2881 37.6621 24.4184 37.6503 24.6317 37.4251C24.8094 37.2356 24.8331 37.1171 24.7384 36.8564L24.6317 36.5365L19.3355 36.501C14.1932 36.4773 14.0392 36.4773 13.9089 36.7024Z" fill="black"/>
<path d="M16.3615 39.5343C16.1127 39.8068 16.1009 40.0793 16.3497 40.3163C16.5037 40.4822 16.9421 40.5059 19.2881 40.5059C21.8118 40.5059 22.0606 40.4822 22.2384 40.2926C22.5109 39.9964 22.4872 39.7239 22.1791 39.5106C21.954 39.3566 21.4682 39.321 19.2289 39.321C16.7881 39.321 16.5393 39.3447 16.3615 39.5343Z" fill="black"/>
</svg>
