<svg width="112" height="287" viewBox="0 0 112 287" fill="none" xmlns="http://www.w3.org/2000/svg">
<path d="M56.5 12L57.5 63C61.6005 61.0474 63.8995 59.9526 68 58L69 19" stroke="#544484"/>
<path d="M80 22.5C81.3325 37.3548 87.8665 39.2578 105.5 36" stroke="#544484" stroke-dasharray="2 2"/>
<path d="M6.5 44C36.4732 50.3402 42 47.5 47 19.5" stroke="#544484" stroke-dasharray="2 2"/>
<path d="M16.5 5.50007C14.5001 -0.500225 98.5 -1.00004 99 5.50007M16.5 5.99996C16 10 99.5 10.5 99.5 5.99996" stroke="#544484"/>
<path d="M99 5.5L109.5 53.5L111.5 278C93.9297 288.851 84.6949 288.203 69 278L67.5 183L57.5 63.5L48.5 186.5L45.5 278.5C29.85 287.585 20.7565 287.541 4.5 278.5L2 242.5L1 142.5L4 70L5.5 47.5L16 5.5" stroke="#544484"/>
<path d="M12.5 50L7.5 135.5V201L11.5 277L26.5 279L41.5 275.5" stroke="#544484" stroke-dasharray="2 2"/>
<path d="M103.5 48.5L108.5 148L107 225V274C92.3732 280.446 84.525 280.214 71 274" stroke="#544484" stroke-dasharray="2 2"/>
<path d="M14.5 12C40.5 24.5 86 18.5 101 12" stroke="#544484"/>
<path d="M36.5 9H38V17.8901L36.5 17.5901V9Z" fill="#544484" stroke="#544484"/>
<path d="M76.4495 17.1002L74.9367 17.4028L74.0586 9.5H75.5554L76.4495 17.1002Z" fill="#544484" stroke="#544484"/>
<path d="M16.0506 5.65649L16.2071 5.5H16.5V5.80629L16.0506 5.65649Z" fill="#544484" stroke="#544484"/>
<path d="M81.5 17.5C82.5875 33.7888 86 36.5 105 33" stroke="#544484"/>
<path d="M43.5 19C39 44 34.4072 46.0244 7 40" stroke="#544484"/>
<path d="M14 41L20 25.5L40.5 31" stroke="#544484"/>
<path d="M16.5 42L22 29.5L39.5 34" stroke="#544484" stroke-dasharray="3 3"/>
<circle cx="62" cy="14" r="1.5" fill="#544484" stroke="#544484"/>
<path d="M16.5 9L48.5 12.5L72 11.5L97.5 9" stroke="#544484" stroke-dasharray="2 2"/>
<path d="M22 6L46 4.5H67L92 5.5L95.5 6" stroke="#544484" stroke-dasharray="2 2"/>
<path d="M65.5 19V54L59 59.5" stroke="#544484" stroke-dasharray="2 2"/>
</svg>
