<svg width="26" height="36" viewBox="0 0 26 36" fill="none" xmlns="http://www.w3.org/2000/svg">
<path d="M12.7516 1.75244C6.26376 1.75244 1 6.66364 1 12.7124C1 19.6724 8.83443 30.702 11.7111 34.5116C11.8305 34.6725 11.987 34.8033 12.1679 34.8935C12.3487 34.9838 12.5487 35.0308 12.7516 35.0308C12.9545 35.0308 13.1546 34.9838 13.3354 34.8935C13.5162 34.8033 13.6727 34.6725 13.7922 34.5116C16.6689 30.7036 24.5033 19.678 24.5033 12.7124C24.5033 6.66364 19.2395 1.75244 12.7516 1.75244Z" stroke="white" stroke-width="1.6" stroke-linecap="round" stroke-linejoin="round"/>
<path d="M12.7512 17.1126C14.9146 17.1126 16.6684 15.3934 16.6684 13.2726C16.6684 11.1518 14.9146 9.43262 12.7512 9.43262C10.5878 9.43262 8.83398 11.1518 8.83398 13.2726C8.83398 15.3934 10.5878 17.1126 12.7512 17.1126Z" stroke="white" stroke-width="1.6" stroke-linecap="round" stroke-linejoin="round"/>
</svg>
