<svg width="216" height="83" viewBox="0 0 216 83" fill="none" xmlns="http://www.w3.org/2000/svg">
<path d="M90.4604 71.2476H197.1" stroke="#0095DA" stroke-width="0.85" stroke-miterlimit="22.93"/>
<path d="M197.1 51.4077H65.5903" stroke="#0095DA" stroke-width="0.85" stroke-miterlimit="22.93"/>
<path fill-rule="evenodd" clip-rule="evenodd" d="M64.7103 51.4077H2.75037C1.70037 51.4077 0.840332 52.2677 0.840332 53.3177V69.3377C0.840332 70.3877 1.70037 71.2477 2.75037 71.2477H88.7703C78.9903 64.8977 71.8203 58.4977 64.7103 51.4077Z" fill="#B091D6"/>
<path fill-rule="evenodd" clip-rule="evenodd" d="M101.201 21.5377H102.881V27.5576H101.371C99.8505 27.6276 98.8806 27.7677 97.6406 28.5377C94.9706 30.6377 94.6705 33.9876 95.5805 36.8376C96.4905 38.9876 97.6906 40.1876 100.381 40.5776H107.001V11.5576H113.401V47.0276H101.211C84.5405 47.0276 84.5405 21.5476 101.211 21.5476" fill="#0095DA"/>
<path fill-rule="evenodd" clip-rule="evenodd" d="M117.28 47.6875H131.76C135.92 47.6875 139.32 44.1275 139.32 39.7775V34.4975C139.32 30.1475 135.92 26.5875 131.76 26.5875C129.1 26.5875 126.93 26.5875 124.26 26.5875C123.04 26.5875 122.04 25.6075 122.04 24.4175V21.4375C122.04 20.2475 123.04 19.2675 124.26 19.2675H137.92V12.6975H123.35C119.17 12.6975 115.74 16.0075 115.74 20.0575V24.9675C115.74 29.0175 119.16 32.3275 123.35 32.3275H130.87C132.18 32.3275 133.26 33.4675 133.26 34.8575V38.3175C133.26 39.7075 132.18 40.8475 130.87 40.8475H117.27V47.6775L117.28 47.6875Z" fill="#0095DA"/>
<path fill-rule="evenodd" clip-rule="evenodd" d="M141.521 11.5874H148.071V21.6674H155.811V29.5374H148.071V37.3774C148.071 38.5274 148.971 39.4674 150.071 39.4674H156.661V47.7074H149.311C144.901 47.7074 141.521 43.9374 141.521 39.3374V11.5874Z" fill="#0095DA"/>
<path fill-rule="evenodd" clip-rule="evenodd" d="M34.6104 11.1177H14.9604C4.92036 11.1177 0.0403985 19.4177 0.000398534 27.9777C-0.0496015 37.0877 4.60036 46.4877 16.6504 46.4877H34.6104V23.1977H20.2504V29.9677H28.0504V39.1377H15.6504C11.2804 39.1377 8.57041 35.8877 8.57041 31.9077V27.7277C8.57041 23.1977 10.3004 18.4677 16.5204 18.4677H34.6004V11.1177H34.6104Z" fill="#0095DA"/>
<path fill-rule="evenodd" clip-rule="evenodd" d="M201.24 22.2573H195.99C191.89 22.2573 188.54 25.8373 188.54 30.2173V48.2673H194.83V33.8873C194.83 32.0973 196.21 30.5473 197.88 30.6373L201.25 30.8273V22.2573H201.24Z" fill="#0095DA"/>
<path fill-rule="evenodd" clip-rule="evenodd" d="M184.15 22.2573H171.06C164.97 22.2573 159.99 27.5773 159.99 34.0873V36.4373C159.99 42.9473 164.97 48.2673 171.06 48.2673H175.74V39.8173H170.78C168.68 39.8173 166.97 37.9873 166.97 35.7473V34.5773C166.97 32.3373 168.68 30.5073 170.78 30.5073H177.41V48.2673H184.15V22.2573Z" fill="#0095DA"/>
<path d="M86.1703 11.5576H79.7803V47.0276H86.1703V11.5576Z" fill="#0095DA"/>
<path fill-rule="evenodd" clip-rule="evenodd" d="M75.5303 27.9777L72.9404 21.8477L71.2404 24.5676C71.2404 24.5676 71.1403 29.0177 70.8303 29.6077C70.5203 30.1877 68.6603 32.8277 66.8303 35.1677C65.0003 37.4977 63.0504 40.5277 62.4204 40.7177C61.7904 40.9077 59.2704 40.7177 58.6404 40.9677C58.0104 41.2177 57.7604 42.4777 57.7604 42.4777C57.7604 42.4777 54.5404 44.8076 55.0504 45.8876C55.5504 46.9576 57.2604 47.0176 56.6304 49.5476C56.0004 52.0676 69.1804 46.3276 71.4504 43.4876C73.7204 40.6476 76.0504 36.2377 75.5504 27.9677" fill="#B091D6"/>
<path fill-rule="evenodd" clip-rule="evenodd" d="M64.7605 16.1075C65.0705 16.2475 65.3805 16.3974 65.6905 16.5674L67.0905 15.0775C64.3605 13.5175 61.2005 12.6274 57.8405 12.6274C47.4605 12.6274 39.0005 21.1374 39.0005 31.5674C39.0005 41.9974 47.4605 50.4974 57.8405 50.4974C68.2205 50.4974 76.6805 41.9874 76.6805 31.5674C76.6805 27.6674 75.4905 24.0274 73.4705 21.0074L72.3105 22.8674C73.8305 25.4074 74.7104 28.3874 74.7104 31.5574C74.7104 40.8874 67.1305 48.5074 57.8405 48.5074C48.5505 48.5074 40.9705 40.8974 40.9705 31.5574C40.9705 25.3574 44.3105 19.9175 49.2805 16.9575C49.7405 16.6875 49.4204 15.5274 49.8304 15.3174C53.5504 13.3874 57.8705 13.3475 60.4905 14.1475C61.7605 14.5275 63.4705 15.5175 64.7605 16.1075Z" fill="#B091D6"/>
<path fill-rule="evenodd" clip-rule="evenodd" d="M46.5202 17.2474L49.4802 15.8574L49.1002 17.5574C49.1002 17.5574 45.3102 21.4674 44.8702 22.6074C44.4302 23.7474 45.6303 25.5674 46.2603 25.7574C46.8903 25.9474 48.3402 25.8874 48.7202 26.4474C49.1002 27.0174 50.8602 30.2374 51.3702 31.0474C51.8702 31.8674 53.5803 31.9274 54.1403 33.4474C54.7103 34.9574 55.7202 34.3974 56.7302 34.3974C57.7402 34.3974 57.9902 34.3374 57.9902 34.3374C57.9902 34.3374 58.9403 35.2174 58.9403 35.6574C58.9403 36.0974 58.1802 36.7474 56.9202 37.0574C55.6602 37.3774 54.8402 38.4374 54.2702 38.9374C53.7002 39.4374 50.7703 39.7174 48.5003 39.3974C46.2303 39.0774 44.3102 38.4874 41.9102 38.3574C39.5102 38.2274 39.2002 32.7474 39.9602 29.7174C40.7202 26.6874 44.5603 19.1874 44.5603 19.1874L46.5202 17.2274V17.2474Z" fill="#B091D6"/>
<path fill-rule="evenodd" clip-rule="evenodd" d="M50.1602 14.7176L52.7002 13.5276C52.7002 13.5276 45.2802 8.19759 40.7702 9.07759C38.7702 9.46759 37.9002 11.5676 38.0102 14.0876C38.4002 23.4976 50.4802 36.8176 55.7702 43.3276C65.0102 54.6876 74.8002 63.8876 87.2302 71.6876C98.9502 79.0376 110.83 84.1276 114.58 82.7176C120.27 80.5776 112.5 70.9276 112.5 70.9276H110.58C110.58 70.9276 115.02 77.7876 111.86 78.9276C109.72 79.6976 101.14 76.8376 92.6502 71.9376C79.5902 64.4076 64.1102 49.6876 54.1302 37.5776C48.7702 31.0676 43.3202 23.1376 41.5502 17.5676C39.7802 11.9976 42.3702 10.5776 45.2002 11.6176C48.0302 12.6676 50.1802 14.7076 50.1802 14.7076" fill="#B091D6"/>
<path fill-rule="evenodd" clip-rule="evenodd" d="M84.5103 12.9675L85.5603 13.8775C85.5603 13.8775 88.0603 9.80747 88.2403 3.98747C88.4203 -1.83253 83.3703 0.00750589 81.0903 1.52751C78.8103 3.04751 72.0003 6.98752 59.6603 22.2875C54.2503 28.9875 47.6803 38.7775 42.1703 47.9875C37.4203 55.9375 31.5703 65.6575 31.5703 74.8475C31.5703 78.8775 33.8003 80.5775 37.6103 78.5775C40.0003 77.3275 42.6703 74.4775 45.6703 69.7375H43.0303C43.0303 69.7375 40.3203 76.4575 35.8103 76.3075C31.3003 76.1475 37.0503 59.6975 43.9303 48.4675C50.8103 37.2375 57.4803 26.1775 67.7803 15.7375C78.0803 5.29747 81.9603 3.65747 84.2803 4.05747C86.5903 4.45747 85.3403 11.6075 84.5003 12.9675" fill="#B091D6"/>
<path fill-rule="evenodd" clip-rule="evenodd" d="M5.49023 55.9275V53.4775H8.23022V55.9275H5.49023ZM5.49023 67.0775V56.9275H8.23022V67.0775H5.49023ZM9.68024 67.0775V56.9275H12.2603V58.1275C12.5603 57.6475 12.9102 57.2975 13.2902 57.0675C13.6802 56.8375 14.1302 56.7275 14.6502 56.7275C15.4102 56.7275 15.9703 56.9875 16.3203 57.5075C16.6703 58.0275 16.8502 58.8575 16.8502 59.9975V67.0775H14.1102V60.8075C14.1102 59.9975 14.0602 59.4875 13.9602 59.2975C13.8602 59.0975 13.6702 58.9975 13.4102 58.9975C13.1002 58.9975 12.8602 59.1475 12.6902 59.4575C12.5202 59.7675 12.4302 60.1875 12.4302 60.7375V67.0775H9.67023H9.68024ZM21.7702 59.1075C21.4202 59.1075 21.1802 59.2975 21.0602 59.6575C20.9302 60.0275 20.8702 60.8375 20.8702 62.0975C20.8702 63.3575 20.9302 64.2375 21.0502 64.5575C21.1702 64.8875 21.3903 65.0475 21.7003 65.0475C22.0603 65.0475 22.3202 64.8475 22.4602 64.4575C22.6002 64.0675 22.6702 63.0375 22.6702 61.3575C22.6702 60.4975 22.6002 59.9075 22.4702 59.5775C22.3402 59.2475 22.1002 59.0875 21.7802 59.0875L21.7702 59.1075ZM25.3502 53.5775V67.0775H22.8203V65.9675C22.5603 66.4275 22.2402 66.7675 21.8602 67.0075C21.4802 67.2475 21.0602 67.3675 20.6002 67.3675C20.2202 67.3675 19.8602 67.2975 19.5502 67.1475C19.2302 67.0075 18.9702 66.7975 18.7502 66.5375C18.5102 66.2175 18.3302 65.7975 18.2302 65.2675C18.1302 64.7375 18.0802 63.7475 18.0802 62.2875C18.0802 59.9975 18.2703 58.4875 18.6403 57.7675C19.0203 57.0475 19.6902 56.6875 20.6602 56.6875C21.0702 56.6875 21.4402 56.7875 21.7502 56.9675C22.0602 57.1575 22.3402 57.4575 22.5902 57.8475V53.5575H25.3402L25.3502 53.5775ZM33.9102 56.9375V67.0875H31.3302V65.8875C31.0202 66.3775 30.6802 66.7275 30.3002 66.9575C29.9202 67.1775 29.4703 67.2975 28.9503 67.2975C28.1903 67.2975 27.6302 67.0375 27.2702 66.5075C26.9102 65.9775 26.7302 65.1575 26.7302 64.0275V56.9575H29.4902V63.2275C29.4902 64.0375 29.5403 64.5375 29.6403 64.7375C29.7403 64.9275 29.9302 65.0275 30.1902 65.0275C30.5002 65.0275 30.7402 64.8775 30.9102 64.5775C31.0802 64.2775 31.1702 63.8475 31.1702 63.2975V56.9575H33.9102V56.9375ZM34.7802 63.8675H37.2502C37.2802 64.4075 37.3802 64.7875 37.5502 65.0275C37.7202 65.2675 37.9803 65.3875 38.3203 65.3875C38.5903 65.3875 38.8202 65.3075 38.9902 65.1375C39.1702 64.9775 39.2603 64.7575 39.2603 64.4975C39.2603 64.2675 39.2002 64.0775 39.0802 63.9275C38.9602 63.7775 38.6903 63.5975 38.2603 63.3975C38.1703 63.3475 38.0302 63.2775 37.8402 63.1875C36.8402 62.7175 36.1503 62.2675 35.7603 61.8575C35.4803 61.5775 35.2702 61.2475 35.1202 60.8775C34.9702 60.5075 34.9002 60.1075 34.9002 59.7075C34.9002 58.7775 35.2103 58.0475 35.8203 57.4975C36.4303 56.9475 37.2602 56.6775 38.3002 56.6775C39.3402 56.6775 40.2102 56.9375 40.8002 57.4675C41.3802 57.9975 41.6702 58.7575 41.6702 59.7375V59.9275H39.2603C39.2503 59.4075 39.1702 59.0475 39.0302 58.8275C38.8902 58.6075 38.6702 58.5075 38.3502 58.5075C38.0702 58.5075 37.8502 58.5875 37.6902 58.7375C37.5202 58.8875 37.4402 59.0975 37.4402 59.3475C37.4402 59.7975 37.8502 60.2075 38.6802 60.5775C38.7902 60.6275 38.8803 60.6675 38.9503 60.6975C40.0703 61.2175 40.8302 61.7175 41.2102 62.2175C41.5902 62.7075 41.7802 63.3475 41.7802 64.1475C41.7802 65.1675 41.4702 65.9575 40.8602 66.5275C40.2502 67.0875 39.3702 67.3675 38.2302 67.3675C37.0902 67.3675 36.3102 67.0875 35.7102 66.5175C35.1102 65.9475 34.8102 65.1575 34.8102 64.1275V63.8775L34.7802 63.8675ZM47.0402 67.0575C46.7002 67.1175 46.4102 67.1675 46.1602 67.1975C45.9102 67.2275 45.7002 67.2475 45.5202 67.2475C44.9702 67.2475 44.5103 67.1575 44.1302 66.9775C43.7502 66.7975 43.4602 66.5375 43.2802 66.1975C43.1602 65.9675 43.0802 65.6675 43.0302 65.3175C42.9802 64.9675 42.9602 64.4275 42.9602 63.6975V59.0375H41.8903V56.9475H42.9602V54.1475H45.7302V56.9475H47.0402V59.0375H45.7302V63.1775C45.7302 64.0575 45.7902 64.6075 45.9202 64.8075C46.0402 65.0175 46.2902 65.1175 46.6502 65.1175C46.7102 65.1175 46.8202 65.1175 46.9602 65.0875C47.0002 65.0875 47.0302 65.0875 47.0502 65.0875V67.0675L47.0402 67.0575ZM47.8702 67.0875V56.9375H50.4002V58.3575C50.7002 57.8475 51.0303 57.4575 51.3903 57.1975C51.7503 56.9375 52.1602 56.7775 52.6102 56.7375V59.9575C52.4602 59.9175 52.3102 59.8975 52.1702 59.8775C52.0302 59.8575 51.9002 59.8475 51.7902 59.8475C51.3502 59.8475 51.0402 60.0075 50.8602 60.3275C50.6902 60.6475 50.6002 61.2775 50.6002 62.2075V67.0775H47.8502L47.8702 67.0875ZM53.5302 55.9375V53.4875H56.2702V55.9375H53.5302ZM53.5302 67.0875V56.9375H56.2702V67.0875H53.5302ZM62.1302 62.2075C61.4202 62.4175 60.9003 62.6675 60.5703 62.9675C60.2402 63.2675 60.0802 63.6475 60.0802 64.1075C60.0802 64.4275 60.1603 64.6875 60.3203 64.8775C60.4803 65.0775 60.7002 65.1675 60.9702 65.1675C61.3802 65.1675 61.6702 65.0275 61.8502 64.7475C62.0302 64.4675 62.1202 63.9975 62.1202 63.3375V62.2075H62.1302ZM62.4802 67.0875L62.3203 66.1575C61.9703 66.5275 61.5902 66.8175 61.1802 67.0075C60.7702 67.1975 60.3202 67.2875 59.8402 67.2875C59.0602 67.2875 58.4502 67.0275 58.0002 66.5175C57.5502 66.0075 57.3203 65.3075 57.3203 64.4275C57.3203 63.6575 57.5102 63.0275 57.9002 62.5375C58.2802 62.0375 58.9102 61.6075 59.7902 61.2475C60.0002 61.1675 60.2902 61.0575 60.6502 60.9275C61.6802 60.5375 62.2003 60.1075 62.2003 59.6275C62.2003 59.3275 62.1202 59.0975 61.9802 58.9475C61.8302 58.7875 61.6202 58.7175 61.3402 58.7175C61.0002 58.7175 60.7502 58.8175 60.5902 59.0275C60.4302 59.2375 60.3502 59.5575 60.3502 59.9875V60.0575H57.5902C57.5902 58.9075 57.9002 58.0575 58.5202 57.4975C59.1402 56.9375 60.0802 56.6575 61.3502 56.6575C61.9202 56.6575 62.4302 56.7075 62.8702 56.8175C63.3202 56.9275 63.6902 57.0875 63.9902 57.2875C64.3802 57.5575 64.6502 57.8775 64.8002 58.2575C64.9602 58.6375 65.0402 59.3275 65.0402 60.3375V64.2475C65.0402 65.0375 65.0702 65.6475 65.1202 66.0675C65.1702 66.4875 65.2603 66.8275 65.3903 67.0875H62.5103H62.4802ZM69.1202 67.0875H66.3802V53.5875H69.1202V67.0875Z" fill="white"/>
<path fill-rule="evenodd" clip-rule="evenodd" d="M78.9307 63.8675H81.4006C81.4306 64.4075 81.5307 64.7875 81.7007 65.0275C81.8707 65.2675 82.1306 65.3875 82.4706 65.3875C82.7406 65.3875 82.9707 65.3075 83.1407 65.1375C83.3207 64.9775 83.4106 64.7575 83.4106 64.4975C83.4106 64.2675 83.3507 64.0775 83.2307 63.9275C83.1107 63.7775 82.8406 63.5975 82.4106 63.3975C82.3206 63.3475 82.1807 63.2775 81.9907 63.1875C80.9907 62.7175 80.3006 62.2675 79.9106 61.8575C79.6306 61.5775 79.4206 61.2475 79.2706 60.8775C79.1206 60.5075 79.0507 60.1075 79.0507 59.7075C79.0507 58.7775 79.3606 58.0475 79.9706 57.4975C80.5806 56.9475 81.4107 56.6775 82.4507 56.6775C83.4907 56.6775 84.3607 56.9375 84.9507 57.4675C85.5307 57.9975 85.8207 58.7575 85.8207 59.7375V59.9275H83.4106C83.4006 59.4075 83.3207 59.0475 83.1807 58.8275C83.0407 58.6075 82.8107 58.5075 82.5007 58.5075C82.2207 58.5075 82.0006 58.5875 81.8406 58.7375C81.6706 58.8875 81.5906 59.0975 81.5906 59.3475C81.5906 59.7975 82.0006 60.2075 82.8306 60.5775C82.9406 60.6275 83.0306 60.6675 83.1006 60.6975C84.2206 61.2175 84.9807 61.7175 85.3607 62.2175C85.7407 62.7075 85.9307 63.3475 85.9307 64.1475C85.9307 65.1675 85.6207 65.9575 85.0107 66.5275C84.3907 67.0875 83.5207 67.3675 82.3807 67.3675C81.2407 67.3675 80.4607 67.0875 79.8607 66.5175C79.2607 65.9475 78.9606 65.1575 78.9606 64.1275V63.8775L78.9307 63.8675ZM91.1606 63.5275H93.7407V63.7775C93.7407 64.9575 93.4406 65.8575 92.8406 66.4575C92.2406 67.0575 91.3407 67.3575 90.1407 67.3575C89.5407 67.3575 88.9907 67.2675 88.5007 67.0975C88.0107 66.9275 87.6307 66.6775 87.3607 66.3675C87.0507 66.0075 86.8307 65.5375 86.7007 64.9475C86.5707 64.3575 86.5007 63.4175 86.5007 62.1175C86.5007 60.6875 86.5707 59.6875 86.7007 59.1175C86.8307 58.5475 87.0607 58.0875 87.3907 57.7175C87.7007 57.3675 88.1006 57.1075 88.5806 56.9375C89.0606 56.7575 89.6207 56.6775 90.2607 56.6775C90.9007 56.6775 91.4707 56.7675 91.9407 56.9575C92.4107 57.1475 92.8006 57.4275 93.0906 57.8075C93.3406 58.1175 93.5207 58.4975 93.6307 58.9375C93.7407 59.3775 93.7906 60.1175 93.7906 61.1775V62.3975H89.3007C89.3007 62.3975 89.3007 62.4675 89.3007 62.5075C89.2807 62.9375 89.2706 63.2275 89.2706 63.4075C89.2706 64.1175 89.3507 64.6075 89.4907 64.8875C89.6407 65.1675 89.8907 65.3075 90.2507 65.3075C90.5607 65.3075 90.8006 65.1975 90.9606 64.9875C91.1206 64.7775 91.2007 64.4475 91.2007 64.0175C91.2007 63.9275 91.2007 63.7975 91.1807 63.6175C91.1807 63.5875 91.1807 63.5575 91.1807 63.5275H91.1606ZM89.3707 60.6375H91.2206V60.5875C91.2406 60.3375 91.2507 60.1475 91.2507 60.0475C91.2507 59.5475 91.1707 59.1875 91.0107 58.9475C90.8507 58.7075 90.6106 58.5875 90.2806 58.5875C89.9506 58.5875 89.7007 58.7075 89.5607 58.9375C89.4207 59.1675 89.3506 59.5475 89.3506 60.0775C89.3506 60.2175 89.3506 60.3375 89.3506 60.4175C89.3506 60.4975 89.3507 60.5775 89.3607 60.6375H89.3707ZM96.1506 67.0775L94.2407 56.9275H96.9207L97.6907 63.9875L98.7407 56.9275H101.041L102.071 63.9875L102.851 56.9275H105.521L103.601 67.0775H100.731L99.8607 61.4875L99.0107 67.0775H96.1407H96.1506ZM106.091 55.9275V53.4775H108.831V55.9275H106.091ZM106.091 67.0775V56.9275H108.831V67.0775H106.091ZM110.281 67.0775V56.9275H112.871V58.1275C113.171 57.6475 113.521 57.2975 113.901 57.0675C114.291 56.8375 114.741 56.7275 115.261 56.7275C116.021 56.7275 116.581 56.9875 116.931 57.5075C117.281 58.0275 117.461 58.8575 117.461 59.9975V67.0775H114.721V60.8075C114.721 59.9975 114.671 59.4875 114.571 59.2975C114.471 59.0975 114.281 58.9975 114.021 58.9975C113.711 58.9975 113.471 59.1475 113.301 59.4575C113.131 59.7675 113.041 60.1875 113.041 60.7375V67.0775H110.281ZM121.371 60.6675V61.4075C121.371 62.7375 121.431 63.5775 121.551 63.9375C121.671 64.2975 121.891 64.4775 122.211 64.4775C122.531 64.4775 122.761 64.3175 122.891 63.9975C123.021 63.6775 123.081 63.0075 123.081 61.9775V61.5675C123.081 60.4675 123.021 59.7775 122.901 59.4875C122.781 59.1975 122.551 59.0575 122.231 59.0575C121.931 59.0575 121.721 59.1875 121.581 59.4375C121.441 59.6875 121.371 60.1075 121.371 60.6675ZM125.851 56.9375V66.0275C125.851 66.9575 125.801 67.6475 125.701 68.0975C125.601 68.5475 125.441 68.9275 125.211 69.2275C124.891 69.6475 124.471 69.9675 123.931 70.1775C123.401 70.3875 122.761 70.4975 122.011 70.4975C120.851 70.4975 119.991 70.2575 119.431 69.7675C118.871 69.2875 118.581 68.5375 118.581 67.5375H121.301C121.301 67.9175 121.371 68.1975 121.501 68.3675C121.631 68.5475 121.841 68.6275 122.131 68.6275C122.481 68.6275 122.731 68.5075 122.861 68.2775C123.001 68.0475 123.061 67.5975 123.061 66.9175V65.7275C122.701 66.0675 122.351 66.3175 122.021 66.4675C121.691 66.6275 121.361 66.6975 121.021 66.6975C120.541 66.6975 120.121 66.5675 119.741 66.2975C119.371 66.0275 119.081 65.6475 118.881 65.1475C118.771 64.8875 118.691 64.5075 118.641 64.0175C118.591 63.5275 118.561 62.8875 118.561 62.0975C118.561 61.3075 118.581 60.6675 118.621 60.0775C118.661 59.4875 118.711 59.0075 118.771 58.6375C118.881 58.0675 119.141 57.6075 119.551 57.2375C119.961 56.8675 120.441 56.6875 120.971 56.6875C121.411 56.6875 121.821 56.7975 122.201 57.0175C122.581 57.2375 122.951 57.5875 123.301 58.0475V56.9175H125.821L125.851 56.9375ZM131.061 67.0875V56.9375H133.501V58.1375C133.801 57.6575 134.131 57.2975 134.491 57.0675C134.851 56.8375 135.281 56.7275 135.781 56.7275C136.231 56.7275 136.621 56.8475 136.951 57.0875C137.281 57.3275 137.531 57.6675 137.701 58.1275C138.001 57.6475 138.331 57.2975 138.701 57.0675C139.071 56.8375 139.501 56.7275 139.991 56.7275C140.721 56.7275 141.261 56.9875 141.601 57.5075C141.941 58.0275 142.111 58.8575 142.111 59.9975V67.0775H139.481V60.6475C139.481 59.9275 139.431 59.4675 139.331 59.2775C139.231 59.0875 139.061 58.9975 138.811 58.9975C138.521 58.9975 138.281 59.1575 138.111 59.4575C137.941 59.7675 137.861 60.1975 137.861 60.7375V67.0775H135.271V60.6475C135.271 59.9275 135.221 59.4675 135.121 59.2775C135.021 59.0875 134.851 58.9975 134.601 58.9975C134.311 58.9975 134.081 59.1575 133.911 59.4575C133.741 59.7675 133.661 60.1975 133.661 60.7375V67.0775H131.051L131.061 67.0875ZM147.831 62.2075C147.121 62.4175 146.601 62.6675 146.271 62.9675C145.941 63.2675 145.781 63.6475 145.781 64.1075C145.781 64.4275 145.861 64.6875 146.021 64.8775C146.181 65.0775 146.401 65.1675 146.671 65.1675C147.081 65.1675 147.371 65.0275 147.551 64.7475C147.731 64.4675 147.821 63.9975 147.821 63.3375V62.2075H147.831ZM148.181 67.0875L148.021 66.1575C147.671 66.5275 147.291 66.8175 146.881 67.0075C146.471 67.1975 146.021 67.2875 145.541 67.2875C144.771 67.2875 144.151 67.0275 143.701 66.5175C143.251 66.0075 143.021 65.3075 143.021 64.4275C143.021 63.6575 143.211 63.0275 143.601 62.5375C143.981 62.0375 144.611 61.6075 145.491 61.2475C145.701 61.1675 145.991 61.0575 146.351 60.9275C147.381 60.5375 147.901 60.1075 147.901 59.6275C147.901 59.3275 147.821 59.0975 147.681 58.9475C147.531 58.7875 147.321 58.7175 147.041 58.7175C146.701 58.7175 146.451 58.8175 146.291 59.0275C146.131 59.2375 146.051 59.5575 146.051 59.9875V60.0575H143.281C143.281 58.9075 143.591 58.0575 144.211 57.4975C144.831 56.9375 145.771 56.6575 147.031 56.6575C147.601 56.6575 148.111 56.7075 148.551 56.8175C149.001 56.9275 149.371 57.0875 149.671 57.2875C150.051 57.5575 150.331 57.8775 150.481 58.2575C150.641 58.6375 150.721 59.3275 150.721 60.3375V64.2475C150.721 65.0375 150.751 65.6475 150.801 66.0675C150.851 66.4875 150.941 66.8275 151.071 67.0875H148.181ZM156.311 63.0975H159.021C159.021 63.1475 159.021 63.2175 159.021 63.3075C159.021 63.3875 159.021 63.4575 159.021 63.4975C159.021 64.7975 158.731 65.7675 158.141 66.4075C157.551 67.0475 156.661 67.3675 155.471 67.3675C154.121 67.3675 153.171 66.9775 152.621 66.1875C152.071 65.3975 151.801 64.0175 151.801 62.0275C151.801 60.0375 152.081 58.6475 152.631 57.8575C153.181 57.0675 154.131 56.6775 155.471 56.6775C156.681 56.6775 157.561 56.9975 158.131 57.6275C158.701 58.2675 158.981 59.2475 158.981 60.5975V60.7775H156.321V60.4875C156.321 59.8775 156.261 59.4475 156.131 59.1875C156.001 58.9275 155.791 58.7975 155.491 58.7975C155.141 58.7975 154.911 58.9675 154.791 59.3175C154.671 59.6575 154.611 60.5675 154.611 62.0275C154.611 63.4875 154.671 64.3275 154.791 64.7075C154.911 65.0875 155.141 65.2775 155.481 65.2775C155.771 65.2775 155.981 65.1475 156.121 64.8675C156.251 64.5975 156.321 64.1675 156.321 63.5675C156.321 63.5175 156.321 63.4475 156.321 63.3375C156.321 63.2275 156.321 63.1575 156.321 63.0875L156.311 63.0975ZM160.221 67.0875V53.5875H162.971V58.0275C163.201 57.5975 163.501 57.2775 163.871 57.0675C164.241 56.8575 164.681 56.7475 165.191 56.7475C165.951 56.7475 166.511 57.0075 166.861 57.5275C167.211 58.0475 167.391 58.8775 167.391 60.0175V67.0975H164.651V60.8275C164.651 60.0175 164.601 59.5075 164.501 59.3175C164.401 59.1175 164.211 59.0175 163.951 59.0175C163.641 59.0175 163.401 59.1675 163.231 59.4775C163.061 59.7875 162.971 60.2075 162.971 60.7575V67.0975H160.221V67.0875ZM168.661 55.9375V53.4875H171.401V55.9375H168.661ZM168.661 67.0875V56.9375H171.401V67.0875H168.661ZM172.851 67.0875V56.9375H175.431V58.1375C175.731 57.6575 176.081 57.3075 176.471 57.0775C176.861 56.8475 177.311 56.7375 177.831 56.7375C178.591 56.7375 179.151 56.9975 179.501 57.5175C179.851 58.0375 180.031 58.8675 180.031 60.0075V67.0875H177.291V60.8175C177.291 60.0075 177.241 59.4975 177.141 59.3075C177.041 59.1075 176.851 59.0075 176.591 59.0075C176.281 59.0075 176.041 59.1575 175.871 59.4675C175.701 59.7775 175.611 60.1975 175.611 60.7475V67.0875H172.851ZM185.831 63.5275H188.411V63.7775C188.411 64.9575 188.111 65.8575 187.511 66.4575C186.911 67.0575 186.011 67.3575 184.811 67.3575C184.211 67.3575 183.661 67.2675 183.171 67.0975C182.681 66.9275 182.301 66.6775 182.021 66.3675C181.711 66.0075 181.491 65.5375 181.361 64.9475C181.231 64.3575 181.171 63.4175 181.171 62.1175C181.171 60.6875 181.241 59.6875 181.371 59.1175C181.501 58.5475 181.731 58.0875 182.061 57.7175C182.371 57.3675 182.771 57.1075 183.251 56.9375C183.731 56.7575 184.291 56.6775 184.931 56.6775C185.571 56.6775 186.141 56.7675 186.611 56.9575C187.081 57.1475 187.471 57.4275 187.761 57.8075C188.011 58.1175 188.191 58.4975 188.301 58.9375C188.411 59.3775 188.461 60.1175 188.461 61.1775V62.3975H183.971C183.971 62.3975 183.971 62.4675 183.971 62.5075C183.951 62.9375 183.941 63.2275 183.941 63.4075C183.941 64.1175 184.021 64.6075 184.161 64.8875C184.311 65.1675 184.561 65.3075 184.921 65.3075C185.231 65.3075 185.471 65.1975 185.631 64.9875C185.791 64.7775 185.871 64.4475 185.871 64.0175C185.871 63.9275 185.871 63.7975 185.851 63.6175C185.851 63.5875 185.851 63.5575 185.851 63.5275H185.831ZM184.051 60.6375H185.901V60.5875C185.921 60.3375 185.931 60.1475 185.931 60.0475C185.931 59.5475 185.851 59.1875 185.691 58.9475C185.531 58.7075 185.291 58.5875 184.961 58.5875C184.631 58.5875 184.381 58.7075 184.241 58.9375C184.091 59.1675 184.031 59.5475 184.031 60.0775C184.031 60.2175 184.031 60.3375 184.031 60.4175C184.031 60.4975 184.031 60.5775 184.041 60.6375H184.051ZM189.091 63.8675H191.561C191.591 64.4075 191.691 64.7875 191.861 65.0275C192.031 65.2675 192.291 65.3875 192.631 65.3875C192.901 65.3875 193.131 65.3075 193.301 65.1375C193.481 64.9775 193.561 64.7575 193.561 64.4975C193.561 64.2675 193.501 64.0775 193.381 63.9275C193.261 63.7775 192.991 63.5975 192.561 63.3975C192.471 63.3475 192.331 63.2775 192.131 63.1875C191.131 62.7175 190.441 62.2675 190.051 61.8575C189.771 61.5775 189.561 61.2475 189.411 60.8775C189.261 60.5075 189.191 60.1075 189.191 59.7075C189.191 58.7775 189.501 58.0475 190.111 57.4975C190.721 56.9475 191.551 56.6775 192.591 56.6775C193.631 56.6775 194.501 56.9375 195.081 57.4675C195.661 57.9975 195.951 58.7575 195.951 59.7375V59.9275H193.541C193.531 59.4075 193.451 59.0475 193.311 58.8275C193.171 58.6075 192.951 58.5075 192.631 58.5075C192.351 58.5075 192.131 58.5875 191.971 58.7375C191.801 58.8875 191.721 59.0975 191.721 59.3475C191.721 59.7975 192.131 60.2075 192.961 60.5775C193.071 60.6275 193.161 60.6675 193.231 60.6975C194.351 61.2175 195.111 61.7175 195.491 62.2175C195.871 62.7075 196.061 63.3475 196.061 64.1475C196.061 65.1675 195.751 65.9575 195.141 66.5275C194.521 67.0875 193.651 67.3675 192.511 67.3675C191.371 67.3675 190.591 67.0875 189.991 66.5175C189.391 65.9475 189.091 65.1575 189.091 64.1275V63.8775V63.8675Z" fill="#0095DA"/>
<path d="M197.101 71.2474C198.151 71.2474 199.011 70.3874 199.011 69.3374" stroke="#0095DA" stroke-width="0.85" stroke-miterlimit="22.93"/>
<path d="M199.021 69.3374V53.3174" stroke="#0095DA" stroke-width="0.85" stroke-miterlimit="22.93"/>
<path d="M199.02 53.3177C199.02 52.2677 198.16 51.4077 197.11 51.4077" stroke="#0095DA" stroke-width="0.85" stroke-miterlimit="22.93"/>
<path fill-rule="evenodd" clip-rule="evenodd" d="M208.451 19.6674H209.941C210.261 19.6674 210.501 19.6074 210.651 19.4774C210.801 19.3474 210.881 19.1474 210.881 18.8774C210.881 18.6174 210.811 18.4274 210.661 18.2874C210.511 18.1574 210.291 18.0874 210.001 18.0874H208.451V19.6674ZM207.181 23.0274V17.0674H210.171C210.841 17.0674 211.341 17.2074 211.661 17.4874C211.981 17.7674 212.151 18.1874 212.151 18.7674C212.151 19.1274 212.071 19.4374 211.911 19.6774C211.751 19.9174 211.531 20.0874 211.231 20.1774C211.501 20.2674 211.691 20.4074 211.801 20.5974C211.911 20.7874 211.981 21.0774 211.991 21.4774L212.021 22.1774V22.2074C212.021 22.5574 212.111 22.7774 212.261 22.8574V23.0374H210.871C210.831 22.9574 210.791 22.8474 210.771 22.7274C210.751 22.6074 210.731 22.4574 210.731 22.2874L210.711 21.6574C210.691 21.2874 210.621 21.0374 210.491 20.9074C210.361 20.7774 210.131 20.7174 209.791 20.7174H208.451V23.0374H207.181V23.0274Z" fill="#0095DA"/>
<path d="M209.721 14.3774C212.841 14.3774 215.381 16.9175 215.381 20.0375C215.381 23.1575 212.841 25.6974 209.721 25.6974C206.601 25.6974 204.061 23.1575 204.061 20.0375C204.061 16.9175 206.601 14.3774 209.721 14.3774ZM209.721 15.6675C207.311 15.6675 205.351 17.6275 205.351 20.0375C205.351 22.4475 207.311 24.4075 209.721 24.4075C212.131 24.4075 214.091 22.4475 214.091 20.0375C214.091 17.6275 212.131 15.6675 209.721 15.6675Z" fill="#0095DA"/>
</svg>
