<?xml version="1.0" encoding="UTF-8"?>
<svg id="Layer_1" data-name="Layer 1" xmlns="http://www.w3.org/2000/svg" version="1.1" viewBox="0 0 1000 210">
  <defs>
    <style>
      .cls-1, .cls-2, .cls-3, .cls-4 {
        stroke-width: 0px;
      }

      .cls-1, .cls-3 {
        fill: #008bd5;
      }

      .cls-2 {
        display: none;
      }

      .cls-2, .cls-4 {
        fill: #fff;
      }

      .cls-3 {
        fill-rule: evenodd;
      }
    </style>
  </defs>
  <path class="cls-1" d="M320.18,81.76c-12.47-12.53-30.05-20.37-49.13-20.35-19.09-.02-36.66,7.83-49.13,20.35-12.52,12.47-20.37,30.05-20.35,49.13-.02,19.09,7.83,36.66,20.35,49.13,12.47,12.52,30.05,20.37,49.13,20.35,19.09.02,36.66-7.83,49.13-20.35,12.53-12.47,20.37-30.05,20.35-49.13.02-19.09-7.83-36.66-20.35-49.13ZM297.84,157.36c-6.78,6.86-16.2,11.22-25.84,11.22-.33,0-.65-.02-.98-.02-.3,0-.61.02-.91.02-15.73,0-28.27-10.05-33.42-23.73-2-4.45-3.2-9.34-3.43-14.44-.3-6.78,1.7-13.2,5.23-18.69,4.91-8.8,13.68-15.5,23.48-18.01,2.95-.83,6.01-1.28,9.08-1.28,5.81,0,11.17,1.39,15.89,3.8,9.02,4.2,15.83,12.14,19.07,21.72,1.64,4.06,2.62,8.46,2.83,13.03.03.63.03,1.25.02,1.88,0,4.98-1.23,9.75-3.38,14.07-1.88,3.89-4.5,7.42-7.64,10.43Z"/>
  <path class="cls-2" d="M297.94,157.26c-6.79,6.92-16.26,11.32-25.94,11.32-.33,0-.65-.02-.98-.02-.3,0-.61.02-.91.02-3.07,0-6.01-.39-8.81-1.1,3.11.83,6.38,1.28,9.76,1.28,13.02,0,24.49-6.58,31.3-16.58-1.31,1.82-2.79,3.53-4.41,5.09Z"/>
  <path class="cls-4" d="M236.76,145c-2.04-4.49-3.27-9.43-3.5-14.59-.02-.42-.02-.83-.02-1.24-.03.57-.04,1.15-.04,1.73,0,15.17,8.93,28.25,21.82,34.29-8.42-4.03-14.88-11.34-18.25-20.19Z"/>
  <path class="cls-4" d="M308.84,130.98c.02.53.03,1.06.02,1.59.02-.56.04-1.11.04-1.67,0-10.37-4.18-19.74-10.93-26.57,3.55,3.84,6.28,8.47,8.01,13.56,1.65,4.08,2.65,8.5,2.86,13.09Z"/>
  <path class="cls-4" d="M239.43,110.13c-.67,1.01-1.3,2.05-1.87,3.13.27-.48.56-.94.86-1.41.32-.58.66-1.16,1.01-1.72Z"/>
  <path class="cls-3" d="M466.74,66.04h8.83v31.76h-7.95c-7.99.35-13.13,1.1-19.66,5.19-14.07,11.06-15.64,28.71-10.86,43.74,4.8,11.31,11.11,17.67,25.3,19.69l34.9.04V13.41h33.72v186.97h-64.28c-87.9,0-87.89-134.34,0-134.34"/>
  <path class="cls-3" d="M551.51,199.89h76.33c21.91,0,39.85-18.76,39.85-41.69v-27.81c0-22.94-17.94-41.7-39.85-41.7-14.05,0-25.48,0-39.52,0-6.45,0-11.72-5.16-11.72-11.44v-15.69c0-6.28,5.27-11.43,11.72-11.43h72.03V15.51h-76.82c-22.05,0-40.1,17.47-40.1,38.82v25.86c0,21.34,18.05,38.8,40.1,38.8h39.66c6.93,0,12.62,5.99,12.62,13.32v18.24c0,7.32-5.69,13.31-12.62,13.31h-71.69v36.02Z"/>
  <path class="cls-3" d="M188.34,13.92h-103.6C31.79,13.92,6.11,57.67,5.87,102.78c-.27,48.03,24.24,97.6,87.78,97.6h94.69v-122.79h-75.71v35.71h41.14v48.32h-65.34c-23.05,0-37.31-17.13-37.31-38.09v-22.04c0-23.86,9.11-48.84,41.9-48.84h95.31V13.92Z"/>
  <path class="cls-3" d="M994.13,62.84h-27.69c-21.6,0-39.28,18.89-39.28,41.96v95.15h33.14v-75.8c0-9.43,7.25-17.63,16.06-17.13l17.77.99v-45.17Z"/>
  <path class="cls-3" d="M904.03,62.84h-69.01c-32.12,0-58.37,28.07-58.37,62.36v12.37c0,34.31,26.25,62.38,58.37,62.38h24.69v-44.54h-26.15c-11.05,0-20.06-9.66-20.06-21.44v-6.18c0-11.79,9.01-21.44,20.06-21.44h34.96v93.6h35.51V62.84Z"/>
  <rect class="cls-1" x="353.84" y="13.41" width="33.71" height="186.97"/>
  <path class="cls-3" d="M679.3,9.56h34.53v53.13h40.79v41.5h-40.79v41.34c0,6.06,4.76,11.02,10.57,11.02h34.72v43.44h-38.74c-23.24,0-41.08-19.85-41.08-44.13V9.56Z"/>
</svg>