<svg id="visual" viewBox="0 0 900 600" width="900" height="600" xmlns="http://www.w3.org/2000/svg" xmlns:xlink="http://www.w3.org/1999/xlink" version="1.1"><g stroke-width="1" stroke-linejoin="bevel"><path d="M460.3 312L376.7 356L417.3 398Z" fill="#8373af" stroke="#8373af"></path><path d="M398.7 192L292.7 296L376.7 356Z" fill="#5d4d8c" stroke="#5d4d8c"></path><path d="M376.7 356L377.7 520L417.3 398Z" fill="#544484" stroke="#544484"></path><path d="M460.3 312L398.7 192L376.7 356Z" fill="#675695" stroke="#675695"></path><path d="M417.3 398L591.9 369L460.3 312Z" fill="#9687c0" stroke="#9687c0"></path><path d="M460.3 312L533.3 213L398.7 192Z" fill="#8c7db8" stroke="#8c7db8"></path><path d="M594.9 274L533.3 213L460.3 312Z" fill="#8373af" stroke="#8373af"></path><path d="M342.1 540L377.7 520L376.7 356Z" fill="#b3a5db" stroke="#b3a5db"></path><path d="M417.3 398L460.3 600L591.9 369Z" fill="#7969a6" stroke="#7969a6"></path><path d="M591.9 369L594.9 274L460.3 312Z" fill="#70609e" stroke="#70609e"></path><path d="M406.7 0L327.1 175L398.7 192Z" fill="#9687c0" stroke="#9687c0"></path><path d="M398.7 192L327.1 175L292.7 296Z" fill="#8373af" stroke="#8373af"></path><path d="M201.1 318L342.1 540L376.7 356Z" fill="#b3a5db" stroke="#b3a5db"></path><path d="M327.1 175L267.1 198L292.7 296Z" fill="#b3a5db" stroke="#b3a5db"></path><path d="M292.7 296L201.1 318L376.7 356Z" fill="#675695" stroke="#675695"></path><path d="M267.1 198L201.1 318L292.7 296Z" fill="#70609e" stroke="#70609e"></path><path d="M342.1 540L405.7 600L377.7 520Z" fill="#544484" stroke="#544484"></path><path d="M377.7 520L460.3 600L417.3 398Z" fill="#a99bd2" stroke="#a99bd2"></path><path d="M405.7 600L460.3 600L377.7 520Z" fill="#544484" stroke="#544484"></path><path d="M694.4 452L692.4 408L591.9 369Z" fill="#675695" stroke="#675695"></path><path d="M591.9 369L692.4 408L594.9 274Z" fill="#70609e" stroke="#70609e"></path><path d="M594.9 274L590.9 117L533.3 213Z" fill="#7969a6" stroke="#7969a6"></path><path d="M533.3 213L590.9 117L398.7 192Z" fill="#8373af" stroke="#8373af"></path><path d="M822.4 222L590.9 117L594.9 274Z" fill="#8373af" stroke="#8373af"></path><path d="M642.9 600L694.4 452L591.9 369Z" fill="#5d4d8c" stroke="#5d4d8c"></path><path d="M104.6 243L131.6 400L201.1 318Z" fill="#8373af" stroke="#8373af"></path><path d="M201.1 318L131.6 400L342.1 540Z" fill="#9687c0" stroke="#9687c0"></path><path d="M342.1 540L231.1 600L405.7 600Z" fill="#5d4d8c" stroke="#5d4d8c"></path><path d="M131.6 400L231.1 600L342.1 540Z" fill="#8373af" stroke="#8373af"></path><path d="M722.4 600L740.9 441L694.4 452Z" fill="#8c7db8" stroke="#8c7db8"></path><path d="M694.4 452L740.9 441L692.4 408Z" fill="#b3a5db" stroke="#b3a5db"></path><path d="M692.4 408L822.4 222L594.9 274Z" fill="#9687c0" stroke="#9687c0"></path><path d="M131.6 400L210.6 600L231.1 600Z" fill="#7969a6" stroke="#7969a6"></path><path d="M460.3 600L642.9 600L591.9 369Z" fill="#675695" stroke="#675695"></path><path d="M96.6 205L104.6 243L267.1 198Z" fill="#7969a6" stroke="#7969a6"></path><path d="M267.1 198L104.6 243L201.1 318Z" fill="#b3a5db" stroke="#b3a5db"></path><path d="M590.9 117L406.7 0L398.7 192Z" fill="#9687c0" stroke="#9687c0"></path><path d="M327.1 175L194.1 0L267.1 198Z" fill="#70609e" stroke="#70609e"></path><path d="M104.6 243L77.6 390L131.6 400Z" fill="#9687c0" stroke="#9687c0"></path><path d="M131.6 400L0 600L210.6 600Z" fill="#8373af" stroke="#8373af"></path><path d="M637.9 0L613.3 44L690.4 0Z" fill="#7969a6" stroke="#7969a6"></path><path d="M590.9 117L550.3 0L406.7 0Z" fill="#5d4d8c" stroke="#5d4d8c"></path><path d="M194.1 0L96.6 205L267.1 198Z" fill="#8c7db8" stroke="#8c7db8"></path><path d="M0 204L0 419L77.6 390Z" fill="#5d4d8c" stroke="#5d4d8c"></path><path d="M613.3 44L550.3 0L590.9 117Z" fill="#8c7db8" stroke="#8c7db8"></path><path d="M642.9 600L722.4 600L694.4 452Z" fill="#a99bd2" stroke="#a99bd2"></path><path d="M690.4 0L613.3 44L590.9 117Z" fill="#544484" stroke="#544484"></path><path d="M613.3 44L637.9 0L550.3 0Z" fill="#5d4d8c" stroke="#5d4d8c"></path><path d="M900 366L822.4 222L740.9 441Z" fill="#675695" stroke="#675695"></path><path d="M740.9 441L822.4 222L692.4 408Z" fill="#544484" stroke="#544484"></path><path d="M406.7 0L194.1 0L327.1 175Z" fill="#b3a5db" stroke="#b3a5db"></path><path d="M0 204L77.6 390L104.6 243Z" fill="#a091c9" stroke="#a091c9"></path><path d="M77.6 390L0 600L131.6 400Z" fill="#675695" stroke="#675695"></path><path d="M0 419L0 422L77.6 390Z" fill="#a99bd2" stroke="#a99bd2"></path><path d="M822.4 222L690.4 0L590.9 117Z" fill="#a091c9" stroke="#a091c9"></path><path d="M0 88L0 204L96.6 205Z" fill="#5d4d8c" stroke="#5d4d8c"></path><path d="M96.6 205L0 204L104.6 243Z" fill="#675695" stroke="#675695"></path><path d="M900 497L900 366L740.9 441Z" fill="#7969a6" stroke="#7969a6"></path><path d="M900 366L900 229L822.4 222Z" fill="#675695" stroke="#675695"></path><path d="M822.4 222L867.4 104L690.4 0Z" fill="#9687c0" stroke="#9687c0"></path><path d="M0 422L0 600L77.6 390Z" fill="#9687c0" stroke="#9687c0"></path><path d="M722.4 600L900 497L740.9 441Z" fill="#a99bd2" stroke="#a99bd2"></path><path d="M47.6 0L0 88L96.6 205Z" fill="#9687c0" stroke="#9687c0"></path><path d="M900 229L900 181L822.4 222Z" fill="#a99bd2" stroke="#a99bd2"></path><path d="M900 181L867.4 104L822.4 222Z" fill="#b3a5db" stroke="#b3a5db"></path><path d="M194.1 0L47.6 0L96.6 205Z" fill="#7969a6" stroke="#7969a6"></path><path d="M722.4 600L900 600L900 497Z" fill="#544484" stroke="#544484"></path><path d="M47.6 0L0 0L0 88Z" fill="#675695" stroke="#675695"></path><path d="M900 181L900 0L867.4 104Z" fill="#a99bd2" stroke="#a99bd2"></path><path d="M867.4 104L900 0L690.4 0Z" fill="#7969a6" stroke="#7969a6"></path></g></svg>