<svg width="27" height="20" viewBox="0 0 27 20" fill="none" xmlns="http://www.w3.org/2000/svg">
<path fill-rule="evenodd" clip-rule="evenodd" d="M24.401 2.6944L14.0971 11.0592C13.8043 11.297 13.436 11.4271 13.0557 11.4271C12.6755 11.4271 12.3072 11.297 12.0144 11.0592L1.71541 2.6944C1.66015 2.85746 1.63205 3.02818 1.63217 3.2V16C1.63217 16.4243 1.80413 16.8313 2.11022 17.1314C2.41632 17.4314 2.83147 17.6 3.26434 17.6H22.8504C23.2833 17.6 23.6984 17.4314 24.0045 17.1314C24.3106 16.8313 24.4826 16.4243 24.4826 16V3.2C24.4832 3.02827 24.4557 2.85755 24.401 2.6944ZM3.26434 0H22.8504C23.7162 0 24.5465 0.337142 25.1587 0.937258C25.7708 1.53737 26.1148 2.35131 26.1148 3.2V16C26.1148 16.8487 25.7708 17.6626 25.1587 18.2627C24.5465 18.8629 23.7162 19.2 22.8504 19.2H3.26434C2.39859 19.2 1.56829 18.8629 0.956105 18.2627C0.343921 17.6626 0 16.8487 0 16V3.2C0 2.35131 0.343921 1.53737 0.956105 0.937258C1.56829 0.337142 2.39859 0 3.26434 0ZM2.92159 1.6L12.0226 8.9648C12.3141 9.20081 12.6801 9.33031 13.0581 9.33118C13.4362 9.33206 13.8028 9.20426 14.0954 8.9696L23.2878 1.6H2.92159Z" fill="white"/>
</svg>
