<svg width="35" height="35" viewBox="0 0 35 35" fill="none" xmlns="http://www.w3.org/2000/svg">
<path d="M13.125 14.5838C13.1401 13.4282 13.6059 12.3241 14.4231 11.5069C15.2404 10.6897 16.3444 10.2239 17.5 10.2088C18.6557 10.2239 19.7597 10.6897 20.5769 11.5069C21.3941 12.3241 21.8599 13.4282 21.875 14.5838C21.8599 15.7394 21.3941 16.8435 20.5769 17.6607C19.7597 18.4779 18.6557 18.9437 17.5 18.9588C16.3444 18.9437 15.2404 18.4779 14.4231 17.6607C13.6059 16.8435 13.1401 15.7394 13.125 14.5838ZM17.5 27.7088L23.3334 29.1671V24.6755C21.5741 25.7349 19.5534 26.2805 17.5 26.2505C15.4467 26.2805 13.4259 25.7349 11.6667 24.6755V29.1671M17.5 5.8338C16.3508 5.81284 15.2095 6.02713 14.1461 6.4635C13.0828 6.89987 12.1199 7.54911 11.3167 8.3713C10.4856 9.17538 9.82887 10.1419 9.38731 11.2106C8.94575 12.2794 8.72883 13.4276 8.75003 14.5838C8.73484 15.7327 8.95468 16.8725 9.39606 17.9333C9.83744 18.9942 10.491 19.9535 11.3167 20.7526C12.1162 21.5827 13.0773 22.24 14.1409 22.684C15.2044 23.1279 16.3477 23.3491 17.5 23.3338C18.6524 23.3491 19.7957 23.1279 20.8592 22.684C21.9227 22.24 22.8839 21.5827 23.6834 20.7526C24.509 19.9535 25.1626 18.9942 25.604 17.9333C26.0454 16.8725 26.2652 15.7327 26.25 14.5838C26.2712 13.4276 26.0543 12.2794 25.6128 11.2106C25.1712 10.1419 24.5145 9.17538 23.6834 8.3713C22.8802 7.54911 21.9173 6.89987 20.854 6.4635C19.7906 6.02713 18.6492 5.81284 17.5 5.8338ZM29.1667 14.5838C29.1369 15.9838 28.8553 17.3669 28.3355 18.6671C27.8694 19.991 27.1623 21.2172 26.25 22.2838V33.5421L17.5 30.6255L8.75003 33.5421V22.2838C6.8625 20.164 5.82389 17.4221 5.83337 14.5838C5.80766 13.0534 6.09592 11.534 6.68034 10.1193C7.26476 8.70468 8.13294 7.42484 9.23128 6.3588C10.3013 5.25061 11.587 4.37348 13.0092 3.78153C14.4314 3.18959 15.9598 2.89541 17.5 2.91714C19.0403 2.89541 20.5687 3.18959 21.9909 3.78153C23.413 4.37348 24.6988 5.25061 25.7688 6.3588C26.8671 7.42484 27.7353 8.70468 28.3197 10.1193C28.9042 11.534 29.1924 13.0534 29.1667 14.5838Z" fill="black"/>
</svg>
