<svg width="137" height="351" viewBox="0 0 137 351" fill="none" xmlns="http://www.w3.org/2000/svg">
<path d="M13 5.99961C56.133 -0.111076 81 -0.500739 122.5 4.99961M122.5 4.99961L115 13.8633M122.5 4.99961L134 53M78.5 57V11.5M78.5 57L115 13.8633M78.5 57V58L67 72.5L124 57M78.5 11.5V6.99926H9.5V8L0.5 61L6 340.5C19.1253 352.031 28.2041 351.743 48 337.5L65 95.5L69.5 90L86 338.5C103.087 353.356 112.489 353.16 129 340.5L136 60L134 53M78.5 11.5L115 13.8633M115 13.8633L124 57M124 57L134 53" stroke="#544484"/>
<path d="M13 29.5L8 57.5V86.5H1" stroke="#544484" stroke-dasharray="2 2"/>
<path d="M10 12L76 14.5" stroke="#544484" stroke-dasharray="2 2"/>
<path d="M32.5 17L28 62.5" stroke="#544484"/>
<path d="M39.5 3.5V26H45V2.5" stroke="#544484"/>
<path d="M79 30.5H100" stroke="#544484" stroke-dasharray="2 2"/>
<path d="M67 18.5V72.5L70.5 68.5L122 53L123.5 57.5L127 56V88L135 87.5" stroke="#544484" stroke-dasharray="3 3"/>
<path d="M79 8.5L117.5 10.5L127 55.5" stroke="#544484" stroke-dasharray="3 3"/>
<path d="M128 41.5L129.5 50" stroke="#544484" stroke-dasharray="3 3"/>
<path d="M75.5 61.5L121.5 45" stroke="#544484"/>
<path d="M79 41H92" stroke="#544484" stroke-dasharray="3 3"/>
<path d="M8.5 16L79 18.5" stroke="#544484"/>
<path d="M67.5 92L67 72.5M67 72.5L77 70V81.5L67.5 87L67 72.5ZM70 68.5V18" stroke="#544484"/>
</svg>
