<svg width="88" height="88" viewBox="0 0 88 88" fill="none" xmlns="http://www.w3.org/2000/svg">
<path d="M70.3673 87.7499C66.5548 87.7499 61.1993 86.371 53.1798 81.8905C43.4278 76.4218 35.8849 71.3729 26.1857 61.6991C16.8341 52.3534 12.2833 46.3026 5.91417 34.7128C-1.28114 21.6269 -0.0545804 14.7675 1.31651 11.8358C2.94933 8.33193 5.35948 6.23623 8.47472 4.15615C10.2442 2.99684 12.1167 2.00306 14.0685 1.1874C14.2638 1.10341 14.4454 1.02333 14.6075 0.951069C15.5743 0.515522 17.0392 -0.142681 18.8946 0.560444C20.1329 1.02529 21.2384 1.97646 22.9689 3.68544C26.5177 7.18544 31.3673 14.9804 33.1564 18.8085C34.3575 21.3886 35.1525 23.0917 35.1544 25.0019C35.1544 27.2382 34.0294 28.9628 32.6642 30.8241C32.4083 31.1737 32.1544 31.5077 31.9083 31.8319C30.422 33.7851 30.0958 34.3495 30.3107 35.3573C30.7462 37.3827 33.9942 43.412 39.3321 48.7382C44.67 54.0644 50.5255 57.1073 52.5587 57.5409C53.6095 57.7655 54.1857 57.4257 56.2013 55.8866C56.4903 55.6659 56.7872 55.4374 57.0978 55.2089C59.1798 53.6601 60.8243 52.5644 63.0079 52.5644H63.0196C64.92 52.5644 66.547 53.3886 69.2423 54.7479C72.7579 56.5214 80.7872 61.3085 84.3087 64.8612C86.0216 66.5878 86.9767 67.6893 87.4435 68.9257C88.1466 70.787 87.4845 72.246 87.0528 73.2225C86.9806 73.3847 86.9005 73.5624 86.8165 73.7597C85.9944 75.708 84.9947 77.5766 83.8302 79.3417C81.754 82.4472 79.6505 84.8515 76.1388 86.4862C74.3355 87.3392 72.362 87.7713 70.3673 87.7499Z" fill="#544484"/>
</svg>
