<svg width="27" height="34" viewBox="0 0 27 34" fill="none" xmlns="http://www.w3.org/2000/svg">
<path d="M6.93004 0.377848L5.39642 0.830754C4.03086 1.23444 2.81137 2.01214 1.88146 3.0723C0.95156 4.13246 0.349948 5.43096 0.147438 6.81498C-0.487829 11.1511 0.932432 16.2212 4.35689 22.0355C7.77279 27.8353 11.5331 31.5717 15.6719 33.2072C17.0018 33.7326 18.4575 33.8726 19.8662 33.6106C21.2748 33.3485 22.5771 32.6954 23.6181 31.729L24.7774 30.6512C25.5302 29.9528 25.9987 29.0102 26.0959 27.9986C26.1931 26.987 25.9123 25.9753 25.3057 25.1514L22.4053 21.2094C22.0132 20.6772 21.461 20.2787 20.8262 20.0696C20.1914 19.8605 19.5057 19.8515 18.8654 20.0436L14.4784 21.3583L14.365 21.3793C13.8816 21.4484 12.7651 20.4231 11.3748 18.0621C9.92029 15.5921 9.62084 14.1474 10.0208 13.7742L12.2517 11.734C13.0667 10.988 13.6234 10.0109 13.844 8.9394C14.0645 7.86791 13.9378 6.75563 13.4816 5.7582L12.0657 2.67383C11.6399 1.74567 10.8843 1.00097 9.93981 0.578536C8.99532 0.156106 7.92421 0.0847772 6.93004 0.377848ZM10.1192 3.53351L11.5309 6.61788C11.8049 7.21613 11.8812 7.88337 11.7493 8.52625C11.6174 9.16914 11.2838 9.75552 10.7951 10.2034L8.55778 12.2457C7.12468 13.575 7.59953 15.8437 9.52458 19.1105C11.3341 22.1844 12.9854 23.7025 14.7607 23.4383L15.026 23.3838L19.4921 22.0481C19.7056 21.9838 19.9342 21.9867 20.146 22.0563C20.3577 22.1258 20.5419 22.2586 20.6728 22.436L23.5732 26.378C23.8769 26.7899 24.0176 27.2959 23.9693 27.802C23.9209 28.308 23.6866 28.7796 23.3101 29.129L22.1487 30.2067C21.405 30.8966 20.475 31.3627 19.4691 31.5497C18.4632 31.7367 17.4236 31.6366 16.474 31.2614C12.8421 29.8272 9.40908 26.4157 6.21135 20.9872C3.00507 15.546 1.70673 10.9184 2.265 7.11272C2.40951 6.12394 2.8392 5.19622 3.50349 4.43879C4.16777 3.68135 5.03899 3.12575 6.01457 2.83738L7.5482 2.38447C8.04541 2.23801 8.58 2.27382 9.05226 2.48524C9.52452 2.69666 9.90223 3.06924 10.1149 3.53351" fill="white"/>
</svg>
