<svg width="37" height="41" viewBox="0 0 37 41" fill="none" xmlns="http://www.w3.org/2000/svg">
<g clip-path="url(#clip0_4093_728)">
<path d="M22.1592 0.247719C18.8666 1.10965 16.5394 3.36791 15.6775 6.52258C15.4361 7.38452 15.2293 7.76377 14.7638 8.17749L14.1432 8.72913V10.2806C14.1432 12.401 14.3156 12.5906 16.1084 12.5216L17.4186 12.4699V10.1427V7.81548L16.8324 7.76377C16.2636 7.71205 16.2636 7.69481 16.367 6.98803C16.6773 5.09178 18.4529 2.7818 20.3664 1.81643C23.0901 0.437344 26.555 0.420105 29.2615 1.7992C30.3303 2.33359 31.8301 3.71269 32.3989 4.69529C32.7954 5.36759 33.3643 7.0225 33.3643 7.48795C33.3643 7.60862 33.1057 7.72929 32.8127 7.76377L32.2438 7.81548V10.1427V12.4699L32.7265 12.5216C33.123 12.5733 33.1919 12.6595 33.1919 13.1595C33.1919 14.3662 32.5886 14.9695 31.3819 14.9695C31.0543 14.9695 30.7785 14.9523 30.7785 14.9178C30.7785 14.8833 30.9337 14.5386 31.1233 14.1593C31.3129 13.7801 31.537 13.125 31.6232 12.7113C31.8645 11.6942 31.8645 7.81548 31.6232 6.95355C31.1578 5.24692 29.6752 3.7644 27.7273 3.02314C26.2792 2.4715 23.1763 2.48874 21.8317 3.04038C19.8492 3.86783 18.5908 5.12625 18.1081 6.76393C17.7116 8.07406 17.7633 11.8838 18.1771 13.2284C18.8149 15.2626 20.2285 16.9175 22.1419 17.8484C22.9866 18.2793 23.3142 18.3311 24.745 18.3311C26.2275 18.3311 26.4861 18.2793 27.5376 17.7794C28.1755 17.4864 29.0374 16.9175 29.4511 16.5382C30.1407 15.9004 30.2958 15.8315 31.1405 15.8315C31.6749 15.8315 32.3817 15.6935 32.7782 15.5039C33.5367 15.1591 33.7953 14.7109 34.0194 13.418C34.1228 12.8147 34.2262 12.6251 34.5193 12.5906C35.295 12.4699 35.5191 11.9528 35.5191 10.2806V8.72913L34.8985 8.17749C34.3986 7.76377 34.209 7.40176 33.9849 6.5743C33.1747 3.38515 30.6923 1.0407 27.3135 0.23048C25.9345 -0.0798168 23.4176 -0.0798168 22.1592 0.247719ZM27.0032 3.69545C28.1755 4.04022 29.4167 4.81596 30.0028 5.57446C30.7613 6.59154 30.9509 7.40176 30.9509 9.78069C30.9509 12.0907 30.7096 13.3491 30.0545 14.4006L29.7097 14.9695H27.8479C26.4171 14.9695 25.9517 14.9178 25.7793 14.7109C25.4862 14.3662 24.2623 14.3834 23.8486 14.7454C23.3831 15.1591 23.4521 15.9349 23.9692 16.2797C24.4692 16.6072 25.4862 16.521 25.9517 16.09C26.1586 15.9004 26.6068 15.8315 27.6066 15.8315L28.9685 15.8487L28.4513 16.2624C26.9515 17.5036 24.6071 17.9001 22.8143 17.2105C21.4352 16.6934 20.0733 15.4177 19.3665 13.9697L18.7977 12.8147V9.88412C18.7977 7.00527 18.7977 6.93631 19.2631 6.14333C20.5732 3.93679 24.0382 2.83351 27.0032 3.69545ZM16.6428 10.2289V11.8666H15.9878C15.0741 11.8666 14.919 11.6425 14.919 10.2978C14.919 8.93599 15.1603 8.59122 16.0567 8.59122H16.6428V10.2289ZM34.4331 8.88428C34.6744 9.09114 34.7434 9.41868 34.7434 10.3151C34.7434 11.6425 34.5882 11.8666 33.6746 11.8666H33.0195V10.2289V8.59122H33.5712C33.8642 8.59122 34.2607 8.71189 34.4331 8.88428ZM25.2621 15.4867C25.2621 15.5729 25.0725 15.6591 24.8312 15.6591C24.5898 15.6591 24.4002 15.5729 24.4002 15.4867C24.4002 15.3832 24.5898 15.3143 24.8312 15.3143C25.0725 15.3143 25.2621 15.3832 25.2621 15.4867Z" fill="black"/>
<path d="M21.2283 20.0546C20.6594 20.296 19.3493 20.7097 18.2977 20.9855C15.8326 21.6406 15.6085 21.7268 14.8328 22.4163C13.9363 23.1921 13.7295 23.7782 13.5226 26.295C13.3502 28.5016 13.4192 28.9153 13.9363 28.7084C14.126 28.6395 14.2294 28.174 14.2984 27.0018C14.4707 24.6573 14.5569 24.1747 14.9879 23.5541C15.5051 22.7611 16.4187 22.3129 18.5046 21.7785C19.4872 21.5372 20.7628 21.1407 21.3317 20.9166L22.3833 20.4856L23.0039 20.9855C23.3486 21.2613 23.8486 21.7268 24.1244 22.0198C24.4174 22.3129 24.7105 22.5542 24.7967 22.5542C24.8829 22.5542 25.469 22.0888 26.0723 21.5027C26.8998 20.7442 27.2791 20.5028 27.4859 20.589C27.8996 20.7787 31.0371 21.7957 32.4334 22.1922C34.9503 22.9162 35.0537 23.1576 35.4502 28.7601C35.6226 31.1736 35.7605 33.2939 35.7777 33.4491C35.7777 33.7421 35.2433 33.7594 27.8135 33.7938C19.9699 33.8455 19.832 33.8455 19.832 34.1903C19.832 34.5351 19.9699 34.5351 28.1582 34.5868C35.0537 34.6213 36.4845 34.5868 36.5707 34.3972C36.6224 34.2593 36.5017 31.9493 36.3293 29.2601C35.8467 22.2439 35.8467 22.2612 31.3819 21.0028C30.1579 20.6407 28.6581 20.1753 28.072 19.9512L27.0032 19.5375L25.9862 20.5373C25.4518 21.0717 24.9346 21.5199 24.8656 21.5199C24.7967 21.5199 24.2795 21.089 23.7107 20.5718C23.1418 20.0546 22.5901 19.6237 22.4695 19.6237C22.3488 19.6409 21.7799 19.8305 21.2283 20.0546Z" fill="black"/>
<path d="M18.5046 23.2959C16.2463 23.9337 14.6259 26.1748 14.7638 28.4847C14.8155 29.3467 14.5569 29.7949 13.9536 29.7949C13.1778 29.7949 12.7469 29.5018 12.5055 28.7778C12.2987 28.1227 12.2987 28.0538 12.7469 27.4849C12.9882 27.1574 13.1951 26.8126 13.1951 26.7436C13.1951 26.6574 12.8676 26.261 12.4538 25.8645L11.7298 25.1577L10.9196 25.6748L10.1266 26.192L9.47154 25.8645C8.90267 25.5714 8.782 25.4163 8.62685 24.6922L8.45446 23.8475H7.33395H6.21344L6.07553 24.7267C5.93762 25.5542 5.8859 25.6231 5.23084 25.8817C4.54129 26.1575 4.52405 26.1575 3.78279 25.6576L3.04153 25.1404L2.42094 25.6748C1.45557 26.5195 1.4211 26.7092 1.98997 27.5021L2.50713 28.1917L2.19683 28.8985C1.92102 29.5535 1.83482 29.6225 1.04185 29.7432L0.179913 29.8811L0.128197 30.9671C0.0764812 31.9842 0.0937198 32.0531 0.524686 32.2083C0.783266 32.3117 1.16252 32.3807 1.38662 32.3807C1.80035 32.3807 1.98997 32.622 2.3175 33.4667C2.45541 33.7942 2.38646 34.0356 1.97273 34.6389L1.47281 35.3974L2.19683 36.1215C2.59332 36.5352 2.98981 36.8627 3.076 36.8627C3.14496 36.8627 3.48973 36.6559 3.81727 36.4145C4.38614 35.9663 4.4551 35.9663 5.11016 36.1732C5.83419 36.4145 6.12724 36.8455 6.12724 37.6557C6.12724 37.9315 6.26515 38.1384 6.52373 38.2591C6.7306 38.3452 7.09261 38.8279 7.33395 39.3279C7.88559 40.4828 8.64409 41 9.78184 41C10.2473 41 10.8334 40.8966 11.092 40.7587C11.3506 40.6207 13.1778 38.8796 15.1431 36.8972L18.7459 33.2943H19.9182C22.7625 33.2943 24.9174 31.0878 24.9174 28.2089C24.9174 27.1401 24.7105 26.5195 24.3485 26.5195C24.2451 26.5195 23.3486 27.3125 22.3833 28.2779L20.6077 30.0535L19.3148 28.7606L18.0219 27.4677L19.8664 25.6231C21.5558 23.9337 21.6937 23.7441 21.4524 23.5028C21.0731 23.1235 19.5044 23.0201 18.5046 23.2959ZM18.7459 25.5369C17.7806 26.5023 17.16 27.2608 17.16 27.4849C17.16 27.8814 20.2457 31.0016 20.6249 31.0016C20.7629 31.0016 21.5731 30.2948 22.4178 29.4501C23.2625 28.5882 24.021 27.8986 24.1071 27.8986C24.3313 27.8986 24.0727 29.2777 23.6934 30.0879C22.9349 31.6739 20.987 32.7255 19.2803 32.4669L18.4874 32.3462L14.5914 36.2421L10.6782 40.1381H9.85079C9.17848 40.1381 8.93714 40.0519 8.54066 39.6381C7.97178 39.0693 7.76492 38.4487 7.9373 37.7764C8.00626 37.4661 9.43706 35.8974 11.8505 33.4667L15.6775 29.6397V28.2951C15.6947 27.1574 15.7636 26.8298 16.1774 26.1403C16.9359 24.8302 18.3494 23.9682 19.7458 23.951L20.3491 23.9337L18.7459 25.5369ZM7.9373 25.4163C8.04073 26.1231 8.10969 26.2265 8.67856 26.4506C9.02334 26.5885 9.4543 26.7781 9.60945 26.8643C10.0921 27.1401 10.4541 27.0712 11.0403 26.6057C11.5919 26.192 11.6091 26.192 11.9022 26.5195C12.178 26.8298 12.178 26.8643 11.7298 27.4504L11.2644 28.071L11.6608 29.0536C12.178 30.3638 12.2814 30.4844 12.8676 30.4844C13.1434 30.4844 13.3675 30.5361 13.3675 30.6223C13.3675 30.6913 12.0746 32.0187 10.5059 33.5874C8.93714 35.1561 7.50634 36.7076 7.33395 37.0351L7.02365 37.6385L6.92022 37.1213C6.66164 35.8974 6.59269 35.8112 5.47218 35.363L4.38614 34.932L3.78279 35.3974C3.19668 35.8456 3.1622 35.8456 2.8519 35.5698C2.52437 35.2768 2.52437 35.2595 2.9381 34.7079C3.40354 34.1218 3.47249 33.7598 3.19668 33.2771C3.11048 33.1219 2.92086 32.691 2.78295 32.3462C2.55885 31.7773 2.45541 31.7084 1.74863 31.6049C1.05908 31.5015 0.955652 31.4326 0.955652 31.0705C0.955652 30.7947 1.07632 30.6396 1.35214 30.5879C2.61056 30.3293 2.57608 30.3465 2.98981 29.3122C3.45526 28.0538 3.45526 28.1055 2.95533 27.3815C2.57608 26.8298 2.55885 26.7436 2.80019 26.4851C3.04153 26.2092 3.11048 26.2092 3.67936 26.6057C4.43786 27.1229 4.38614 27.1229 5.64456 26.6402C6.38582 26.3644 6.67888 26.1575 6.7306 25.8645C6.78231 25.6576 6.85127 25.2956 6.90298 25.0543C6.97194 24.744 7.10985 24.6233 7.4029 24.6233C7.76492 24.6233 7.83387 24.7267 7.9373 25.4163Z" fill="black"/>
<path d="M12.3332 35.2254C9.52325 38.0353 9.12676 38.5869 9.88526 38.5869C10.2645 38.5869 15.7809 33.0705 15.7809 32.6913C15.7809 31.95 15.1603 32.3982 12.3332 35.2254Z" fill="black"/>
<path d="M5.86866 28.4499C4.85158 29.036 4.3689 29.9841 4.45509 31.2253C4.61024 33.8456 7.627 35.0006 9.48878 33.156C10.8162 31.8114 10.6093 29.7083 9.02333 28.5361C8.28207 27.9844 6.74783 27.95 5.86866 28.4499ZM8.6958 29.3635C9.71288 30.2427 9.79907 31.6218 8.86818 32.5527C7.92006 33.4836 6.57544 33.3974 5.69627 32.3458C4.92053 31.4322 5.23083 29.76 6.26515 29.2084C7.02365 28.7947 8.09245 28.8636 8.6958 29.3635Z" fill="black"/>
</g>
<defs>
<clipPath id="clip0_4093_728">
<rect width="37" height="41" fill="white"/>
</clipPath>
</defs>
</svg>
