<svg width="25" height="32" viewBox="0 0 25 32" fill="none" xmlns="http://www.w3.org/2000/svg">
<path d="M8.12503 12.5838C8.14014 11.4282 8.60593 10.3241 9.42315 9.50692C10.2404 8.6897 11.3444 8.22391 12.5 8.2088C13.6557 8.22391 14.7597 8.6897 15.5769 9.50692C16.3941 10.3241 16.8599 11.4282 16.875 12.5838C16.8599 13.7394 16.3941 14.8435 15.5769 15.6607C14.7597 16.4779 13.6557 16.9437 12.5 16.9588C11.3444 16.9437 10.2404 16.4779 9.42315 15.6607C8.60593 14.8435 8.14014 13.7394 8.12503 12.5838ZM12.5 25.7088L18.3334 27.1671V22.6755C16.5741 23.7349 14.5534 24.2805 12.5 24.2505C10.4467 24.2805 8.42592 23.7349 6.6667 22.6755V27.1671M12.5 3.8338C11.3508 3.81284 10.2095 4.02713 9.14611 4.4635C8.08276 4.89987 7.1199 5.54911 6.3167 6.3713C5.48562 7.17538 4.82887 8.14187 4.38731 9.21064C3.94575 10.2794 3.72883 11.4276 3.75003 12.5838C3.73484 13.7327 3.95468 14.8725 4.39606 15.9333C4.83744 16.9942 5.49104 17.9535 6.3167 18.7526C7.11615 19.5827 8.07734 20.24 9.14086 20.684C10.2044 21.128 11.3477 21.3491 12.5 21.3338C13.6524 21.3491 14.7957 21.128 15.8592 20.684C16.9227 20.24 17.8839 19.5827 18.6834 18.7526C19.509 17.9535 20.1626 16.9942 20.604 15.9333C21.0454 14.8725 21.2652 13.7327 21.25 12.5838C21.2712 11.4276 21.0543 10.2794 20.6128 9.21064C20.1712 8.14187 19.5145 7.17538 18.6834 6.3713C17.8802 5.54911 16.9173 4.89987 15.854 4.4635C14.7906 4.02713 13.6492 3.81284 12.5 3.8338ZM24.1667 12.5838C24.1369 13.9838 23.8553 15.3669 23.3355 16.6671C22.8694 17.991 22.1623 19.2172 21.25 20.2838V31.5421L12.5 28.6255L3.75003 31.5421V20.2838C1.8625 18.1641 0.823888 15.4221 0.833366 12.5838C0.807664 11.0534 1.09592 9.53398 1.68034 8.11933C2.26476 6.70468 3.13294 5.42484 4.23128 4.3588C5.30127 3.25061 6.58702 2.37348 8.00919 1.78153C9.43135 1.18959 10.9597 0.895408 12.5 0.917137C14.0403 0.895408 15.5687 1.18959 16.9909 1.78153C18.413 2.37348 19.6988 3.25061 20.7688 4.3588C21.8671 5.42484 22.7353 6.70468 23.3197 8.11933C23.9041 9.53398 24.1924 11.0534 24.1667 12.5838Z" fill="black"/>
</svg>
