<svg width="70" height="70" viewBox="0 0 70 70" fill="none" xmlns="http://www.w3.org/2000/svg">
<path d="M4.35513 69.9999C4.14444 69.9991 3.94143 69.9108 3.785 69.7521C3.62856 69.5933 3.5297 69.3752 3.50735 69.1395L0.344389 33.0632L0.341797 32.9728C0.341797 32.442 0.722908 32.0132 1.19476 32.0132H22.5396V70.0028L4.35513 69.9999ZM13.0662 60.477C13.0662 61.2275 13.2641 61.964 13.6347 62.5881C14.0053 63.2121 14.5321 63.6984 15.1484 63.9856C15.7648 64.2728 16.4429 64.348 17.0972 64.2016C17.7515 64.0552 18.3525 63.6938 18.8242 63.1631C19.296 62.6324 19.6172 61.9563 19.7474 61.2202C19.8775 60.4841 19.8107 59.7211 19.5554 59.0278C19.3001 58.3344 18.8678 57.7418 18.3131 57.3248C17.7584 56.9079 17.1063 56.6853 16.4392 56.6853H16.434C14.5699 56.6853 13.0611 58.3828 13.0585 60.4799L13.0662 60.477ZM14.3107 37.1436C14.3107 37.6716 14.6918 38.1003 15.1636 38.1003H17.1444C17.3699 38.1003 17.5862 37.9995 17.7457 37.8201C17.9052 37.6407 17.9948 37.3974 17.9948 37.1436C17.9948 36.8899 17.9052 36.6466 17.7457 36.4672C17.5862 36.2878 17.3699 36.187 17.1444 36.187H15.1481C14.9219 36.187 14.7049 36.2881 14.545 36.468C14.385 36.648 14.2951 36.8921 14.2951 37.1466V37.1553L14.3107 37.1436ZM4.95143 37.1436C4.95143 37.6716 5.33254 38.1003 5.8018 38.1003H12.2962C12.5218 38.1003 12.7381 37.9995 12.8975 37.8201C13.057 37.6407 13.1466 37.3974 13.1466 37.1436C13.1466 36.8899 13.057 36.6466 12.8975 36.4672C12.7381 36.2878 12.5218 36.187 12.2962 36.187H5.78624C5.56071 36.187 5.34441 36.2878 5.18494 36.4672C5.02546 36.6466 4.93587 36.8899 4.93587 37.1436V37.1524L4.95143 37.1436ZM30.3588 64.5253C29.9019 64.3517 29.4703 64.1031 29.0781 63.7874L29.0936 63.7991L28.8344 63.6153C28.2305 63.1891 27.6341 62.7496 27.0455 62.297L26.7836 62.0899C26.4414 61.8128 26.2807 61.6903 26.1044 61.702C25.4822 61.7166 24.8599 61.7224 24.2377 61.7311V35.0291L24.204 32.7832C25.3733 31.9461 26.4518 31.1499 26.7759 30.8466C27.2166 29.8491 27.6522 29.0149 28.1344 28.2157L28.0903 28.2945C28.3107 27.9066 28.5311 27.5216 28.7333 27.1395L33.2029 18.6986C33.4103 18.302 33.6359 17.9053 33.8614 17.5086C34.2374 16.8786 34.6366 16.1261 35.0022 15.3503L35.0644 15.2074C35.2692 14.7363 35.3407 14.206 35.2692 13.6878L35.2718 13.7024L35.2562 4.60239C35.4196 3.27822 36.0833 2.15822 37.0192 1.47572L37.0348 1.46406C37.8691 0.618584 38.928 0.106037 40.0474 0.00572428H40.0655L40.2288 0.00280762C41.1129 0.00280762 41.9477 0.239058 42.6892 0.656141L42.6581 0.638641C43.1533 0.906974 43.5759 1.19281 43.9725 1.51364L43.9466 1.49322L44.2214 1.69739C44.8462 2.06781 45.3129 2.69197 45.5203 3.44739L45.5255 3.46781C46.0103 5.49781 46.4536 7.34406 46.8659 9.19614L47.037 9.95156C47.2988 10.9432 47.5244 12.142 47.6696 13.3699L47.6825 13.4924C47.2392 18.0832 46.3862 22.2716 45.1522 26.2616L45.2611 25.8591L65.2059 25.827H65.2785C65.8827 25.827 66.48 25.9717 67.0307 26.2514C67.5814 26.5311 68.0729 26.9394 68.4726 27.4492C68.8723 27.9589 69.171 28.5585 69.3489 29.2082C69.5268 29.8578 69.5798 30.5425 69.5044 31.217L69.507 31.1936C69.5628 32.2126 69.3777 33.2301 68.9706 34.1425C68.5635 35.0549 67.9489 35.8297 67.1892 36.3882L67.1685 36.4028C67.896 37.5996 68.2364 39.041 68.1329 40.4861V40.4657C68.2237 41.6109 67.9866 42.7588 67.4563 43.7417C66.926 44.7245 66.1301 45.4908 65.1851 45.9286L65.154 45.9403C65.7339 47.1034 66.0031 48.4301 65.9292 49.7611V49.7436C65.9856 50.7407 65.802 51.7363 65.3978 52.6259C64.9936 53.5154 64.3836 54.2659 63.6322 54.7982L63.6114 54.8128C64.141 56.1469 64.3416 57.6168 64.1922 59.0682L64.1948 59.0303V59.5786C64.1576 60.297 63.992 60.9996 63.7078 61.6443C63.4237 62.289 63.0268 62.8625 62.541 63.3306C62.0552 63.7987 61.4905 64.1517 60.8805 64.3685C60.2706 64.5854 59.6281 64.6615 58.9914 64.5924L59.0096 64.5953H47.527L47.4881 64.5982L47.4466 64.5953H47.4492H32.127C31.9948 64.5953 31.8574 64.5953 31.7122 64.6186C31.5359 64.6303 31.3492 64.6478 31.1574 64.6478H31.1185C30.8566 64.6481 30.5959 64.6088 30.3433 64.5311L30.364 64.537L30.3588 64.5253ZM14.7644 60.4799C14.7646 60.2346 14.8077 59.9917 14.8913 59.7651C14.9749 59.5385 15.0974 59.3327 15.2517 59.1594C15.406 58.986 15.5891 58.8486 15.7907 58.7549C15.9922 58.6612 16.2082 58.613 16.4262 58.6132C16.6443 58.6134 16.8602 58.6619 17.0616 58.756C17.263 58.85 17.446 58.9878 17.6001 59.1614C17.7541 59.335 17.8763 59.5411 17.9596 59.7678C18.0429 59.9945 18.0857 60.2375 18.0855 60.4828C18.0852 60.9783 17.9099 61.4533 17.5982 61.8033C17.2866 62.1534 16.8641 62.3499 16.4236 62.3495C15.9832 62.3491 15.561 62.1519 15.2498 61.8013C14.9387 61.4507 14.764 60.9754 14.7644 60.4799Z" fill="black"/>
</svg>
