<svg width="52" height="62" viewBox="0 0 52 62" fill="none" xmlns="http://www.w3.org/2000/svg">
<path d="M20.9695 50.6875H51.5945V55.0625H20.9695V50.6875ZM6.02891 52.875L0.385157 58.5187L3.46953 61.625L12.2195 52.875L3.46953 44.125L0.363281 47.2094L6.02891 52.875ZM20.9695 28.8125H51.5945V33.1875H20.9695V28.8125ZM6.02891 31L0.385157 36.6437L3.46953 39.75L12.2195 31L3.46953 22.25L0.363281 25.3344L6.02891 31ZM20.9695 6.9375H51.5945V11.3125H20.9695V6.9375ZM6.02891 9.125L0.385157 14.7688L3.46953 17.875L12.2195 9.125L3.46953 0.375L0.363281 3.45938L6.02891 9.125Z" fill="black"/>
</svg>
