<svg width="47" height="63" viewBox="0 0 47 63" fill="none" xmlns="http://www.w3.org/2000/svg">
<path d="M14.5948 24.1666C14.625 21.8554 15.5566 19.6473 17.191 18.0129C18.8255 16.3784 21.0335 15.4468 23.3448 15.4166C25.656 15.4468 27.8641 16.3784 29.4986 18.0129C31.133 19.6473 32.0646 21.8554 32.0948 24.1666C32.0646 26.4779 31.133 28.686 29.4986 30.3204C27.8641 31.9548 25.656 32.8864 23.3448 32.9166C21.0335 32.8864 18.8255 31.9548 17.191 30.3204C15.5566 28.686 14.625 26.4779 14.5948 24.1666ZM23.3448 50.4166L35.0115 53.3333V44.35C31.493 46.4688 27.4515 47.56 23.3448 47.5C19.2381 47.56 15.1966 46.4688 11.6781 44.35V53.3333M23.3448 6.66663C21.0464 6.6247 18.7636 7.05327 16.637 7.92602C14.5103 8.79877 12.5845 10.0972 10.9781 11.7416C9.31596 13.3498 8.00246 15.2828 7.11934 17.4203C6.23623 19.5578 5.80238 21.8542 5.84479 24.1666C5.8144 26.4644 6.25409 28.7441 7.13685 30.8657C8.01961 32.9874 9.3268 34.9061 10.9781 36.5041C12.577 38.1643 14.4994 39.479 16.6265 40.367C18.7535 41.2549 21.04 41.6973 23.3448 41.6666C25.6495 41.6973 27.9361 41.2549 30.0631 40.367C32.1902 39.479 34.1126 38.1643 35.7115 36.5041C37.3628 34.9061 38.67 32.9874 39.5527 30.8657C40.4355 28.7441 40.8752 26.4644 40.8448 24.1666C40.8872 21.8542 40.4534 19.5578 39.5702 17.4203C38.6871 15.2828 37.3736 13.3498 35.7115 11.7416C34.1051 10.0972 32.1793 8.79877 30.0526 7.92602C27.9259 7.05327 25.6432 6.6247 23.3448 6.66663ZM46.6781 24.1666C46.6186 26.9666 46.0554 29.7329 45.0156 32.3333C44.0835 34.9811 42.6694 37.4335 40.8448 39.5666V62.0833L23.3448 56.25L5.84479 62.0833V39.5666C2.06972 35.3271 -0.00749644 29.8433 0.0114596 24.1666C-0.0399463 21.1058 0.536567 18.067 1.70541 15.2377C2.87425 12.4084 4.61061 9.8487 6.80729 7.71663C8.94726 5.50025 11.5188 3.74598 14.3631 2.56209C17.2074 1.37821 20.2642 0.789838 23.3448 0.833298C26.4254 0.789838 29.4822 1.37821 32.3265 2.56209C35.1708 3.74598 37.7423 5.50025 39.8823 7.71663C42.079 9.8487 43.8153 12.4084 44.9842 15.2377C46.153 18.067 46.7295 21.1058 46.6781 24.1666Z" fill="black"/>
</svg>
