<svg width="58" height="60" viewBox="0 0 58 60" fill="none" xmlns="http://www.w3.org/2000/svg">
<path d="M51.0153 32.8584C51.132 31.9251 51.2195 30.9917 51.2195 30.0001C51.2195 29.0084 51.132 28.0751 51.0153 27.1417L57.1695 22.3292C57.7237 21.8917 57.8695 21.1042 57.5195 20.4626L51.6862 10.3709C51.5142 10.07 51.2407 9.84011 50.9147 9.72253C50.5887 9.60494 50.2314 9.60732 49.907 9.72922L42.6445 12.6459C41.1278 11.4792 39.4945 10.5167 37.7153 9.78756L36.607 2.05839C36.5587 1.71522 36.3869 1.40144 36.1238 1.17591C35.8607 0.95038 35.5243 0.828592 35.1778 0.833388H23.5112C22.782 0.833388 22.1695 1.35839 22.082 2.05839L20.9737 9.78756C19.1945 10.5167 17.5612 11.5084 16.0445 12.6459L8.782 9.72922C8.61289 9.67185 8.43558 9.6423 8.257 9.64172C7.76117 9.64172 7.26534 9.90422 7.00284 10.3709L1.1695 20.4626C0.790336 21.1042 0.965336 21.8917 1.5195 22.3292L7.67367 27.1417C7.557 28.0751 7.4695 29.0376 7.4695 30.0001C7.4695 30.9626 7.557 31.9251 7.67367 32.8584L1.5195 37.6709C0.965336 38.1084 0.819502 38.8959 1.1695 39.5376L7.00284 49.6292C7.17478 49.9301 7.44827 50.16 7.77429 50.2776C8.10032 50.3952 8.45757 50.3928 8.782 50.2709L16.0445 47.3542C17.5612 48.5209 19.1945 49.4834 20.9737 50.2126L22.082 57.9417C22.1695 58.6417 22.782 59.1667 23.5112 59.1667H35.1778C35.907 59.1667 36.5195 58.6417 36.607 57.9417L37.7153 50.2126C39.4945 49.4834 41.1278 48.4917 42.6445 47.3542L49.907 50.2709C50.082 50.3292 50.257 50.3584 50.432 50.3584C50.9278 50.3584 51.4237 50.0959 51.6862 49.6292L57.5195 39.5376C57.8695 38.8959 57.7237 38.1084 57.1695 37.6709L51.0153 32.8584ZM45.2403 27.8709C45.357 28.7751 45.3862 29.3876 45.3862 30.0001C45.3862 30.6126 45.3278 31.2542 45.2403 32.1292L44.832 35.4251L47.4278 37.4667L50.5778 39.9167L48.5362 43.4459L44.832 41.9584L41.7987 40.7334L39.1737 42.7167C37.9195 43.6501 36.7237 44.3501 35.5278 44.8459L32.4362 46.1001L31.9695 49.3959L31.3862 53.3334H27.3028L26.7487 49.3959L26.282 46.1001L23.1903 44.8459C21.9362 44.3209 20.7695 43.6501 19.6028 42.7751L16.9487 40.7334L13.857 41.9876L10.1528 43.4751L8.11117 39.9459L11.2612 37.4959L13.857 35.4542L13.4487 32.1584C13.3612 31.2542 13.3028 30.5834 13.3028 30.0001C13.3028 29.4167 13.3612 28.7459 13.4487 27.8709L13.857 24.5751L11.2612 22.5334L8.11117 20.0834L10.1528 16.5542L13.857 18.0417L16.8903 19.2667L19.5153 17.2834C20.7695 16.3501 21.9653 15.6501 23.1612 15.1542L26.2528 13.9001L26.7195 10.6042L27.3028 6.66672H31.357L31.9112 10.6042L32.3778 13.9001L35.4695 15.1542C36.7237 15.6792 37.8903 16.3501 39.057 17.2251L41.7112 19.2667L44.8028 18.0126L48.507 16.5251L50.5487 20.0542L47.4278 22.5334L44.832 24.5751L45.2403 27.8709ZM29.3445 18.3334C22.8987 18.3334 17.6778 23.5542 17.6778 30.0001C17.6778 36.4459 22.8987 41.6667 29.3445 41.6667C35.7903 41.6667 41.0112 36.4459 41.0112 30.0001C41.0112 23.5542 35.7903 18.3334 29.3445 18.3334ZM29.3445 35.8334C26.1362 35.8334 23.5112 33.2084 23.5112 30.0001C23.5112 26.7917 26.1362 24.1667 29.3445 24.1667C32.5528 24.1667 35.1778 26.7917 35.1778 30.0001C35.1778 33.2084 32.5528 35.8334 29.3445 35.8334Z" fill="black"/>
</svg>
