<svg width="84" height="84" viewBox="0 0 84 84" fill="none" xmlns="http://www.w3.org/2000/svg">
<path d="M42.0041 0.333252C65.0166 0.333252 83.6708 18.9874 83.6708 41.9999C83.6708 65.0124 65.0166 83.6666 42.0041 83.6666C34.6407 83.6785 27.4069 81.7298 21.0458 78.0208L0.354128 83.6666L5.98746 62.9666C2.27535 56.6036 0.325159 49.3666 0.33746 41.9999C0.33746 18.9874 18.9916 0.333252 42.0041 0.333252ZM27.8041 22.4166L26.9708 22.4499C26.4313 22.4828 25.904 22.6245 25.4208 22.8666C24.9688 23.1225 24.5562 23.4425 24.1958 23.8166C23.6958 24.2874 23.4125 24.6958 23.1083 25.0916C21.5671 27.0953 20.7373 29.5554 20.75 32.0833C20.7583 34.1249 21.2916 36.1124 22.125 37.9707C23.8291 41.7291 26.6333 45.7082 30.3333 49.3957C31.225 50.2832 32.1 51.1749 33.0416 52.0041C37.6391 56.0518 43.1177 58.9709 49.0416 60.5291L51.4083 60.8916C52.1791 60.9333 52.95 60.8749 53.725 60.8374C54.9385 60.7748 56.1233 60.4462 57.1958 59.8749C57.7414 59.5939 58.2739 59.288 58.7916 58.9582C58.7916 58.9582 58.9708 58.8416 59.3125 58.5832C59.875 58.1666 60.2208 57.8708 60.6875 57.3833C61.0333 57.0249 61.3333 56.6041 61.5625 56.1249C61.8875 55.4458 62.2125 54.1499 62.3458 53.0707C62.4458 52.2457 62.4166 51.7958 62.4041 51.5166C62.3875 51.0708 62.0166 50.6082 61.6125 50.4124L59.1875 49.3249C59.1875 49.3249 55.5625 47.7458 53.3458 46.7374C53.1138 46.6361 52.8653 46.5782 52.6125 46.5666C52.3274 46.5373 52.0393 46.5694 51.7677 46.6607C51.496 46.7519 51.247 46.9003 51.0375 47.0957C51.0166 47.0874 50.7375 47.3249 47.725 50.9749C47.552 51.2073 47.3139 51.3828 47.0408 51.4793C46.7677 51.5758 46.4721 51.5888 46.1916 51.5166C45.9202 51.4438 45.6543 51.3519 45.3958 51.2416C44.8791 51.0249 44.7 50.9416 44.3458 50.7916C41.9544 49.748 39.7403 48.338 37.7833 46.6124C37.2583 46.1541 36.7708 45.6541 36.2708 45.1707C34.6316 43.6009 33.203 41.8249 32.0208 39.8874L31.775 39.4916C31.5984 39.2256 31.4556 38.9387 31.35 38.6374C31.1916 38.0249 31.6041 37.5333 31.6041 37.5333C31.6041 37.5333 32.6166 36.4249 33.0875 35.8249C33.5458 35.2416 33.9333 34.6749 34.1833 34.2708C34.675 33.4791 34.8291 32.6666 34.5708 32.0374C33.4041 29.1874 32.1958 26.3499 30.9541 23.5333C30.7083 22.9749 29.9791 22.5749 29.3166 22.4958C29.0916 22.4708 28.8666 22.4458 28.6416 22.4291C28.0821 22.4013 27.5214 22.4069 26.9625 22.4458L27.8041 22.4166Z" fill="#544484"/>
</svg>
